<svg id="Layer_1" data-name="Layer 1" xmlns="http://www.w3.org/2000/svg" viewBox="0 0 56 56"><defs><style>.cls-1{fill:#fff;}</style></defs><title>call-white</title><path class="cls-1" d="M39.09,36.12c-4.42-3.55-5.65-1.81-7.66.2-1.4,1.4-4.94-1.52-8-4.58s-6-6.6-4.58-8c2-2,3.75-3.24.2-7.66s-5.92-1-7.86.92c-2.24,2.24-.12,10.59,8.14,18.85S35.83,46.08,38.18,44C40.22,42.15,43.51,39.67,39.09,36.12ZM15.87,18.48l-.26.11c-.21.08-.46.17-.74.29a4.15,4.15,0,0,0-.41.22,2.33,2.33,0,0,0-.4.29,2.75,2.75,0,0,0-.36.4,2.86,2.86,0,0,0-.27.53,3.28,3.28,0,0,0-.18.62c0,.22,0,.44-.08.66a7.93,7.93,0,0,0,.07,1.24,8,8,0,0,0,.16.9l.07.34-.18-.3a8.27,8.27,0,0,1-.46-.8,8.53,8.53,0,0,1-.54-1.25c-.06-.25-.14-.5-.19-.78a4.6,4.6,0,0,1-.06-.87,4.42,4.42,0,0,1,.11-.91,4.58,4.58,0,0,1,.33-.87,4.29,4.29,0,0,1,.47-.74,6.24,6.24,0,0,1,.5-.58c.33-.32.61-.56.77-.7l.18-.16.06-.05L16,18.43ZM38.61,41c-.15.19-.38.47-.7.8a6.35,6.35,0,0,1-.56.5,5.08,5.08,0,0,1-.7.47,4.5,4.5,0,0,1-.82.36,4.24,4.24,0,0,1-.88.18l-.44,0-.42,0a5,5,0,0,1-.79-.12,7.12,7.12,0,0,1-.69-.2,5.35,5.35,0,0,1-.59-.24,7.13,7.13,0,0,1-.82-.41l-.3-.17a1.75,1.75,0,0,0,.52.23,7,7,0,0,0,.9.1,4.7,4.7,0,0,0,.58,0,6.24,6.24,0,0,0,.64,0,4,4,0,0,0,.64-.13l.31-.09.29-.13a3,3,0,0,0,1.41-1.55c.12-.28.2-.52.27-.72l.11-.32,2.27,1.19Z"/><path class="cls-1" d="M27.73,54.66A26.88,26.88,0,1,1,54.61,27.78,26.91,26.91,0,0,1,27.73,54.66Zm0-51.52A24.64,24.64,0,1,0,52.37,27.78,24.67,24.67,0,0,0,27.73,3.15Z"/><path class="cls-1" d="M27.28,20.73c-.34-.16-.67-.3-1-.43l-.82,2.11c.27.1.55.22.83.36a9.6,9.6,0,0,1,5,5.75l2-1A11.89,11.89,0,0,0,27.28,20.73Z"/><path class="cls-1" d="M33.74,12.75a16.81,16.81,0,0,0-4-1.33l-.83,2.14c3.12.52,9.15,2.58,10.77,10.67l2.08-1.07A14.7,14.7,0,0,0,33.74,12.75Z"/><path class="cls-1" d="M30.93,17.08a13.8,13.8,0,0,0-3-1l-.83,2.14a11.63,11.63,0,0,1,2.84.93,9.92,9.92,0,0,1,5.46,7.3l2.08-1.07A12.09,12.09,0,0,0,30.93,17.08Z"/></svg>