<svg id="Layer_1" data-name="Layer 1" xmlns="http://www.w3.org/2000/svg" viewBox="0 0 56 56"><defs><style>.cls-1{fill:#3e3e3e;}</style></defs><title>cart</title><path class="cls-1" d="M31,39.3H8.31a1,1,0,0,1-.93-.65L1.68,15a1,1,0,0,1,.93-1.33H35.27a1,1,0,0,1,0,2H4l5,21.7H30.4L40.8,5.85a1,1,0,0,1,.86-.5H53.38a1,1,0,0,1,0,2H42.25L31.84,38.8A1,1,0,0,1,31,39.3Z"/><path class="cls-1" d="M52.78,16.14H44.19a1,1,0,0,1,0-2h8.59a1,1,0,0,1,0,2Z"/><path class="cls-1" d="M52.76,21H44.17a1,1,0,0,1,0-2h8.59a1,1,0,0,1,0,2Z"/><path class="cls-1" d="M49,25.81H40.42a1,1,0,0,1,0-2H49a1,1,0,0,1,0,2Z"/><path class="cls-1" d="M46,30.68H37.4a1,1,0,0,1,0-2H46a1,1,0,0,1,0,2Z"/><path class="cls-1" d="M13.78,50.5a4.69,4.69,0,1,1,4.69-4.69A4.7,4.7,0,0,1,13.78,50.5Zm0-6.79a2.1,2.1,0,1,0,2.1,2.1A2.1,2.1,0,0,0,13.78,43.7Z"/><path class="cls-1" d="M25.81,50.5A4.69,4.69,0,1,1,30.5,45.8,4.7,4.7,0,0,1,25.81,50.5Zm0-6.79a2.1,2.1,0,1,0,2.1,2.1A2.1,2.1,0,0,0,25.81,43.7Z"/></svg>