<svg id="Layer_1" data-name="Layer 1" xmlns="http://www.w3.org/2000/svg" viewBox="0 0 150 150"><defs><style>.cls-1{fill:#e1672e;}</style></defs><title>cart-white</title><path class="cls-1" d="M83.29,106.65h-63a2.76,2.76,0,0,1-2.59-1.82L1.82,39a2.76,2.76,0,0,1,2.59-3.7H95.23a2.76,2.76,0,0,1,0,5.51H8.34l13.83,60.34h59.5L110.6,13.62a2.76,2.76,0,0,1,2.4-1.4h32.58a2.76,2.76,0,0,1,0,5.51h-31L85.69,105.25A2.76,2.76,0,0,1,83.29,106.65Z"/><path class="cls-1" d="M143.91,42.25H120a2.76,2.76,0,0,1,0-5.51h23.88a2.76,2.76,0,0,1,0,5.51Z"/><path class="cls-1" d="M143.85,55.79H120a2.76,2.76,0,0,1,0-5.51h23.88a2.76,2.76,0,0,1,0,5.51Z"/><path class="cls-1" d="M133.42,69.13H109.53a2.76,2.76,0,0,1,0-5.51h23.88a2.76,2.76,0,0,1,0,5.51Z"/><path class="cls-1" d="M125,82.67H101.13a2.76,2.76,0,0,1,0-5.51H125a2.76,2.76,0,0,1,0,5.51Z"/><path class="cls-1" d="M35.46,137.78a13,13,0,1,1,13-13A13.06,13.06,0,0,1,35.46,137.78Zm0-18.89a5.84,5.84,0,1,0,5.84,5.84A5.85,5.85,0,0,0,35.46,118.89Z"/><path class="cls-1" d="M68.9,137.78a13,13,0,1,1,13-13A13.06,13.06,0,0,1,68.9,137.78Zm0-18.89a5.84,5.84,0,1,0,5.84,5.84A5.85,5.85,0,0,0,68.9,118.89Z"/></svg>