<svg id="Layer_1" data-name="Layer 1" xmlns="http://www.w3.org/2000/svg" viewBox="0 0 150 150"><defs><style>.cls-1{fill:#e1672e;}</style></defs><title>clock</title><path class="cls-1" d="M75,.2A74.8,74.8,0,1,0,149.8,75,74.8,74.8,0,0,0,75,.2Zm5.65,138v-5a5.65,5.65,0,1,0-11.29,0v5A63.6,63.6,0,0,1,11.74,80.47h4.87a5.65,5.65,0,0,0,0-11.29H11.77A63.61,63.61,0,0,1,69.35,11.75v4.68a5.65,5.65,0,1,0,11.29,0V11.75a63.6,63.6,0,0,1,57.59,57.42h-4.84a5.65,5.65,0,1,0,0,11.29h4.87A63.6,63.6,0,0,1,80.65,138.25Z"/><path class="cls-1" d="M108.63,38.56l-33.44,35H75a6.41,6.41,0,0,0-1.22.12l-28-21.15a4.24,4.24,0,0,0-5.09,6.77l28,21.14a6.35,6.35,0,0,0,12.68-.53c0-.17,0-.33,0-.5l33.43-35a4.23,4.23,0,1,0-6.13-5.84Z"/></svg>