<svg id="Layer_1" data-name="Layer 1" xmlns="http://www.w3.org/2000/svg" viewBox="0 0 56 56"><defs><style>.cls-1{fill:#ee3158;}</style></defs><title>star</title><path class="cls-1" d="M28.46,2.77l7.92,16a.51.51,0,0,0,.38.28l17.71,2.57a.51.51,0,0,1,.28.87L41.94,35a.51.51,0,0,0-.15.45l3,17.64a.51.51,0,0,1-.74.54L28.24,45.34a.51.51,0,0,0-.48,0L11.92,53.67a.51.51,0,0,1-.74-.54l3-17.64a.51.51,0,0,0-.15-.45L1.24,22.55a.51.51,0,0,1,.28-.87L19.24,19.1a.51.51,0,0,0,.38-.28l7.92-16A.51.51,0,0,1,28.46,2.77Z"/></svg>