<svg id="Layer_1" data-name="Layer 1" xmlns="http://www.w3.org/2000/svg" viewBox="0 0 350 200"><defs><style>.cls-1{fill:#e1672e;}</style></defs><title>female</title><path class="cls-1" d="M211.53,27.55C210.36,5.43,181.55.19,175.73.19s-13.39,1.75-15.14,5.24l.38.34a10.59,10.59,0,0,0-9.69,2.28c-3.14,2.69-14,15.72-7.57,37A9.61,9.61,0,0,0,145.65,49c1.25,9,4.42,23.1,7.09,28.94,5,10.92,15.76,17.17,25.32,17.17,9,0,17.64-6.17,22.7-16,3.55-6.9,5.68-17.39,7.51-26.55.51-2.57.92-5.19,1.19-7.82l1.19-.85S212.11,42.69,211.53,27.55Z"/><path class="cls-1" d="M211.13,74c5.09,4.67,14,.42,14.63-5.51-2.55,2.12-5.94,1.48-7.21,0,2.33,1.27,7-3.39,8.48-6.36-3.82,4-10.39,3.82-15.69-.21,6.29,5,14.35-3.75,14.35-3.75a12.37,12.37,0,0,1-3.06,2.38,22.94,22.94,0,0,0,2.49-2.39c-4.67,2.12-9.54.21-9.76-3.82,4.24.85,9.76-4.24,8.91-8.91-3.39,8.48-10.6,3.39-10.18.42,1.27,1.27,4.24,0,4.67-3.82-6.79,1.27-6.79-9.76-8.06-17,0,0-8.48,6.79-9.33,12.3-.4,2.63.65,7.48,2.4,12.2L191.19,51.7l-29.55-.28-12.58-2.16c1.75-4.72,2.8-9.57,2.4-12.2-.85-5.51-9.33-12.3-9.33-12.3-1.27,7.21-2.4,21.07-9.19,19.79.42,3.82,3.82,4.38,5.09,3.11.42,3-6.79,2.55-9.48-2.54-.85,4.67,2.69,9.9,6.93,9-.21,4-3.11,5.8-7.78,3.68a22.91,22.91,0,0,0,2.49,2.39,12.36,12.36,0,0,1-3.06-2.38s8.06,8.77,14.35,3.75c-5.3,4-11.88,4.24-15.69.21,1.48,3,6.15,7.64,8.48,6.36-1.27,1.48-4.67,2.12-7.21,0,.64,5.94,9.54,10.18,14.63,5.51-3.39,4.67-11,4.45-15.27,1.48.85,5.51,10.36,15.3,19.9,9.37.41-.25.2-2.28.6-2.6-.6,5.15-9.54,6.3-10.6,6.46,1.1,2.49,6.79,2,12.52-.39.61.87-.22,1.72.69,3s52.83,1.59,53.74.28.08-2.16.69-3c3.16,1.44,4.21.87,5.3-1.62-1.06-.16-2.36-2.24-3.39-4.45a12,12,0,0,0,1.2.87c9.54,5.94,18.45-2.12,19.3-7.64C222.16,78.42,214.52,78.64,211.13,74Z"/><path class="cls-1" d="M250.28,128.25c-1.13-4.52-6.94-7.07-6.94-7.07L206.89,103.1l-1-.77,3.94,28.76s-17.92-19.3-32.34-10.18c2.76-2.47,22.23-17.59,20.45-23.49-.14-.48-.36-.69-.94-1.11l-2-.1c-1-4.57-1.14-11.65,2.36-22.1,3.18-9.5-43.44-1-43.44-1,5.19,13.1,5.72,19.94,4.72,24.45l-1.69.06-.16.08c-1.23,6,17.24,20.6,20.59,23.25-13.36-8.91-32,9.9-32,9.9l2.94-29.11-5.12,2.41-36,18.2s-4,.85-6.81,6.22c-1.26,2.39-7.64,31.39-11.14,71.28H260.73C256.5,160.2,250.94,130.87,250.28,128.25ZM196.13,92.19l.12.11C196.14,92.1,196.13,92.19,196.13,92.19Z"/></svg>