<svg id="Layer_1" data-name="Layer 1" xmlns="http://www.w3.org/2000/svg" viewBox="0 0 350 200"><defs><style>.cls-1{fill:#e1672e;}</style></defs><title>male</title><path class="cls-1" d="M208.9,56.83c-1.94,9.71-3.31,20.43-7.07,27.74-5.37,10.43-17.12,16.86-26.66,16.86-10.14,0-21.38-6.92-26.66-18.49C145.35,76,143,58.77,142.11,49.8c-2.53-25.7,7.49-34.86,33.06-35.41C203.5,13.79,213.8,32.35,208.9,56.83Z"/><path class="cls-1" d="M144.16,46.67c-4-2.18-7.62-1.81-6.89,2.9s1.81,17.41,4.35,19.59,5.08,2.9,6.53.36S144.16,46.67,144.16,46.67Z"/><path class="cls-1" d="M207.06,46.67c4-2.18,7.62-1.81,6.89,2.9S212.14,67,209.6,69.16s-5.08,2.9-6.53.36S207.06,46.67,207.06,46.67Z"/><path class="cls-1" d="M191.63,12.3c-1.36-5.45.69-7.89-10-10.45-11.36-2.73-20-2.73-30.91,5.91-8.58,6.8-12.27,13.18-11.82,25.46s1.82,17.72,1.82,17.72L148,55s.91-22.73,3.64-27.27,20-3.18,27.73-5S191.63,12.3,191.63,12.3Z"/><path class="cls-1" d="M187.54,12.75c2.73,6.36,11.82,13.18,15,18.64s1.82,25.45,1.82,25.45l5.91-5s5.91-20.45,0-33.18S194.82,1.39,188.91,4.57,187.54,12.75,187.54,12.75Z"/><path class="cls-1" d="M254.87,122.93a5.73,5.73,0,0,0-4.36-2.23l-43-17.15-10.07-5.92c-.32-5.31-.28-11.11.74-15.77,2.28-10.37-46.06-1.09-46.06-1.09a127.18,127.18,0,0,1,.51,17.13l-9.6,5.65-43,18.29a5.73,5.73,0,0,0-4.36,2.23C94.14,126.3,83.89,158.64,82,199.73H268C266.11,158.64,256.43,125.16,254.87,122.93ZM204,135.5l-3.25-2.11c-1.43,6.26-3.5,13-5.56,20.5-5.62,20.54-13.66,40.74-15.2,42.65h-6.83c-1.53-1.91-9.51-21-15.13-41.51-2.14-7.81-4.23-14.73-5.92-21.57l-3.56,2-2.84-31.28,7-4.36,20.61,21.44-.94.54a7.8,7.8,0,0,0,3.51,1.34c1.22-.1,3-1,5.19-2.61l-1.5-1,18.68-19.73,7.2,4.08Z"/><path class="cls-1" d="M178.38,117.49h-4.21l-5.62,5.62s3.43,1.12,4.1,8.86a46.32,46.32,0,0,0,7.24,0c.67-7.74,4.7-9,4.7-9Z"/><path class="cls-1" d="M179.61,131,177,129.79v-.52l-.72.26-.72-.26v.52L172.94,131c-3.27,3-3.21,14.35-3.21,17.35v51.47h13.09V148.3C182.82,145.3,182.88,133.94,179.61,131Z"/><polygon class="cls-1" points="178.38 117.5 200.88 133.37 178.89 119.58 178.38 117.5"/><polygon class="cls-1" points="174.17 117.5 152.96 132.8 174.15 119.58 174.17 117.5"/></svg>