<svg xmlns="http://www.w3.org/2000/svg" xmlns:xlink="http://www.w3.org/1999/xlink" viewBox="0 0 200 350"><defs><style>.cls-1{isolation:isolate;}.cls-2{mix-blend-mode:screen;}.cls-3{fill:url(#linear-gradient);}.cls-4{fill:url(#linear-gradient-2);}.cls-5{fill:url(#linear-gradient-3);}.cls-6{fill:url(#linear-gradient-4);}.cls-7{fill:url(#linear-gradient-5);}.cls-8{fill:url(#linear-gradient-6);}.cls-9{fill:url(#linear-gradient-7);}.cls-10{fill:url(#linear-gradient-8);}.cls-11{fill:url(#linear-gradient-9);}.cls-12{fill:url(#linear-gradient-10);}.cls-13{fill:url(#linear-gradient-11);}.cls-14{fill:url(#linear-gradient-12);}.cls-15{fill:url(#linear-gradient-13);}.cls-16{fill:url(#linear-gradient-14);}.cls-17{fill:url(#linear-gradient-15);}.cls-18{fill:url(#linear-gradient-16);}.cls-19{fill:url(#linear-gradient-17);}.cls-20{fill:url(#linear-gradient-18);}.cls-21{fill:url(#linear-gradient-19);}.cls-22{fill:url(#linear-gradient-20);}.cls-23{fill:url(#linear-gradient-21);}.cls-24{fill:url(#linear-gradient-22);}.cls-25{fill:url(#linear-gradient-23);}.cls-26{fill:url(#linear-gradient-24);}.cls-27{fill:url(#linear-gradient-25);}.cls-28{fill:url(#linear-gradient-26);}.cls-29{fill:url(#linear-gradient-27);}.cls-30{fill:url(#linear-gradient-28);}.cls-31{fill:url(#linear-gradient-29);}.cls-32{fill:url(#linear-gradient-30);}.cls-33{fill:url(#linear-gradient-31);}.cls-34{fill:url(#linear-gradient-32);}.cls-35{fill:url(#linear-gradient-33);}.cls-36{fill:url(#linear-gradient-34);}.cls-37{fill:url(#linear-gradient-35);}.cls-38{fill:url(#linear-gradient-36);}.cls-39{fill:url(#linear-gradient-37);}.cls-40{fill:url(#linear-gradient-38);}.cls-41{fill:url(#linear-gradient-39);}.cls-42{fill:url(#linear-gradient-40);}.cls-43{fill:url(#linear-gradient-41);}.cls-44{fill:url(#linear-gradient-42);}.cls-45{fill:url(#linear-gradient-43);}.cls-46{fill:url(#linear-gradient-44);}.cls-47{fill:url(#linear-gradient-45);}.cls-48{fill:url(#linear-gradient-46);}.cls-49{fill:url(#linear-gradient-47);}.cls-50{fill:url(#linear-gradient-48);}.cls-51{fill:url(#linear-gradient-49);}.cls-52{fill:url(#linear-gradient-50);}.cls-53{fill:url(#linear-gradient-51);}.cls-54{fill:url(#linear-gradient-52);}.cls-55{fill:url(#linear-gradient-53);}.cls-56{fill:url(#linear-gradient-54);}.cls-57{fill:url(#linear-gradient-55);}.cls-58{fill:url(#linear-gradient-56);}.cls-59{fill:url(#linear-gradient-57);}.cls-60{fill:url(#linear-gradient-58);}.cls-61{fill:url(#linear-gradient-59);}.cls-62{fill:url(#linear-gradient-60);}.cls-63{fill:url(#linear-gradient-61);}.cls-64{fill:url(#linear-gradient-62);}.cls-65{fill:url(#linear-gradient-63);}.cls-66{fill:url(#linear-gradient-64);}.cls-67{fill:url(#linear-gradient-65);}.cls-68{fill:url(#linear-gradient-66);}.cls-69{fill:url(#linear-gradient-67);}.cls-70{fill:url(#linear-gradient-68);}.cls-71{fill:url(#linear-gradient-69);}.cls-72{fill:url(#linear-gradient-70);}.cls-73{fill:url(#linear-gradient-71);}.cls-74{fill:url(#linear-gradient-72);}.cls-75{fill:url(#linear-gradient-73);}.cls-76{fill:url(#linear-gradient-74);}.cls-77{fill:url(#linear-gradient-75);}</style><linearGradient id="linear-gradient" x1="-3568.36" y1="5.61" x2="-3810.51" y2="5.61" gradientTransform="matrix(-1, 0, 0, 1, -3523.71, 0)" gradientUnits="userSpaceOnUse"><stop offset="0.22" stop-color="#ffd66a"/><stop offset="0.3" stop-color="#facc5a"/><stop offset="0.46" stop-color="#f2bd41"/><stop offset="0.62" stop-color="#ecb230"/><stop offset="0.79" stop-color="#e9ab25"/><stop offset="1" stop-color="#e8a922"/></linearGradient><linearGradient id="linear-gradient-2" x1="-3568.35" y1="27.72" x2="-3810.51" y2="27.72" xlink:href="#linear-gradient"/><linearGradient id="linear-gradient-3" x1="-3568.35" y1="75.31" x2="-3810.51" y2="75.31" xlink:href="#linear-gradient"/><linearGradient id="linear-gradient-4" x1="-3568.35" y1="140.14" x2="-3810.52" y2="140.14" xlink:href="#linear-gradient"/><linearGradient id="linear-gradient-5" x1="-3568.35" y1="210.99" x2="-3810.51" y2="210.99" xlink:href="#linear-gradient"/><linearGradient id="linear-gradient-6" x1="-3568.35" y1="275.64" x2="-3810.52" y2="275.64" xlink:href="#linear-gradient"/><linearGradient id="linear-gradient-7" x1="-3568.35" y1="322.9" x2="-3810.51" y2="322.9" xlink:href="#linear-gradient"/><linearGradient id="linear-gradient-8" x1="-3568.36" y1="344.6" x2="-3810.51" y2="344.6" xlink:href="#linear-gradient"/><linearGradient id="linear-gradient-9" x1="-3568.35" y1="211.05" x2="-3810.51" y2="211.05" xlink:href="#linear-gradient"/><linearGradient id="linear-gradient-10" x1="-3568.35" y1="322.85" x2="-3810.51" y2="322.85" xlink:href="#linear-gradient"/><linearGradient id="linear-gradient-11" x1="-3568.35" y1="275.65" x2="-3810.51" y2="275.65" xlink:href="#linear-gradient"/><linearGradient id="linear-gradient-12" x1="-3568.36" y1="5.56" x2="-3810.51" y2="5.56" xlink:href="#linear-gradient"/><linearGradient id="linear-gradient-13" x1="-3568.35" y1="344.64" x2="-3810.51" y2="344.64" xlink:href="#linear-gradient"/><linearGradient id="linear-gradient-14" x1="-3568.35" y1="27.77" x2="-3810.51" y2="27.77" xlink:href="#linear-gradient"/><linearGradient id="linear-gradient-15" x1="-3568.35" y1="140.09" x2="-3810.51" y2="140.09" xlink:href="#linear-gradient"/><linearGradient id="linear-gradient-16" x1="-3568.35" y1="75.31" x2="-3810.51" y2="75.31" xlink:href="#linear-gradient"/><linearGradient id="linear-gradient-17" x1="-3568.35" y1="22.05" x2="-3810.51" y2="22.05" xlink:href="#linear-gradient"/><linearGradient id="linear-gradient-18" x1="-3568.36" y1="328.42" x2="-3810.51" y2="328.42" xlink:href="#linear-gradient"/><linearGradient id="linear-gradient-19" x1="-3568.36" y1="309.35" x2="-3810.5" y2="309.35" xlink:href="#linear-gradient"/><linearGradient id="linear-gradient-20" x1="-3568.35" y1="267.06" x2="-3810.5" y2="267.06" xlink:href="#linear-gradient"/><linearGradient id="linear-gradient-21" x1="-3568.35" y1="208.86" x2="-3810.52" y2="208.86" xlink:href="#linear-gradient"/><linearGradient id="linear-gradient-22" x1="-3568.35" y1="144.81" x2="-3810.51" y2="144.81" xlink:href="#linear-gradient"/><linearGradient id="linear-gradient-23" x1="-3568.35" y1="85.99" x2="-3810.51" y2="85.99" xlink:href="#linear-gradient"/><linearGradient id="linear-gradient-24" x1="-3568.35" y1="42.57" x2="-3810.52" y2="42.57" xlink:href="#linear-gradient"/><linearGradient id="linear-gradient-25" x1="-3568.35" y1="41.21" x2="-3810.51" y2="41.21" xlink:href="#linear-gradient"/><linearGradient id="linear-gradient-26" x1="-3568.35" y1="21.76" x2="-3810.51" y2="21.76" xlink:href="#linear-gradient"/><linearGradient id="linear-gradient-27" x1="-3568.35" y1="328.15" x2="-3810.51" y2="328.15" xlink:href="#linear-gradient"/><linearGradient id="linear-gradient-28" x1="-3568.35" y1="308.01" x2="-3810.52" y2="308.01" xlink:href="#linear-gradient"/><linearGradient id="linear-gradient-29" x1="-3568.36" y1="264.88" x2="-3810.49" y2="264.88" xlink:href="#linear-gradient"/><linearGradient id="linear-gradient-30" x1="-3568.35" y1="206.22" x2="-3810.5" y2="206.22" xlink:href="#linear-gradient"/><linearGradient id="linear-gradient-31" x1="-3568.35" y1="142.17" x2="-3810.5" y2="142.17" xlink:href="#linear-gradient"/><linearGradient id="linear-gradient-32" x1="-3568.35" y1="83.8" x2="-3810.51" y2="83.8" xlink:href="#linear-gradient"/><linearGradient id="linear-gradient-33" x1="-3568.35" y1="21.85" x2="-3810.51" y2="21.85" xlink:href="#linear-gradient"/><linearGradient id="linear-gradient-34" x1="-3568.35" y1="41.97" x2="-3810.51" y2="41.97" xlink:href="#linear-gradient"/><linearGradient id="linear-gradient-35" x1="-3568.35" y1="207.61" x2="-3810.51" y2="207.61" xlink:href="#linear-gradient"/><linearGradient id="linear-gradient-36" x1="-3568.35" y1="84.9" x2="-3810.51" y2="84.9" xlink:href="#linear-gradient"/><linearGradient id="linear-gradient-37" x1="-3568.35" y1="328.34" x2="-3810.51" y2="328.34" xlink:href="#linear-gradient"/><linearGradient id="linear-gradient-38" x1="-3568.35" y1="143.45" x2="-3810.5" y2="143.45" xlink:href="#linear-gradient"/><linearGradient id="linear-gradient-39" x1="-3568.35" y1="308.64" x2="-3810.51" y2="308.64" xlink:href="#linear-gradient"/><linearGradient id="linear-gradient-40" x1="-3568.35" y1="265.98" x2="-3810.51" y2="265.98" xlink:href="#linear-gradient"/><linearGradient id="linear-gradient-41" x1="-3568.35" y1="175.03" x2="-3810.51" y2="175.03" xlink:href="#linear-gradient"/><linearGradient id="linear-gradient-42" x1="-3568.35" y1="175.03" x2="-3810.51" y2="175.03" xlink:href="#linear-gradient"/><linearGradient id="linear-gradient-43" x1="-3568.35" y1="175.03" x2="-3810.51" y2="175.03" xlink:href="#linear-gradient"/><linearGradient id="linear-gradient-44" x1="-3568.35" y1="52.53" x2="-3810.51" y2="52.53" xlink:href="#linear-gradient"/><linearGradient id="linear-gradient-45" x1="-3568.35" y1="80.13" x2="-3810.51" y2="80.13" xlink:href="#linear-gradient"/><linearGradient id="linear-gradient-46" x1="-3568.35" y1="123.46" x2="-3810.51" y2="123.46" xlink:href="#linear-gradient"/><linearGradient id="linear-gradient-47" x1="-3568.35" y1="175.41" x2="-3810.51" y2="175.41" xlink:href="#linear-gradient"/><linearGradient id="linear-gradient-48" x1="-3568.35" y1="227.17" x2="-3810.51" y2="227.17" xlink:href="#linear-gradient"/><linearGradient id="linear-gradient-49" x1="-3568.35" y1="297.81" x2="-3810.51" y2="297.81" xlink:href="#linear-gradient"/><linearGradient id="linear-gradient-50" x1="-3568.35" y1="321.08" x2="-3810.51" y2="321.08" xlink:href="#linear-gradient"/><linearGradient id="linear-gradient-51" x1="-3568.35" y1="46.12" x2="-3810.51" y2="46.12" xlink:href="#linear-gradient"/><linearGradient id="linear-gradient-52" x1="-3568.35" y1="59.4" x2="-3810.52" y2="59.4" xlink:href="#linear-gradient"/><linearGradient id="linear-gradient-53" x1="-3568.35" y1="112.03" x2="-3810.49" y2="112.03" xlink:href="#linear-gradient"/><linearGradient id="linear-gradient-54" x1="-3568.35" y1="175.53" x2="-3810.52" y2="175.53" xlink:href="#linear-gradient"/><linearGradient id="linear-gradient-55" x1="-3568.35" y1="238.94" x2="-3810.51" y2="238.94" xlink:href="#linear-gradient"/><linearGradient id="linear-gradient-56" x1="-3568.36" y1="291.35" x2="-3810.5" y2="291.35" xlink:href="#linear-gradient"/><linearGradient id="linear-gradient-57" x1="-3568.36" y1="323.78" x2="-3810.5" y2="323.78" xlink:href="#linear-gradient"/><linearGradient id="linear-gradient-58" x1="-3568.36" y1="26.6" x2="-3810.51" y2="26.6" xlink:href="#linear-gradient"/><linearGradient id="linear-gradient-59" x1="-3568.35" y1="27.77" x2="-3810.51" y2="27.77" xlink:href="#linear-gradient"/><linearGradient id="linear-gradient-60" x1="-3568.35" y1="113.24" x2="-3810.51" y2="113.24" xlink:href="#linear-gradient"/><linearGradient id="linear-gradient-61" x1="-3568.35" y1="61.01" x2="-3810.51" y2="61.01" xlink:href="#linear-gradient"/><linearGradient id="linear-gradient-62" x1="-3568.35" y1="322.72" x2="-3810.51" y2="322.72" xlink:href="#linear-gradient"/><linearGradient id="linear-gradient-63" x1="-3568.35" y1="278.95" x2="-3810.51" y2="278.95" xlink:href="#linear-gradient"/><linearGradient id="linear-gradient-64" x1="-3568.35" y1="175.55" x2="-3810.51" y2="175.55" xlink:href="#linear-gradient"/><linearGradient id="linear-gradient-65" x1="-3568.35" y1="237.69" x2="-3810.51" y2="237.69" xlink:href="#linear-gradient"/><linearGradient id="linear-gradient-66" x1="-3568.35" y1="94.84" x2="-3810.51" y2="94.84" xlink:href="#linear-gradient"/><linearGradient id="linear-gradient-67" x1="-3568.35" y1="131.4" x2="-3810.51" y2="131.4" xlink:href="#linear-gradient"/><linearGradient id="linear-gradient-68" x1="-3568.35" y1="175.32" x2="-3810.51" y2="175.32" xlink:href="#linear-gradient"/><linearGradient id="linear-gradient-69" x1="-3568.35" y1="219.37" x2="-3810.51" y2="219.37" xlink:href="#linear-gradient"/><linearGradient id="linear-gradient-70" x1="-3568.35" y1="255.66" x2="-3810.51" y2="255.66" xlink:href="#linear-gradient"/><linearGradient id="linear-gradient-71" x1="-3568.35" y1="278.3" x2="-3810.51" y2="278.3" xlink:href="#linear-gradient"/><linearGradient id="linear-gradient-72" x1="-3568.35" y1="283.1" x2="-3810.51" y2="283.1" xlink:href="#linear-gradient"/><linearGradient id="linear-gradient-73" x1="-3568.35" y1="66.9" x2="-3810.51" y2="66.9" xlink:href="#linear-gradient"/><linearGradient id="linear-gradient-74" x1="-3568.35" y1="72" x2="-3810.51" y2="72" xlink:href="#linear-gradient"/><linearGradient id="linear-gradient-75" x1="-3568.35" y1="175.01" x2="-3810.51" y2="175.01" xlink:href="#linear-gradient"/></defs><title>side</title><g class="cls-1"><g id="Layer_1" data-name="Layer 1"><g class="cls-2"><path class="cls-3" d="M186.6,6.45a1,1,0,1,1-.18-1.67,1,1,0,1,1,.18,1.67Z"/><path class="cls-4" d="M120.67,27.82a1,1,0,0,1-1.07.63,1,1,0,1,1-.85-1.45A1,1,0,0,1,120.67,27.82Z"/><path class="cls-5" d="M67.34,75.8a1,1,0,1,1-1.36-1,1,1,0,1,1,1.36,1Z"/><path class="cls-6" d="M38.6,141.52a179.07,179.07,0,1,1,.26-1.21A1,1,0,0,1,38.6,141.52Z"/><path class="cls-7" d="M38.82,209.61a1.3,1.3,0,1,1-1.38,1.56A1,1,0,0,1,38.82,209.61Z"/><path class="cls-8" d="M67.23,274.15a1,1,0,0,1,.73,1,1,1,0,1,1-1.35,1A1,1,0,0,1,67.23,274.15Z"/><path class="cls-9" d="M119.44,321.56a1.3,1.3,0,1,1,.24,2.07A1,1,0,0,1,119.44,321.56Z"/><path class="cls-10" d="M186.41,343.63a1.29,1.29,0,1,1,1.06,1.79A1,1,0,0,1,186.41,343.63Z"/><path class="cls-11" d="M35.19,211.38a1.68,1.68,0,0,0-.27.33,2,2,0,0,0,.39.23,1,1,0,0,0,.8,1.74,1,1,0,0,0,1.69.89.91.91,0,0,0,1.81-.21A1,1,0,0,0,41,213.11a1,1,0,0,0,.85-1.56,1.06,1.06,0,0,0-.5-.29.94.94,0,0,0-.35-1.79.87.87,0,0,0,.1-1.37.93.93,0,0,0-1.23-.15,1,1,0,0,0-1.82-.52.9.9,0,1,0-1.71.57.93.93,0,0,0-1.23,1.4A1,1,0,0,0,35.19,211.38Zm1.82-.12c-1.61-2.21,3-3.47,2.51-.54C41.14,213.16,36.48,214,37,211.27Zm-.35.34a3.62,3.62,0,0,1-.78.08c-.56,0-.55-.13-.07-.33a3.59,3.59,0,0,1,.72-.25,1.73,1.73,0,0,0,.1.24A1.61,1.61,0,0,0,36.66,211.61Zm-.16-3.12a3.07,3.07,0,0,1,.46.62,1.86,1.86,0,0,0-.39.47,2.75,2.75,0,0,1-.4-.07,2.29,2.29,0,0,0-.39-.11C34.58,208.86,35.61,207.48,36.5,208.48Zm1.43.17a1.81,1.81,0,0,0-.57.18C35.47,207.22,38.07,206,37.93,208.66Zm1.57-.4s0,.09-.07.13a2.49,2.49,0,0,1-.42.48,1.59,1.59,0,0,0-.59-.21C37.89,206.37,40.17,206.92,39.51,208.26Zm.94,1.18a4.92,4.92,0,0,0-.68.35,2.45,2.45,0,0,0-.29-.54s-.06,0-.09-.08C40.3,207,41.89,208.81,40.45,209.44Zm-.34,1.68a4.72,4.72,0,0,0-.21-1C41.82,209,42.42,211.37,40.11,211.12ZM40,212.18a2.48,2.48,0,0,0,.1-.72,3.65,3.65,0,0,0,.78.05C42.48,211.5,41.77,213.84,40,212.18Zm-.64.88a1.48,1.48,0,0,0,.44-.43,3.32,3.32,0,0,1,.66.38C41.75,213.92,39.82,215.37,39.38,213.06Zm-1,.26a1.64,1.64,0,0,0,.52,0l.08,0a3.4,3.4,0,0,1,.3.69C39.76,215.45,37.29,215.51,38.34,213.32Zm-1-.34a1.76,1.76,0,0,0,.54.29,3.47,3.47,0,0,1-.16.74C37.24,215.51,35.22,214.13,37.32,213Zm-.6-.9a1.71,1.71,0,0,0,.29.53,4,4,0,0,1-.59.53C35.16,214.08,34.35,211.79,36.71,212.09Zm-1-2.28a3.28,3.28,0,0,1,.69.21,1.6,1.6,0,0,0,0,.65C34.38,211.84,34.17,209.47,35.69,209.8Z"/><path class="cls-12" d="M116.86,324.15a1,1,0,0,0,1.46,1.27,1.57,1.57,0,0,0,.07.44,1.52,1.52,0,0,0,.43-.24,1,1,0,0,0,1.84.68.92.92,0,0,0,1.73-.64,1,1,0,0,0,1.26-1.45s-.09,0-.13-.08a1,1,0,0,0,.67-1.58,1,1,0,0,0-.66-.3,1,1,0,0,0-1.16-1.5.94.94,0,0,0-1.58-.93,1,1,0,0,0-1.88-.23,1,1,0,0,0-1.65.93,1,1,0,0,0-.8,1.74A1,1,0,0,0,116.86,324.15Zm3.87-2.36c2.83.23.53,4.47-1.28,2.22C116.71,323.67,118.92,319.49,120.73,321.79Zm-3.16-.72a3.63,3.63,0,0,1,.56.49,1.63,1.63,0,0,0-.28.56C115.53,322.42,116.3,320.12,117.57,321.06Zm1.44-.13a1.89,1.89,0,0,0-.54.29c-1.39-.75-1-1.66-.35-1.68S118.91,320.47,119,320.93Zm1.39-.7a4,4,0,0,1-.29.68,1.7,1.7,0,0,0-.63-.08C118.49,318.71,120.9,318.73,120.4,320.23Zm1,1.39a1.73,1.73,0,0,0-.48-.17,1.65,1.65,0,0,0-.38-.34C121,318.87,123.16,320.08,121.4,321.62Zm.76.76a1.77,1.77,0,0,0-.18-.33,1.73,1.73,0,0,0-.19-.15,3.76,3.76,0,0,1,.45-.61C123.29,320.1,124.54,322.19,122.17,322.38Zm.24,1.08a1.56,1.56,0,0,0,0-.74,5.2,5.2,0,0,0,.71-.12C124.6,322.26,124.39,324.63,122.4,323.47Zm-.52.94a1.89,1.89,0,0,0,.36-.5,3.59,3.59,0,0,1,.71.24C124.4,324.76,122.81,326.62,121.89,324.41Zm-.95.52a1.83,1.83,0,0,0,.55-.22C123.2,326.83,120.39,327.33,120.94,324.93Zm-1.1-.13a1.57,1.57,0,0,0,.62.17,3.33,3.33,0,0,1,0,.73C120.31,327.26,118.1,326.34,119.84,324.81Zm-1.12.15c0-.13.05-.2.08-.3s0-.15.06-.23,0-.09,0-.13v0c.28.16.48.2.38.08a1.76,1.76,0,0,0,.19.15,3.6,3.6,0,0,1-.45.62C118.64,325.55,118.55,325.46,118.72,325Zm-1.23-.95a3.56,3.56,0,0,1,.65-.39,2.45,2.45,0,0,0,.44.44C118.14,326.37,116.22,324.92,117.49,324Zm-.44-1.49a3.85,3.85,0,0,1,.76.07,1.77,1.77,0,0,0,0,.36,1.48,1.48,0,0,0,.09.25C116.19,324.82,115.49,322.52,117,322.52Z"/><path class="cls-13" d="M63.79,275.47a1,1,0,0,0,.83,1.77c-.14.34,0,.48.37.47a.94.94,0,0,0,1.46,1.19.91.91,0,0,0,1.8.21,1,1,0,0,0,1.65-1c1.15.37,1.94-1.06.61-1.7.71-.18,1.33-.7.63-1.52a1,1,0,0,0-.88-.31.94.94,0,0,0-1.07-1.47,1,1,0,0,0-.12-1,.92.92,0,0,0-1.51.15,1,1,0,0,0-1.89.12,1,1,0,0,0-1.45,1.22A1,1,0,0,0,63.79,275.47Zm4.53-.58c2.54,1.53-1.4,4.21-2.07,1.51C63.71,274.86,67.7,272.14,68.32,274.89Zm-2.58-2s.06.1.08.14a2.49,2.49,0,0,1,.23.63,2.39,2.39,0,0,0-.46.38,2.72,2.72,0,0,1-.71-.3l0,0C63.72,273,65,271.82,65.74,272.88Zm1.37.42a1.81,1.81,0,0,0-.63.13C65,271.46,67.79,270.92,67.12,273.31Zm1.54,0a4.55,4.55,0,0,0-.43.53,1.4,1.4,0,0,0-.65-.47C67.61,271.21,69.69,272.19,68.65,273.33ZM69,275a1.69,1.69,0,0,0-.34-.36,2.65,2.65,0,0,0-.19-.49C69.76,272.35,71.26,274.35,69,275Zm.45,1a1.8,1.8,0,0,0-.21-.71,4.15,4.15,0,0,0,.7-.27C71.32,274.39,71.64,276.78,69.42,276Zm-.29,1a1.67,1.67,0,0,0,.22-.56,3.72,3.72,0,0,1,.77.09C71.67,276.89,70.48,279,69.12,277.05Zm-.82.68a1.64,1.64,0,0,0,.48-.22s0,0,.05-.07a3.63,3.63,0,0,1,.56.51C70.45,279.12,68.23,280.15,68.3,277.74Zm-1.08.11a1.77,1.77,0,0,0,.61,0,3.51,3.51,0,0,1,.15.74C68.18,280.19,65.79,279.73,67.23,277.84Zm-.91-.57a1.72,1.72,0,0,0,.48.37,3.75,3.75,0,0,1-.32.72C65.7,279.73,64,278,66.32,277.27Zm-1.13-.3a3.53,3.53,0,0,1,.55-.5,2.39,2.39,0,0,0,.2.17c0,.09.09.14.13.22a3.74,3.74,0,0,1-.68.39C65,277.45,64.79,277.41,65.19,277Zm-.74-1.36a3.49,3.49,0,0,1,.65-.08,1.52,1.52,0,0,0,.3.61C64.08,278,62.93,275.92,64.45,275.6Zm.2-1.54a3.44,3.44,0,0,1,.65.37,1.72,1.72,0,0,0-.22.63,2.87,2.87,0,0,1-.46.12l-.16,0C63,275.3,63.4,273.49,64.66,274.06Z"/><path class="cls-14" d="M190.82,5.22a.94.94,0,0,0-1-1.21.9.9,0,0,0,0-1.19.93.93,0,0,0-1.39,0,1,1,0,0,0-1.87-.28,1.07,1.07,0,0,0-.21-.21l-.13-.1a2.13,2.13,0,0,0-.28.36.93.93,0,1,0-1.71.72.91.91,0,1,0-1,1.49c-1.24.06-1.48,1.61,0,1.73a1,1,0,1,0,1,1.66c-.19,1.13,1.24,1.69,1.75.4a.94.94,0,0,0,1.86-.08,1,1,0,0,0,1.66-.91,1,1,0,0,0,.76-1.73A1,1,0,0,0,190.82,5.22ZM188.17,6.5a1.43,1.43,0,0,1-1.53.39c-2.47,1.37-3.06-3.34-.28-2.55A1.42,1.42,0,0,1,188.17,6.5Zm.38.07a1.84,1.84,0,0,0,.28-.55C191.32,5.72,190.32,8.51,188.55,6.57ZM187.83,8a4.11,4.11,0,0,1-.17-.73,1.72,1.72,0,0,0,.55-.29C190.28,8.06,188.3,9.46,187.83,8Zm-1.63-.54a1.76,1.76,0,0,0,.49-.15,1.78,1.78,0,0,0,.51,0C188.19,9.45,185.71,9.63,186.2,7.42Zm-1.08-.15a1.77,1.77,0,0,0,.6.17,3.76,3.76,0,0,1,0,.76C185.58,9.75,183.33,8.81,185.12,7.26Zm-.78-.76a1.75,1.75,0,0,0,.2.33,1.75,1.75,0,0,0,.19.16,3.68,3.68,0,0,1-.45.61C183.24,8.78,182,6.71,184.34,6.51Zm-.19-1.07a1.7,1.7,0,0,0,0,.62,3.53,3.53,0,0,1-.72.23C181.92,6.63,182.13,4.22,184.15,5.43Zm.48-1a1.83,1.83,0,0,0-.34.52,3.36,3.36,0,0,1-.72-.24C182.12,4.12,183.71,2.28,184.63,4.46Zm1-.52a1.68,1.68,0,0,0-.59.22,3.52,3.52,0,0,1-.44-.61C183.77,2.2,186.12,1.66,185.59,3.94Zm.82-.8a3.92,3.92,0,0,1,.17.74,1.73,1.73,0,0,0-.25.08,1.73,1.73,0,0,0-.26,0,3.76,3.76,0,0,1,0-.76C186.12,2.67,186.23,2.58,186.41,3.14Zm1.55,0a3.93,3.93,0,0,1-.3.69,1.75,1.75,0,0,0-.61-.09C186,1.67,188.46,1.68,188,3.19Zm1,1.11a3.49,3.49,0,0,0-.39.32,1.74,1.74,0,0,0-.13-.21,1.76,1.76,0,0,0-.38-.32c.44-2.32,2.37-.87,1.1,0C189.09,4.2,189.07,4.24,189,4.3Zm.64,1.32a4,4,0,0,0-.75.05,1.66,1.66,0,0,0-.09-.74C190.49,3.33,191.19,5.63,189.63,5.62Z"/><path class="cls-15" d="M184,345.51a1,1,0,0,0,1.08,1.56,1,1,0,0,0,1.93.55,1.58,1.58,0,0,0,.23.36,1.55,1.55,0,0,0,.32-.42,1,1,0,0,0,1.49.7,1,1,0,0,0,.41-.79,1,1,0,0,0,1.46-1.32.94.94,0,0,0,.79-1.56,1,1,0,0,0-.43-.29,3,3,0,0,0-2.48-2.64.94.94,0,0,0-1.8-.25,1,1,0,0,0-1.87.6,1,1,0,0,0-1.17,1.5A1,1,0,0,0,184,345.51Zm1.35-2.9a3.57,3.57,0,0,1,.46.63,1.68,1.68,0,0,0-.37.47,2.74,2.74,0,0,1-.39-.07,2.31,2.31,0,0,0-.47-.14C183.44,342.95,184.45,341.62,185.32,342.62Zm2.37.7c2.68-.86,2.22,4-.26,2.55C184.72,346.73,185.27,341.85,187.69,343.32Zm-.94-.53a1.79,1.79,0,0,0-.59.15C184.32,341.33,186.88,340.12,186.75,342.79Zm1.49.1a1.78,1.78,0,0,0-.51,0,1.67,1.67,0,0,0-.48-.11C186.69,340.54,189.22,340.76,188.24,342.88Zm1,.39a1.85,1.85,0,0,0-.53-.3c.13-.46.1-1.43.87-1.39S190.65,342.5,189.25,343.27Zm.63.89a1.78,1.78,0,0,0-.28-.54c.83-.71,1.09-1,1.53-.62S191.42,344.34,189.88,344.16Zm.53,1.53-.19-.13a2.8,2.8,0,0,1-.39-.3,1.74,1.74,0,0,0,.12-.63,3.61,3.61,0,0,1,.72-.07C192.06,344.55,191.69,346.34,190.41,345.69Zm-1.05,1.1,0-.05a2.86,2.86,0,0,1-.18-.61,1.88,1.88,0,0,0,.44-.45,3.6,3.6,0,0,1,.65.38C191.38,346.85,190,348.11,189.36,346.78Zm-1.25-.36a1.64,1.64,0,0,0,.72-.14,3.46,3.46,0,0,0,.13.46c0,.1,0,.15.07.27C189.54,348.49,187.12,348.55,188.11,346.43Zm-1,.6c0-.12,0-.17,0-.26a3.67,3.67,0,0,0-.08-.52,1.65,1.65,0,0,0,.38,0,1.73,1.73,0,0,0,.25.07,3.54,3.54,0,0,1-.16.74C187.33,347.56,187.2,347.59,187.14,347Zm-1.51-.36a3.46,3.46,0,0,1,.46-.64,1.68,1.68,0,0,0,.56.22C187.22,348.56,184.83,348,185.63,346.66Zm-1-1.18a3.5,3.5,0,0,1,.72-.24,1.77,1.77,0,0,0,.34.51,2.69,2.69,0,0,1-.18.33,2.32,2.32,0,0,0-.29.41C184.36,347.37,183.42,346,184.63,345.49Zm-.12-1.55a3.45,3.45,0,0,1,.72.22s0,.05,0,.08a1.65,1.65,0,0,0,0,.52C183.19,346,183,343.6,184.5,343.94Z"/><path class="cls-16" d="M123.4,27.86a1,1,0,0,0-.73-1.4.87.87,0,0,0,.06-1.35A.93.93,0,0,0,121.5,25a1,1,0,0,0-1.79-.63,1.15,1.15,0,0,0-.13-.25,1,1,0,0,0-1.68.81c-.32-.16-.54,0-.54.34-.87-.71-2.08.15-1.28,1.24a1,1,0,0,0-.57,1.93,1,1,0,0,0,.85,1.7A1,1,0,0,0,118,31a.92.92,0,0,0,1.81-.25,1,1,0,0,0,1.65-.88,1,1,0,0,0,1.12-1.53A.89.89,0,0,0,123.4,27.86Zm-2.5.86a1.76,1.76,0,0,0,.34-.5c1.6.12,1.61,1.11,1,1.4S121.16,29.1,120.9,28.72Zm-1.07.11c-1.82,2.34-4-2-1.29-2.22C120.29,24.39,122.61,28.35,119.82,28.83Zm-.2.64a1.68,1.68,0,0,0,.39-.3,1.63,1.63,0,0,0,.44-.21C122.29,30.49,120.06,31.82,119.62,29.47Zm-1,.32a1.77,1.77,0,0,0,.61-.1,3.86,3.86,0,0,1,.31.7C120,31.88,117.58,31.93,118.58,29.79Zm-1-.39a1.71,1.71,0,0,0,.53.29,3.39,3.39,0,0,1-.16.75C117.49,31.94,115.47,30.56,117.58,29.4Zm-1.46-.86a2.3,2.3,0,0,0,.44,0,2.77,2.77,0,0,1,.39,0,1.74,1.74,0,0,0,.28.55,3.84,3.84,0,0,1-.57.51C115.6,30.37,114.87,28.84,116.12,28.54Zm.9-1.09a1.68,1.68,0,0,0-.11.58,3.51,3.51,0,0,1-.78.08C114.56,28.14,115.26,25.78,117,27.46Zm.64-.88a2.8,2.8,0,0,0-.41.45,4,4,0,0,1-.69-.4C115.29,25.73,117.21,24.25,117.66,26.58Zm.42-1.08a3.59,3.59,0,0,1,.39.52,3.53,3.53,0,0,0-.44.24,3.43,3.43,0,0,1-.24-.58C117.62,25.15,117.73,25.1,118.08,25.5Zm1.43.2a2.84,2.84,0,0,0-.59.13C117.07,24.21,119.67,23,119.52,25.7Zm1.57-.43s-.05.1-.08.14a2.46,2.46,0,0,1-.44.51,1.7,1.7,0,0,0-.56-.17C119.4,23.37,121.75,23.92,121.09,25.27Zm.94,1.19a4.83,4.83,0,0,0-.71.36,1.67,1.67,0,0,0-.26-.56s-.07,0-.1-.07C121.87,24,123.46,25.83,122,26.46Zm.12,1.55a3.6,3.6,0,0,1-.75-.23,1.74,1.74,0,0,0,.06-.62C123.47,25.94,123.68,28.34,122.15,28Z"/><path class="cls-17" d="M41.87,139.2a.94.94,0,0,0-1-1.21.9.9,0,0,0,0-1.19.93.93,0,0,0-1.39,0,1,1,0,0,0-1.88-.25,1,1,0,0,0-1.65.93,1,1,0,0,0-.74,1.78c-.44.1-.43.31-.19.54a1,1,0,0,0,0,2,.93.93,0,0,0,1.17,1.43,1,1,0,0,0,1.83.63.92.92,0,0,0,1.75-.59c1,.58,1.95-.77,1.21-1.6a.94.94,0,0,0,.27-1.79A.89.89,0,0,0,41.87,139.2Zm-2.47-.38a1.42,1.42,0,0,1-.1,1.57c.5,2.86-4.07,1.81-2.51-.53A1.42,1.42,0,0,1,39.4,138.82Zm-3.74.64a3.82,3.82,0,0,1,.76.07,1.71,1.71,0,0,0,0,.26,1.79,1.79,0,0,0-.1.24,3.76,3.76,0,0,1-.72-.24C35.12,139.59,35.08,139.46,35.66,139.46Zm4.74,1.83a2.17,2.17,0,0,0-.37-.13,2.57,2.57,0,0,1-.42-.2,1.7,1.7,0,0,0,.06-.48,1.77,1.77,0,0,0,.2-.47C41.82,139.77,41.75,141.56,40.4,141.29Zm-1.24.63a1.78,1.78,0,0,0,.37-.48,3.49,3.49,0,0,1,.71.24C41.7,142.3,40.07,144.17,39.16,141.92Zm-.94.55a1.74,1.74,0,0,0,.56-.22C40.47,144.35,37.68,144.85,38.22,142.47Zm-1.08-.15a1.75,1.75,0,0,0,.6.19,3.36,3.36,0,0,1,0,.73C37.59,144.8,35.36,143.87,37.14,142.32Zm-1.55-.58a2.25,2.25,0,0,0,.36-.1,2.75,2.75,0,0,1,.4-.07,1.87,1.87,0,0,0,.4.49,3.46,3.46,0,0,1-.45.6C35.41,143.67,34.36,142.28,35.59,141.74Zm.57-1.26a1.63,1.63,0,0,0,0,.63,3.35,3.35,0,0,1-.71.22C34,141.7,34.14,139.29,36.16,140.49Zm0-2.49a3.57,3.57,0,0,1,.56.49,1.66,1.66,0,0,0-.28.56C34.14,139.34,34.91,137.07,36.18,138Zm1.31-1a2.73,2.73,0,0,0,.1.39,2.23,2.23,0,0,1,0,.47,1.84,1.84,0,0,0-.56.29C35,137,36.92,135.78,37.49,137Zm1.52.17a4,4,0,0,1-.29.69,1.69,1.69,0,0,0-.62-.09C37.09,135.65,39.51,135.67,39,137.17Zm1.23.94a4.47,4.47,0,0,0-.59.48,1.74,1.74,0,0,0-.13-.22,1.78,1.78,0,0,0-.37-.31C39.58,135.74,41.51,137.21,40.24,138.11Zm.44,1.49a3.59,3.59,0,0,1-.75-.07,1.74,1.74,0,0,0-.1-.62C41.53,137.31,42.24,139.6,40.68,139.6Z"/><path class="cls-18" d="M70.07,74.48a1,1,0,0,0,.51-.77,1,1,0,0,0-1.25-1,1,1,0,0,0-.14-1,.92.92,0,0,0-1.51.15,1,1,0,0,0-1.88.15.94.94,0,0,0-1.41,1.24c-.33,0-.5.14-.4.44-1-.3-1.61,1.14-.84,1.82a1,1,0,0,0,.46,1.87,1,1,0,0,0,1.51,1.26.91.91,0,0,0,1.8.12,1,1,0,0,0,1.73-.94.94.94,0,0,0,1-1.51A1,1,0,0,0,70.07,74.48Zm-2-.6a1.43,1.43,0,0,1-.41,2.17c-.16.69-1.45,1.88-2.48.67a1.42,1.42,0,0,1,.4-2.17C65.78,73.84,67.07,72.67,68.11,73.88Zm-.35,2.81a1.62,1.62,0,0,0,.25-.42,1.71,1.71,0,0,0,.34-.36C70.62,76.59,69.11,78.7,67.76,76.7Zm-.8.7a1.77,1.77,0,0,0,.54-.28,3.52,3.52,0,0,1,.54.5C69.1,78.79,66.89,79.8,67,77.4Zm-1.45.74c0-.07.07-.12.11-.2a2.76,2.76,0,0,1,.27-.43,1.75,1.75,0,0,0,.61,0,4,4,0,0,1,.16.76C66.81,79.66,65,79.48,65.51,78.14Zm-1.2-.93.1,0a2.83,2.83,0,0,1,.54-.22v0a1.65,1.65,0,0,0,.5.33,4,4,0,0,1-.33.73C64.44,79.23,63.06,78,64.3,77.21Zm-.66-1.42a2.08,2.08,0,0,0,.59.06,2.74,2.74,0,0,1,.33.08,1.71,1.71,0,0,0,.15.59,3.47,3.47,0,0,1-.67.38C62.86,77.45,62.47,75.89,63.64,75.79Zm1.16-.93a1.76,1.76,0,0,0-.22.59,3.67,3.67,0,0,1-.75-.09C62.29,75.07,63.45,72.95,64.8,74.86Zm0-1.14a4.06,4.06,0,0,1,.69.39c0,.08-.11.13-.14.22a1.64,1.64,0,0,0-.18.19,3.8,3.8,0,0,1-.57-.52C64.2,73.6,64.25,73.5,64.76,73.72Zm1.39-.4a1.65,1.65,0,0,0-.46.37c-1.54-.44-1.34-1.42-.71-1.59C65.77,71.91,65.92,73,66.15,73.32Zm1-.23a1.77,1.77,0,0,0-.6,0C65,71.07,68,70.54,67.19,73.09Zm1.4.1a3.47,3.47,0,0,0-.32.4,1.75,1.75,0,0,0-.6-.4c-.06-2.39,2.14-1.35,1.08-.19C68.67,73.08,68.65,73.12,68.59,73.19Zm.9,1.16a3.65,3.65,0,0,0-.74.21h0a1.71,1.71,0,0,0-.26-.68C69.85,71.9,71,74,69.49,74.35Zm.77,1.43c-.37.46-1.31,0-1.65-.26a1.75,1.75,0,0,0,.16-.59C70.26,74.4,70.67,75.29,70.26,75.78Z"/><path class="cls-19" d="M186.25,21.26a1,1,0,0,1,1.35,1.58A1,1,0,0,1,186.25,21.26Z"/><path class="cls-20" d="M191.06,329.34a1,1,0,0,1-1-1.83A1,1,0,0,1,191.06,329.34Z"/><path class="cls-21" d="M129.34,308.32a1,1,0,0,1,.16,2.07A1,1,0,0,1,129.34,308.32Z"/><path class="cls-22" d="M81.66,266.08a1,1,0,0,1-.7,2A1,1,0,0,1,81.66,266.08Z"/><path class="cls-23" d="M55.28,208.11a1,1,0,0,1-1.44,1.51A1,1,0,0,1,55.28,208.11Z"/><path class="cls-24" d="M54.77,144.42a1,1,0,0,1-1.92.79A1,1,0,0,1,54.77,144.42Z"/><path class="cls-25" d="M80.2,86A1,1,0,0,1,78.12,86,1,1,0,0,1,80.2,86Z"/><path class="cls-26" d="M125.31,42.12a1,1,0,0,1,1.88.9A1,1,0,0,1,125.31,42.12Z"/><path class="cls-27" d="M128.51,42.25a1,1,0,0,1,.15-2.08A1,1,0,0,1,128.51,42.25Z"/><path class="cls-28" d="M189.12,22.68a1,1,0,0,1,1-1.84A1,1,0,0,1,189.12,22.68Z"/><path class="cls-29" d="M187.21,328.95a1,1,0,0,1,1.34-1.6A1,1,0,0,1,187.21,328.95Z"/><path class="cls-30" d="M128,307.56a1,1,0,0,1-1.87.91A1,1,0,0,1,128,307.56Z"/><path class="cls-31" d="M80.76,264.85a1,1,0,0,1-2.08.07A1,1,0,0,1,80.76,264.85Z"/><path class="cls-32" d="M53,205.83a1,1,0,0,1,1.93.78A1,1,0,0,1,53,205.83Z"/><path class="cls-33" d="M53.63,141.42a1,1,0,0,1,1.44,1.5A1,1,0,0,1,53.63,141.42Z"/><path class="cls-34" d="M80.39,82.82a1,1,0,0,1,.71,2A1,1,0,0,1,80.39,82.82Z"/><path class="cls-35" d="M193.3,21.36a1,1,0,0,0-1.05-1.19A.91.91,0,0,0,192.2,19a.93.93,0,0,0-1.4,0,1,1,0,0,0-1.88-.21,1.21,1.21,0,0,0-1.93.13c-.46-.92-1.9-.45-1.91.55A1,1,0,0,0,184,21a1,1,0,0,0,0,2,.94.94,0,0,0,1.22,1.42c-.3,1.18,1.14,1.85,1.7.5a5.12,5.12,0,0,0,3.44-.23,1,1,0,0,0,1.64-.94,1,1,0,0,0,.73-1.75A1,1,0,0,0,193.3,21.36Zm-2.39,1a1.43,1.43,0,0,1-2.59.11c-.95,1.93-3.05.86-2.8-.61.18-1.07,1.58-1.8,2.69-.43C189.25,19.31,191.61,20.73,190.91,22.32Zm-2.75-1.58,0,0h0l0,0Zm.33,3.17a1.65,1.65,0,0,1-.32-.62,1.72,1.72,0,0,0,.23-.23,1.71,1.71,0,0,0,.28.18A1.88,1.88,0,0,1,188.49,23.91ZM191,22.75a1.8,1.8,0,0,0,.27-.54C193.86,21.83,192.82,24.71,191,22.75Zm-.86.68a1.88,1.88,0,0,0,.54-.32c1.41.72,1,1.64.39,1.68S190.19,24,190.18,23.43Zm-1.36.71a3.38,3.38,0,0,1,.27-.67,1.58,1.58,0,0,0,.64.08C190.75,25.63,188.35,25.64,188.82,24.14Zm-1.61-.35a1.64,1.64,0,0,0,.57-.19C189.43,25.68,186.61,26.19,187.2,23.79Zm-1.07-.18a1.86,1.86,0,0,0,.59.19,3.68,3.68,0,0,1,0,.75C186.52,26.11,184.31,25.13,186.13,23.61ZM184.56,23a2.29,2.29,0,0,0,.41-.11,2.75,2.75,0,0,1,.39-.06,1.73,1.73,0,0,0,.38.5,3.65,3.65,0,0,1-.46.59C184.38,24.94,183.37,23.55,184.56,23Zm.62-1.26a1.79,1.79,0,0,0,0,.64,3.54,3.54,0,0,1-.7.2C183,22.93,183.19,20.53,185.18,21.77Zm0-1.74a2.15,2.15,0,0,0,.34.49,2.75,2.75,0,0,1,.15.3,1.71,1.71,0,0,0-.31.51,3.6,3.6,0,0,1-.76-.26C183.44,20.53,184.35,19.22,185.2,20Zm1.46.32a1.7,1.7,0,0,0-.56.2,3.64,3.64,0,0,1-.45-.65C184.87,18.53,187.26,18,186.65,20.35Zm2.46-.25a1.68,1.68,0,0,0-.59.32c-.6-.3-.27-.35-.82.1a1.69,1.69,0,0,0-.56-.21,3.85,3.85,0,0,1,0-.76c.07-.63.43-.82.74-.79C189.17,18.65,188.74,19.79,189.11,20.11Zm1,0a1.8,1.8,0,0,0-.62-.1,2.33,2.33,0,0,1-.15-.46l0-.09c-.23-1,.41-1.31.86-1S190.4,19.75,190.13,20.1Zm1.33.38a3.46,3.46,0,0,0-.38.33,1.69,1.69,0,0,0-.11-.19,1.67,1.67,0,0,0-.41-.3c.38-2.37,2.36-.94,1.1,0C191.56,20.38,191.53,20.41,191.46,20.47Zm.66,1.31a4.74,4.74,0,0,0-.73.05,1.61,1.61,0,0,0-.14-.72C192.93,19.47,193.69,21.76,192.12,21.78Z"/><path class="cls-36" d="M132.28,41.59a1,1,0,0,0-.77-1.39.87.87,0,0,0,.07-1.33.93.93,0,0,0-1.25-.14,1,1,0,0,0-1.81-.57,1,1,0,0,0-1.77.67,1.07,1.07,0,0,0-1.65.88c-.83-.81-2.08.31-1.52,1.31-1.11-.05-1.51,1.41-.2,1.8-1.15.53-.8,2.08.65,1.6a1,1,0,1,0,1.6,1.13c.26,1.13,1.75,1.18,1.71-.32.71.84,1.84.33,1.72-.54a1,1,0,0,0,1.42-1,1,1,0,0,0,1.06-1.57A1,1,0,0,0,132.28,41.59Zm-2,1.5a4,4,0,0,1-.46-.6,1.85,1.85,0,0,0,.36-.5C132.53,42.13,131.31,44.25,130.25,43.09Zm-2.57-.75c0,1.39-1.51,2.32-2.51,1.15-.63-.74-.19-3.17,2-2.05.06-1.51,1.6-2.22,2.51-1.15A1.44,1.44,0,0,1,127.68,42.34Zm-.84-1.47v0h0v0Zm1,2.3c0-.1.12-.17.14-.29a1.71,1.71,0,0,0,.32.06,1.85,1.85,0,0,1,.11.63s0,0,0,.06A2,2,0,0,1,127.85,43.17Zm1,.53s0-.07,0-.1a1.72,1.72,0,0,1,0-.64,1.65,1.65,0,0,0,.61-.19c1.22,1,.66,1.81,0,1.72C129.09,44.44,128.9,44.09,128.81,43.7Zm-1.62.3a1.62,1.62,0,0,0,.44-.39,3.9,3.9,0,0,1,.67.41C129.57,44.95,127.58,46.41,127.19,44Zm-1,.28a1.76,1.76,0,0,0,.6,0,3.62,3.62,0,0,1,.29.7C127.55,46.44,125.06,46.45,126.17,44.28Zm-1-.37a1.8,1.8,0,0,0,.5.33,3.73,3.73,0,0,1-.18.73C125,46.47,123,45,125.18,43.91Zm-.64-.88a1.73,1.73,0,0,0,.27.56,3.59,3.59,0,0,1-.57.49C123,45,122.2,42.7,124.54,43ZM124,41.47a2.19,2.19,0,0,0,.3.2,2.68,2.68,0,0,1,.32.26,1.75,1.75,0,0,0-.13.61,3.49,3.49,0,0,1-.74.06C122.38,42.59,122.76,40.88,124,41.47Zm1.31-.39a1.83,1.83,0,0,0-.46.43,3.68,3.68,0,0,1-.64-.39C122.94,40.19,124.88,38.76,125.29,41.09Zm1.62-1.75a3.49,3.49,0,0,1,.47.6,1.72,1.72,0,0,0-.32.5c-.7,0-.44-.19-.71.37a1.67,1.67,0,0,0-.63.07,3.34,3.34,0,0,1-.28-.68A.86.86,0,0,1,126.92,39.33Zm1.44.17a1.71,1.71,0,0,0-.55.18C125.73,38,128.64,36.84,128.36,39.5Zm1.58-.48s-.07.15-.11.2a2.37,2.37,0,0,1-.42.49,1.64,1.64,0,0,0-.55-.21C128.24,37.19,130.51,37.71,129.94,39Zm.95,1.19a5.06,5.06,0,0,0-.66.35,1.81,1.81,0,0,0-.3-.5s-.09,0-.13-.08C130.67,37.74,132.31,39.55,130.89,40.21Zm.15,1.55a4.13,4.13,0,0,0-.74-.1,1.71,1.71,0,0,0,0-.74C132.3,39.66,132.58,42.06,131,41.76Z"/><path class="cls-37" d="M58.06,208.86a1,1,0,0,0-.45-.27,1,1,0,0,0-.21-1.75c.7-.45.42-1.46-.5-1.58a.88.88,0,0,0,.08-1.37.93.93,0,0,0-1.25-.14,1,1,0,0,0-1.81-.57.94.94,0,0,0-1.78.61,1,1,0,0,0-1.14,1.5,1,1,0,0,0,.07,2,.91.91,0,0,0-.23,1,5.09,5.09,0,0,1,1.39,2.63,1,1,0,0,0,1.66,1,.94.94,0,0,0,1.46.61,1,1,0,0,0,.42-.78,1,1,0,0,0,1.5-1.29A1,1,0,0,0,58.06,208.86ZM55,207.23c-.27.27-.35.14.06.3a1.36,1.36,0,0,1,.57.39,1.42,1.42,0,0,1-2.13,1.88,1.47,1.47,0,0,1,.27-2.15,1.43,1.43,0,1,1,1.3-2.35A1.41,1.41,0,0,1,55,207.23Zm-1.85.57h0l0,0h0Zm2.42-.79a1.74,1.74,0,0,1,.69.1,1.7,1.7,0,0,1-.6.39,1.82,1.82,0,0,0-.24-.21A1.66,1.66,0,0,0,55.56,207Zm.14,4v0a2.88,2.88,0,0,1-.18-.67,2.05,2.05,0,0,0,.44-.42,3.9,3.9,0,0,1,.66.4C57.74,211.13,56.32,212.36,55.7,211Zm-1.24-.37a1.55,1.55,0,0,0,.73-.13,3.57,3.57,0,0,0,.12.47c0,.09,0,.14.07.26C55.85,212.73,53.45,212.74,54.46,210.64Zm-1-.43a2,2,0,0,0,.52.36,3.22,3.22,0,0,1-.17.69C53.33,212.75,51.34,211.32,53.48,210.21Zm-1.17-.92h0a2.77,2.77,0,0,1,.52,0,1.73,1.73,0,0,0,.26.56,3.52,3.52,0,0,1-.58.49C51.39,211.2,50.68,209.37,52.31,209.28Zm-.61-2.06.24-.13a3.53,3.53,0,0,0,.4-.21,1.61,1.61,0,0,0,.44.58c0,.07-.07.19-.2.44.21.17.29.26.35.31a1.78,1.78,0,0,0-.13.65c-.42-.2-1.28.56-1.62-.69C51.05,207.89,51.12,207.49,51.69,207.22Zm-.15-1.55a3.46,3.46,0,0,1,.71.21,1.62,1.62,0,0,0-.06.66C50.27,207.71,50,205.38,51.54,205.68Zm.79-1.34a3.92,3.92,0,0,1,.48.63,2.08,2.08,0,0,0-.36.47,2.73,2.73,0,0,1-.47-.07,2.26,2.26,0,0,0-.31-.08C50.38,204.8,51.41,203.34,52.33,204.34Zm1.46.1a1.75,1.75,0,0,0-.62.22c-1.21-1-.66-1.81,0-1.72S53.88,204,53.8,204.44Zm1.55-.42c0,.05-.08.15-.12.21a2.37,2.37,0,0,1-.39.45,1.52,1.52,0,0,0-.59-.22C53.68,202.21,55.91,202.73,55.35,204Zm1,1.2a4.79,4.79,0,0,0-.66.35,1.78,1.78,0,0,0-.29-.5s-.08-.05-.12-.09C56.1,202.76,57.72,204.56,56.3,205.22Zm.15,1.54a3.32,3.32,0,0,1-.73-.21,1.75,1.75,0,0,0,0-.61C57.73,204.66,58,207.07,56.45,206.76Zm-.16,1.64a1.48,1.48,0,0,0-.26-.57c.72-.62,1.06-.95,1.52-.56S57.81,208.6,56.29,208.4Zm.55,1.56a2.33,2.33,0,0,0-.31-.2,2.72,2.72,0,0,1-.34-.27,1.77,1.77,0,0,0,.15-.71,4.19,4.19,0,0,0,.73.05C58.43,208.83,58.06,210.54,56.84,210Z"/><path class="cls-38" d="M83.81,83.42c.53-.28.84-.74.22-1.46a.88.88,0,0,0-1-.26,1,1,0,0,0-.14-1,.93.93,0,0,0-1.52.16,1,1,0,0,0-1.89.17A1,1,0,0,0,78,82.31a.85.85,0,0,0-.95.53.92.92,0,0,0-.15,1.1.89.89,0,1,0-.73,1.63,1,1,0,0,0,.24,2c-.59.92.38,2,1.39,1.13a1,1,0,0,0,1.94.37c.68.86,2,.25,1.52-1a1,1,0,0,0,1.32-1.23,1,1,0,0,0,.79-1.56A1,1,0,0,0,83.81,83.42Zm-3.43,1.78c.78,1.94-1.32,2.85-2.3,1.71-.73-.86-.29-2.43,1.45-2.32-.79-2,1.33-2.84,2.29-1.71C82.56,83.75,82.12,85.31,80.38,85.21ZM79,84.2s0,0,0,0h0v0Zm1.88,1.37c.12,0,.19-.08.3-.11a1.88,1.88,0,0,1,.4.61l-.27,0a2.35,2.35,0,0,1-.4-.12A1.71,1.71,0,0,0,80.89,85.57Zm1.44.83h0c-.37-.23-.51-.84-.68-1.11a1.64,1.64,0,0,0,.42-.4c1.57.41,1.39,1.4.76,1.58A.59.59,0,0,1,82.33,86.4Zm-1.7.55a1.65,1.65,0,0,0,.25-.57,3.43,3.43,0,0,1,.74.1C83.16,86.82,81.95,88.91,80.64,87Zm-.8,1.38s0-.07,0-.1a2.83,2.83,0,0,1,0-.6,1.86,1.86,0,0,0,.53-.31,3.47,3.47,0,0,1,.55.52C81.78,88.89,80.16,89.76,79.83,88.33Zm-1.14-.64a1.69,1.69,0,0,0,.63.05,3.54,3.54,0,0,1,.13.73C79.62,90,77.25,89.55,78.7,87.69Zm-1.59-.31a2.24,2.24,0,0,0,.27-.13,2.75,2.75,0,0,1,.41-.16s0,0,0,0a1.82,1.82,0,0,0,.45.37,3.66,3.66,0,0,1-.32.66C77.24,89.37,75.92,88.14,77.11,87.38Zm.31-1.3a1.69,1.69,0,0,0,.17.57,4.15,4.15,0,0,1-.7.39C75.45,87.67,75.18,85.25,77.42,86.08Zm.29-1a1.7,1.7,0,0,0-.23.54,3.73,3.73,0,0,1-.78-.1C75.16,85.17,76.39,83,77.71,85.06Zm1.4-2a1.66,1.66,0,0,0-.13.63c-.59.21-.4,0-.44.67a1.68,1.68,0,0,0-.56.31c-.09-.49-1.31-.64-.57-1.69C77.68,82.4,78.73,82.79,79.11,83.11Zm.72-.81a1.81,1.81,0,0,0-.47.41C76.83,82,79.12,79.84,79.83,82.3ZM80.89,82a1.76,1.76,0,0,0-.62.07C78.59,80,81.83,79.68,80.89,82ZM82.44,82a4.33,4.33,0,0,0-.46.6,1.72,1.72,0,0,0-.62-.4C81.26,79.8,83.47,80.77,82.44,82Zm.76,1.35a5.74,5.74,0,0,0-.72.2,1.78,1.78,0,0,0-.29-.64C83.5,80.84,84.74,83,83.2,83.3ZM83,84.84a4,4,0,0,1-.66-.35,1.79,1.79,0,0,0,.09-.6C84.73,83,84.48,85.47,83,84.84Z"/><path class="cls-39" d="M191.71,331.18a.93.93,0,1,0,1.41-1.2,1,1,0,0,0,.94-1.56,1,1,0,0,0-.44-.28,1,1,0,0,0-.73-1.75,1,1,0,0,0-1.65-1,1.13,1.13,0,0,0-.2-.43.88.88,0,0,0-1.47.08,1,1,0,0,0-1.78.12.9.9,0,1,0-1.72.53,1,1,0,0,0-1,1.66c-1.3.17-1.19,1.55-.16,1.76-.66.84.31,2.18,1.27,1.6a.94.94,0,0,0,1.82.45,1.13,1.13,0,0,0,1.93.18A.91.91,0,1,0,191.71,331.18Zm-2.42-2.12c-.18-.35-.06-.33-.3,0a1.42,1.42,0,0,1-2.19,0c-1.31-1.53,1.3-3.62,2.48-1.31a1.44,1.44,0,0,1,2.59.09A1.42,1.42,0,0,1,189.3,329.06Zm.32-2.1a1.67,1.67,0,0,0-.28.17c-.07-.09-.17-.12-.25-.2a2.17,2.17,0,0,1,.32-.62,1.8,1.8,0,0,0,.14.33C189.59,326.8,189.61,326.91,189.62,327Zm-.53,2.48h0l0,0Zm1.37.76a1.72,1.72,0,0,0,.63-.1,3.5,3.5,0,0,1,.29.7C191.85,332.28,189.46,332.3,190.46,330.2Zm-2.4.12s0-.09,0-.13a1.16,1.16,0,0,1,0-.22,1.65,1.65,0,0,0,.65-.25c.06.05.16.13.32.29.24-.16.35-.21.41-.25a1.59,1.59,0,0,0,.61.35c-.32.37,0,1.47-1.2,1.31C188.33,331.48,188.1,330.85,188.06,330.32Zm-1.46,0a3.5,3.5,0,0,1,.4-.6,1.54,1.54,0,0,0,.62.26C188.13,332.14,185.85,331.67,186.61,330.31Zm-1-1.16a3.46,3.46,0,0,1,.73-.27,2.26,2.26,0,0,0,.34.51C185.78,331.61,184.15,329.8,185.58,329.15Zm-.15-1.55a3.39,3.39,0,0,1,.67.19,1.94,1.94,0,0,0,.05.64,2.68,2.68,0,0,1-.3.15,2.21,2.21,0,0,0-.58.2C184.13,328.93,184.16,327.35,185.43,327.61Zm.79-1.33a3.6,3.6,0,0,1,.42.53,1.4,1.4,0,0,0-.41.55C184,327.15,185.17,325.13,186.22,326.27Zm1.43.13h-.07a2.38,2.38,0,0,0-.54.16C185.21,325,187.77,323.78,187.65,326.41Zm1.59-.49a1.53,1.53,0,0,0-.3.45,2.23,2.23,0,0,1-.23.27,1.65,1.65,0,0,0-.56-.17C187.51,324.14,189.75,324.63,189.24,325.92Zm1.42.73a1.77,1.77,0,0,0-.63.09,3.47,3.47,0,0,1-.29-.69C189.29,324.55,191.68,324.55,190.67,326.65Zm1,.42a1.71,1.71,0,0,0-.53-.3,2.54,2.54,0,0,1,.1-.58v0C191.77,324.49,193.81,325.95,191.66,327.07Zm.65.9a1.92,1.92,0,0,0-.31-.56,4,4,0,0,1,.58-.49C193.84,326,194.59,328.27,192.3,328ZM192.2,329a1.59,1.59,0,0,0,.13-.72,4.25,4.25,0,0,0,.75.05C194.64,328.4,193.9,330.71,192.2,329Zm-.68.83a2,2,0,0,0,.44-.41,3.66,3.66,0,0,1,.66.41C193.89,330.79,191.9,332.25,191.52,329.87Z"/><path class="cls-40" d="M50.8,145.78a1,1,0,0,0,1.13,1.49,1,1,0,0,0,1.85.65.93.93,0,0,0,1.77-.56c1,.57,1.9-.75,1.24-1.59a.94.94,0,0,0,.57-1.56l-.06,0a1,1,0,0,0,.1-1.75,1,1,0,0,0,.65-.65A.94.94,0,0,0,57,140.58a.9.9,0,0,0,0-1.18.92.92,0,0,0-1.4,0,1,1,0,0,0-1.88-.22,1,1,0,0,0-1.63,1,1,1,0,0,0-.71,1.81,1.07,1.07,0,0,0-.42,1.83A1,1,0,0,0,50.8,145.78Zm1-3.64a3.33,3.33,0,0,1,.74.05,1.61,1.61,0,0,0,.14.61c-.06,0-.14.14-.36.32.13.26.17.38.21.44a1.72,1.72,0,0,0-.43.5c-.35-.32-1.4-.08-1.16-1.27C51,142.49,51.22,142.16,51.85,142.15Zm.6,3.09a1.46,1.46,0,0,1,1.11-1.85c-1.25-1.24-.38-2.57.69-2.63,1.46-.11,2.39,2.09.33,2.84A1.43,1.43,0,1,1,52.45,145.24Zm2.76-1.51a1.64,1.64,0,0,0,.24-.22c.5.25.66.38.4.45l-.06,0-.41,0A1.81,1.81,0,0,0,55.21,143.73Zm-2.27-.49v0h0l0,0Zm-.6-2.56a3.44,3.44,0,0,1,.58.5,1.74,1.74,0,0,0-.28.56C50.32,142.07,51.06,139.77,52.34,140.68Zm1.26-.9a4.11,4.11,0,0,1,.18.73,2,2,0,0,0-.54.31C51.14,139.72,53.1,138.29,53.6,139.78Zm1.55,0a3.81,3.81,0,0,1-.28.7,1.59,1.59,0,0,0-.62-.07C53.2,138.31,55.63,138.28,55.15,139.79Zm1,1.09a3.45,3.45,0,0,0-.39.33,1.62,1.62,0,0,0-.1-.19,1.77,1.77,0,0,0-.41-.32c.38-2.35,2.36-.93,1.1,0C56.3,140.78,56.28,140.82,56.2,140.88Zm.67,1.31a3.62,3.62,0,0,0-.77.07h0a1.73,1.73,0,0,0-.12-.72C57.68,139.86,58.45,142.16,56.87,142.19Zm-1,1a1.75,1.75,0,0,0,.23-.56C58.6,142.23,57.57,145.07,55.82,143.18Zm.56,2.25a2.23,2.23,0,0,0-.52-.18,2.66,2.66,0,0,1-.3-.15,1.77,1.77,0,0,0,0-.74,4.26,4.26,0,0,0,.75-.1C57.54,144,57.56,145.61,56.38,145.43ZM55,146a1.92,1.92,0,0,0,.34-.41s0-.06,0-.08a3.47,3.47,0,0,1,.7.25C57.54,146.44,55.92,148.27,55,146ZM54,147.26c0-.06,0-.12,0-.18a2.83,2.83,0,0,1,.07-.45,1.4,1.4,0,0,0,.65-.22,3.48,3.48,0,0,1,.38.56C55.77,148.17,54,148.71,54,147.26Zm-.95-.91a1.85,1.85,0,0,0,.57.22,3.55,3.55,0,0,1,0,.74C53.4,148.88,51.16,147.88,53,146.35Zm-1.64-.54a2.32,2.32,0,0,0,.48-.14,2.65,2.65,0,0,1,.4-.06,2.22,2.22,0,0,0,.36.48,3.53,3.53,0,0,1-.48.62C51.26,147.67,50.28,146.35,51.39,145.81Zm.62-1.3a1.52,1.52,0,0,0,.06.65,3.47,3.47,0,0,1-.72.21C49.85,145.68,50.06,143.34,52,144.5Z"/><path class="cls-41" d="M125.9,310.85a1.19,1.19,0,0,0,1.64,1,1,1,0,0,0,1.85.66.94.94,0,0,0,1.74-.7c1,.64,2.09-.47,1-1.42a1,1,0,0,0,.83-1.59,1,1,0,0,0-.64-.3,1,1,0,0,0-1.08-1.55,1,1,0,0,0-1.35-1.11,1,1,0,0,0-.24-.55.92.92,0,0,0-1.4,0,1,1,0,0,0-1.88-.22,1,1,0,0,0-1.64,1,1,1,0,0,0-.83,1.73,1,1,0,0,0,.49,1.94A1,1,0,0,0,125.9,310.85Zm-.2-3.19c.36-1.42,2.7-1.64,2.81.56,1.86-1,3,1.08,1.9,2.14-.78.76-2.34.52-2.43-1.23l-.25.13A1.42,1.42,0,0,1,125.7,307.66Zm1.95,2h0v0h0Zm1.17-2a1.68,1.68,0,0,0-.13-.28,1.92,1.92,0,0,1,.56-.47,1.69,1.69,0,0,1-.11.69A1.7,1.7,0,0,0,128.82,307.68Zm-4.26.31a3.21,3.21,0,0,1,.75.05,1.85,1.85,0,0,0,.13.61C123.75,310.32,123,308,124.57,308Zm.49-1.47a3.46,3.46,0,0,1,.56.46,1.61,1.61,0,0,0-.27.59,2.77,2.77,0,0,1-.33,0,2.3,2.3,0,0,0-.53,0C123.31,307.24,124,305.76,125.06,306.52Zm1.45-.14a1.67,1.67,0,0,0-.35.11,1.71,1.71,0,0,0-.2.17,3.29,3.29,0,0,1-.41-.24h0c-.92-.67-.55-1.4,0-1.44S126.52,305.84,126.51,306.38Zm1.06,0a1.75,1.75,0,0,0-.6-.1C125.86,304,128.84,304,127.57,306.34Zm1.55.21-.06,0a3.25,3.25,0,0,0-.53.45,1.69,1.69,0,0,0-.51-.49C128.39,304.18,130.38,305.61,129.12,306.55Zm1.1,1.23a1.76,1.76,0,0,0-.6-.18,4.14,4.14,0,0,1,0-.75C129.82,305.29,132,306.28,130.22,307.79Zm.74.77a1.81,1.81,0,0,0-.19-.36,1.7,1.7,0,0,0-.16-.14,2.43,2.43,0,0,1,.3-.49c0-.06.12-.12.16-.18C132.15,306.4,133.33,308.42,131,308.56Zm.23,1.09a1.43,1.43,0,0,0,0-.75,5,5,0,0,0,.72-.1C133.39,308.48,133.15,310.85,131.19,309.65Zm-.55.91a1.81,1.81,0,0,0,.37-.47,3.64,3.64,0,0,1,.71.25C133.16,311,131.52,312.82,130.64,310.56Zm-.94.48a2.19,2.19,0,0,0,.54-.19C132,313,129,313.53,129.7,311Zm-1.12-.08a1.55,1.55,0,0,0,.63.14,3.69,3.69,0,0,1,0,.76C129,313.39,126.85,312.45,128.58,311Zm-2-1.26a1.64,1.64,0,0,0,.62.06c0,.07.09.18.19.44.29,0,.42,0,.49-.06a1.65,1.65,0,0,0,.37.56c-.42.23-.56,1.31-1.59.71C126,311.19,126.26,310.49,126.57,309.7Zm-1.54-.23a3.4,3.4,0,0,1,.65-.41,1.78,1.78,0,0,0,.44.43C125.74,311.82,123.77,310.41,125,309.47Z"/><path class="cls-42" d="M76.85,265.27c-1.23.68-.48,2,.62,1.68a.88.88,0,0,0,.2,1.1,1,1,0,0,0,.9.54A1,1,0,0,0,80,269.94a1,1,0,0,0,1.93.23c.66.79,2,0,1.74-1a1,1,0,0,0,.65-1.81c.65-.21,1.16-.72.5-1.5a.88.88,0,0,0-.83-.31,1,1,0,0,0-.86-1.54.84.84,0,0,0,.11-.31,1,1,0,0,0-1.31-.93.94.94,0,0,0-.11-1,.93.93,0,0,0-1.52.16,1,1,0,0,0-1.89.16,1,1,0,0,0-1.26,1.42C75.68,263.36,75.59,265,76.85,265.27Zm4-1.42,0,0c.3.34.39.91,0,1.79a1.43,1.43,0,1,1-.22,2.69,1.46,1.46,0,0,1-.63-2.07,1.51,1.51,0,0,1-1.45-.48C77.14,264,79.94,262.87,80.88,263.85Zm-1.29,2.82h0v0h0S79.58,266.67,79.58,266.67Zm1.87-1.7a1.73,1.73,0,0,1,.69-.19,1.62,1.62,0,0,1-.38.59,1.75,1.75,0,0,0-.31-.08A1.69,1.69,0,0,0,81.45,265Zm-3-2.27a4,4,0,0,1,.33.68,1.46,1.46,0,0,0-.5.4C76.09,263.13,77.69,261.35,78.48,262.7Zm1.37.47a2.08,2.08,0,0,0-.58,0C77.57,261.11,80.78,260.69,79.85,263.17Zm1.39.07h0c-.11.14-.23.28-.28.37h0a1.84,1.84,0,0,0-.61-.35c-.15-2.45,2.12-1.45,1.08-.26C81.33,263.13,81.31,263.17,81.25,263.25Zm.93,1.14a3.49,3.49,0,0,1-.72.1,1.46,1.46,0,0,0-.27-.57C82.49,261.95,83.72,264,82.18,264.38Zm.5,1.57a1.66,1.66,0,0,0-.46-.4C83.09,263.08,85.11,265.27,82.68,266Zm.38,1a1.87,1.87,0,0,0-.13-.6,3.46,3.46,0,0,1,.66-.36C85,265.39,85.29,267.79,83.06,267Zm.38,1.72a2.23,2.23,0,0,0-.44-.4,2.79,2.79,0,0,1-.21-.25,1.71,1.71,0,0,0,.24-.58,3.43,3.43,0,0,1,.74.1C85,267.82,84.43,269.29,83.44,268.68Zm-1.43.77a2.27,2.27,0,0,0,0-.31,2.79,2.79,0,0,1,0-.42,1.81,1.81,0,0,0,.56-.32,3.76,3.76,0,0,1,.53.5C83.92,269.93,82.36,270.8,82,269.45Zm-1.54,0a2.24,2.24,0,0,0,.16-.31,2.73,2.73,0,0,1,.23-.36,1.74,1.74,0,0,0,.6,0,3.59,3.59,0,0,1,.15.79C81.74,270.9,80,270.71,80.46,269.43Zm-1.17-1,.1,0a2.77,2.77,0,0,1,.59-.23,1.7,1.7,0,0,0,.45.38,3.79,3.79,0,0,1-.34.72C79.38,270.46,78,269.18,79.29,268.43ZM78,266.73a3.56,3.56,0,0,1,.55-.53,1.81,1.81,0,0,0,.54.32c0,.08,0,.2,0,.48.31.08.43.14.5.15a1.66,1.66,0,0,0,.17.69,3.59,3.59,0,0,0-.48.18l-.26.09A.86.86,0,0,1,78,266.73Zm-.77-1.35a3.5,3.5,0,0,1,.75-.1,1.7,1.7,0,0,0,.25.56C76.95,267.83,75.72,265.73,77.26,265.38Zm.18-1.54a3.36,3.36,0,0,1,.61.32,2,2,0,0,0-.07.63C75.74,265.65,76,263.22,77.44,263.84Z"/><path class="cls-43" d="M159.38,165.53a12.7,12.7,0,0,0,.06,19.32,12.7,12.7,0,0,0,7.91,17.62,12.81,12.81,0,0,0,14.4,12.88,12.7,12.7,0,0,0,18.39,5.91,12.67,12.67,0,0,0,19.2-2.08,12.68,12.68,0,0,0,16.7-9.71,12.69,12.69,0,0,0,11.31-15.66,12.69,12.69,0,0,0,4-18.91A12.7,12.7,0,0,0,247.23,156a12.72,12.72,0,0,0-11.4-15.59,12.7,12.7,0,0,0-16.76-9.61,12.69,12.69,0,0,0-19.22-2,12.68,12.68,0,0,0-18.35,6,12.69,12.69,0,0,0-14.32,13A12.68,12.68,0,0,0,159.38,165.53Zm2.41.5c-1.35-2.64-3-6.6-.56-10.25.45-1.76,1.67-4.78,7.95-6.49-.16-2.86-.07-7.29,3.66-9.58,1.09-1.4,3.48-3.71,9.9-2.7,1-2.62,2.9-6.71,7.24-7.27,1.53-.84,4.68-2,10.14,1.56,2.13-2.15,5.36-4.87,9.57-3.69,1.74-.11,5.08.1,8.63,5.55,2.76-1.08,6.88-2.29,10.24.52,2.68,1,4.79,3.29,5.63,8.58,3.87.18,7.41,1.16,9.15,4.64,2.73,2.61,2.64,6.44,1.65,10.13,3.47,1.76,6.31,4.1,6.47,8,.73,1.74,1.24,5.16-2.12,9.31-.62.77-.62.45,0,1.21,1.26,1.54,3.76,5.21,2.18,9.3-.06,1.9-1,5.21-5.72,7.64-.88.45-.75.16-.49,1.11.51,1.85,1.34,6.31-1.79,9.38-.82,1.71-3,4.37-8.34,4.65-1,.05-.75-.16-.9.82-.6,4-2.59,6.82-5.45,7.84-1.44,1.23-4.52,2.77-9.51.86-.92-.35-.62-.45-1.16.38-2.15,3.36-5.14,5.18-8.17,4.94-1.82.54-5.26.7-9-3.08-.7-.7-.39-.67-1.21-.12-3.33,2.19-6.81,2.65-9.48,1.19-1.78-.25-5.09-1.5-7-6.49-.35-.92-.08-.76-1.06-.6-1.87.31-6.41.66-9.14-2.76-1.59-1-4-3.44-3.76-8.78,0-1,.24-.73-.72-1-1.69-.44-6.17-2-7.22-6.24-1-1.43-2.47-4.45.49-10.25-2.08-1.66-5.49-4.83-4.67-9.13C156.85,173.51,156.73,170.12,161.79,166Z"/><path class="cls-44" d="M173.42,181.83c-.75,8.67-3.54,7.85-1.2,8.64A24.61,24.61,0,0,1,178.9,194a24.49,24.49,0,0,1,1.36,7.44c0,2.42.2-.42,8.6,1.48,5.83,6.25,3.52,7.85,5.62,6.67a24.36,24.36,0,0,1,7.11-2.58,24.21,24.21,0,0,1,6.44,4c1.95,1.69-.61-.12,6.85-5.4,8.52-.16,8.19,2.64,8.72.29a24.52,24.52,0,0,1,2.84-7,24.46,24.46,0,0,1,7.25-2.14c2.55-.32-.49.33.57-8.7,5.58-6.43,7.44-4.32,6-6.28a24.5,24.5,0,0,1-3.31-6.8,24.59,24.59,0,0,1,3.27-6.82c1.39-2-.38.23-6.09-6.25a25,25,0,0,1,.41-8.58,24.79,24.79,0,0,1-8.3-2.21,24.86,24.86,0,0,1-3.12-8,24.87,24.87,0,0,1-8.48,1.36,24.28,24.28,0,0,1-5.48-5.22c-1.55-2,.49.28-7.82,3.86-8.48-1.63-7.45-4.3-8.47-2.1a24.47,24.47,0,0,1-4.23,6.27,24.37,24.37,0,0,1-7.54.58c-2.57-.22.55-.2-2.37,8.4-6.81,5.14-8.17,2.68-7.22,4.89a24.58,24.58,0,0,1,1.82,7.34,24.54,24.54,0,0,1-4.61,6C167,176.11,169.21,174.31,173.42,181.83Zm-2.62-6.67a26.73,26.73,0,0,0,4.54-6.28,26.64,26.64,0,0,0-1.64-7.58,26.65,26.65,0,0,0,6.7-3.89,26.59,26.59,0,0,0,1.58-7.59,26.66,26.66,0,0,0,7.71-.83,26.7,26.7,0,0,0,4.53-6.29,26.58,26.58,0,0,0,7.37,2.38,26.75,26.75,0,0,0,6.7-3.9,27.11,27.11,0,0,0,5.77,5.18,26.74,26.74,0,0,0,7.71-.84,26.76,26.76,0,0,0,3.17,7.07,26.63,26.63,0,0,0,7.38,2.37,26.74,26.74,0,0,0,0,7.75,26.56,26.56,0,0,0,5.78,5.16A26.72,26.72,0,0,0,235,175a26.69,26.69,0,0,0,3.18,7.07,26.73,26.73,0,0,0-5.75,5.2,26.64,26.64,0,0,0,0,7.75,26.56,26.56,0,0,0-7.37,2.41,26.72,26.72,0,0,0-3.12,7.09,26.67,26.67,0,0,0-7.71-.79,26.76,26.76,0,0,0-5.74,5.21,26.79,26.79,0,0,0-6.72-3.86,26.76,26.76,0,0,0-7.36,2.43,27.18,27.18,0,0,0-4.57-6.26c-12.16-2.7-5.29,3.27-9.34-8.35a26.74,26.74,0,0,0-6.73-3.85,26.74,26.74,0,0,0,1.59-7.58A26.75,26.75,0,0,0,170.8,175.15Z"/><path class="cls-45" d="M178.92,169.62c1.32,14.69-2.06,7.63,2.75,15.83,1.93,5.93.87,4.67,6.24,8.53,4.16,4.61,2.72,3.92,9.17,5.25,5.89,2.63,4.48,2.39,10.51,1.07,9.35,0,1.78.71,15.05-5.64,7.73-12.71,6.15-5.17,7.09-14.42,2.84-8.78,1.29-1.37-.71-16.05-9.74-11.43-3.11-7.5-11.53-11.2-1.41-1-3.36-2.38-4.53-3.17-8.9-.25-10.66-.8-10.92-1-.26.29-2,1.2-10.5,3.35-5,5.39-2.46,3-8.16,7.39C181.13,166,182.4,163.35,178.92,169.62Zm2,.41c6-11.07,1.52-7.6,8.2-12.38,5.07-6,1.47-2,13.12-6.94,7.46,1.36,2.47.87,10.13,1,10.53,7.23,7.1,2.11,11.45,9.45,5.64,6.24,1.8,1.34,5.53,13.78-3.56,12.13.07,7.71-5.37,13.73-.37.52.06,0-2.67,4.48-5.34,2.55-4.14,1.87-4.72,2.21-6.68,4.92-1.17,1.5-14.2,4-11.67-4.84-7.59-.65-13.1-6.78-.48-.42.06.09-4.18-3.12-1.88-5.29-1.4-4.24-1.71-4.93C179.25,177.51,182,182.86,180.89,170Z"/><path class="cls-46" d="M187.62,43.13c6.29,7.37-4.2,15-7.39,8-.84-1.88-.35-3.74,1.17-4.42l.53,1.17c-2.08.94,0,6.06,3.83,4.36,3.15-1.41,3.8-6.72-1-9.84-5.84-3.83-14.8-3.1-21,6.55-.83,1.32-6.65-3.6-14.37-.12-11.09,5-8.49,17.4-2.1,16,4.06-.88,2.74-6.26.5-5.78l-.27-1.26c1.63-.35,3.13.86,3.56,2.87,1.09,5.07-5.36,7.61-9,3.49-5.8-6.61,3.67-22.64,20.82-16.33C170.67,36.27,182.7,37.31,187.62,43.13Z"/><path class="cls-47" d="M131.21,67.3l1,.86c-.73.82-.18,2,.63,2.7,2.85,2.56,6.77-.75,5.39-4.67-2-5.6-10.68-5.37-15.7-1.7-7,5.09-5.32,12.46-7,12.55C104.13,77.6,99,85,99.43,92c.36,5.64,5.29,7.74,8.08,5.69,3.34-2.45,0-6.84-1.89-5.49l-.75-1c1.34-1,3.2-.49,4.42,1.17,3.07,4.2-1.82,9.13-6.76,6.82C94.41,95.38,96.84,77,114.9,75.78c2.78-16.65,18.39-17.88,23.22-12.22a6,6,0,0,1,.28,7.88C134.5,75.79,128.52,70.32,131.21,67.3Z"/><path class="cls-48" d="M100.83,102.08c3.39,4,.27,9.86-4.58,8.31-2-.63-3-2.24-2.51-3.82L95,107c-.7,2.18,4.53,4,5.8.07,1.06-3.29-2.46-7.31-8-5.88-6.76,1.77-12.2,8.92-9.15,20,.41,1.51-7.12,2.53-9.71,10.59-1.87,5.86.58,14.25,6.56,14.37,4.15.08,6.07-4.68,2.73-6.58-.95-.54-2.21-.7-2.76.25l-1.12-.64c2-3.53,9.07.48,6.19,5.52-2.21,3.86-8.83,4-12-2-3.52-6.72-1.75-16.21,8.67-21.71C77.69,103.1,94.88,95.1,100.83,102.08Z"/><path class="cls-49" d="M70.89,175.47c-12.82-16.1,4.28-31.42,11.24-23.26,2.43,2.85,1.4,7.49-2.78,7.94-2,.22-3.67-.82-3.85-2.47l1.28-.14c.25,2.26,5.77,1.85,5.33-2.3-.37-3.45-5.25-5.67-9.66-2.14-5.46,4.38-7.51,13.13-.24,22,1,1.21-5.49,5.21-4.56,13.62.67,6.13,6.32,12.78,11.84,10.45,3.83-1.63,3.63-6.74-.18-7.13-1.09-.11-2.31.27-2.42,1.35l-1.28-.13c.42-4,8.49-3.28,7.9,2.53-.45,4.42-6.43,7.26-11.72,3.08C65.86,194.12,63.6,184.75,70.89,175.47Z"/><path class="cls-50" d="M85.22,205.45c4.33,5.07-3.38,10.15-5.6,6.34l1.11-.65c1.17,2,6-.71,3.93-4.27-1.75-3-7.09-3-9.69,2-3.2,6.21-1.54,15,8.71,20.15,1.4.69-2.89,7,1.38,14.3,3.09,5.3,11,9.11,15.07,4.73,2.83-3,.59-7.63-3.06-6.44-1,.34-2,1.18-1.66,2.22l-1.22.4c-1.25-3.84,6.42-6.46,8.24-.9,1.39,4.22-2.93,9.24-9.45,7.57-7.35-1.88-13.21-9.54-10.33-21C62,219.18,76.92,195.68,85.22,205.45Z"/><path class="cls-51" d="M148.34,284.4c5.71,1.2,4,9.12,0,8.3l.26-1.26c1.07.22,1.8-.83,2-1.89.79-3.74-4-5.49-6.74-2.33-3.88,4.52.7,11.93,6.37,14.45,7.91,3.5,13.45-1.62,14.37-.22,6.14,9.52,15.09,10.35,21,6.42,4.69-3.13,4.08-8.44.89-9.85-3.8-1.67-5.89,3.46-3.81,4.38l-.52,1.18c-4.72-2.09,1.64-11.31,6.74-5.32,7.41,8.69-13.17,22.12-25.09,4.32-10.94,4.1-19.27-.74-22-7.94C139.49,288.36,144,283.47,148.34,284.4Z"/><path class="cls-52" d="M219.26,308.22a23.22,23.22,0,0,0,4.71,2.25c-1.3-.3-2.7.36-3.19,2.34-.49-2.06-2-2.2-2,.06a3.31,3.31,0,0,0-.44-.75c-1.21-1.42-3.42-.92-4.48.38a2.44,2.44,0,0,0-.06,2.81c-2.81-2.51-5.36.75-4.72,2.62a3.05,3.05,0,0,0,.84,1.22,2.75,2.75,0,1,0-2,5.1,3.07,3.07,0,0,0-1.42.38c-1.58.92-2.27,5.07,1.62,5.08a3.15,3.15,0,0,0-1.32.9c-1.07,1.35-.48,5.38,3.17,4.19a3.27,3.27,0,0,0-1,1.22,2.72,2.72,0,0,0,4,3.31,3.21,3.21,0,0,0-.58,1.26c-.39,2.13,1.91,4.61,4.59,2.27a3.27,3.27,0,0,0-.42,1.57c0,1.77,3.12,4.42,5.17,1-1,4.69,5.23,3.89,3-.56,3,3.05,6.51-.06,4-3.34,3.55,2.17,5.25-2.14,3.73-3.92-.14.12-.15-.09-.51-.46,3.53,1.15,4.39-2.71,3.14-4.19a3.32,3.32,0,0,0-.92-.71c4.06.31,2.87-5,2.35-4.54a2.84,2.84,0,0,0-1.6-.88,3,3,0,0,0,1.24-.57,2.78,2.78,0,0,0-2.68-4.71c2-1.26,1.87-2.87.73-4.21a2.51,2.51,0,0,0-3.51-.5,2.35,2.35,0,0,0,0-3.08c-1.33-1.56-3.21-1.9-4.64.18.48-2.07-.54-2.66-.36-2.44a3.24,3.24,0,0,0-1.66-1c13.94,4.88,23.84-8.43,18.26-15-3-3.52-8.76-2.15-8.75,2.6,0,2.06,1.22,3.55,2.89,3.55v-1.28c-2.29,0-2.45-5.53,1.7-5.55,3.47,0,6.21,4.59,3.19,9.36-3.78,6-12.28,8.87-21.79,2.67-1.23-.82-4.74,6-13,6-6.24,0-13.39-4.93-11.7-10.61,1.18-4,6.29-4.36,7.1-.61.23,1.07,0,2.32-1.08,2.56l.27,1.26c4-.86,2.32-8.8-3.39-7.57-4.37.93-6.47,7.22-1.76,12C201.33,315.34,210.88,316.46,219.26,308.22Zm1,9.17c9.54-.48,12.62,10.38,7.69,18.66l-.21.37a17.35,17.35,0,0,1-4.87,5C210.56,336.43,208.43,319.37,220.25,317.39Zm7.8.78a10.69,10.69,0,0,0-2.19-1.47c.66-2.23,1.58-4.06,3.59-2.73C231.26,315.28,229.81,316.82,228.06,318.17Zm2.67,3.51a12.34,12.34,0,0,0-1.41-2.17c1-1.23,2.29-2.69,3.58-2C234.61,318.52,235,320.48,230.72,321.69Zm1.35,4.29a14.45,14.45,0,0,0-.62-2.58c1.35-.78,3.16-1.59,4.06-.53.53-.45.44-.39,0,0C236.78,324.5,236.19,326.42,232.07,326Zm0,4.72a16,16,0,0,0,.2-2.88c1.48-.21,3.37-.29,3.81,1C236.61,330.58,235.65,332.15,232,330.69Zm-1.48,4.73a17.08,17.08,0,0,0,1.11-2.95c2,.35,3.6,1.07,2.83,3C233.86,337.22,232.09,336.49,230.57,335.42Zm-2.72,4.14a18.72,18.72,0,0,0,1.88-2.61c1.76.73,3.16,1.93,2.05,3.46S229.21,341,227.85,339.56Zm-3.52,3.15a22.1,22.1,0,0,0,2.25-1.89c.93.61,2,1.44,2.16,2.38C229,344.44,226.75,347.48,224.33,342.7Zm-1.61,2.48c.43-1.33.43-1.23,1.09-.12C225.73,348.36,221.58,348.67,222.71,345.18Zm-3.59-3.6a20.24,20.24,0,0,0,2.56,1.45c-.61,2.39-1.74,4.15-3.66,2.48C216.82,344.32,217.9,342.82,219.13,341.58Zm-5.83-.8a4.55,4.55,0,0,1,2.05-2.35,21.87,21.87,0,0,0,2.31,2.1C215,344.86,213.09,342,213.3,340.78Zm-.87-6.25a19.51,19.51,0,0,0,1.73,2.54c-1.16,1.31-2.7,2.56-3.81,1.25C208.85,336.57,210.37,335.38,212.43,334.53Zm-1.73-4.35a15.27,15.27,0,0,0,.92,2.75c-1.28.93-2.91,1.79-3.85.69C206.6,332.24,207,330.59,210.7,330.18Zm-.23-4.55a12.21,12.21,0,0,0-.06,2.73c-5.48,1.71-4.24-2.41-3.4-2.89S209.36,325.29,210.47,325.63Zm1.41-4.18a13.87,13.87,0,0,0-.81,1.66c-.09.24-.14.49-.21.73-5.64-.28-3.46-3.78-2.24-4C209.66,319.72,211.32,320.85,211.89,321.45Zm2.77-3.48a12.69,12.69,0,0,0-1.74,1.92,8,8,0,0,1-2.52-1.64c-1.3-1.53.8-3.19,1.85-2.92S214.11,316.94,214.66,318Zm3.86-2.13a9.64,9.64,0,0,0-2.4,1l-.31-.36c-1.33-1.56-2.19-3.2-.3-4C217.78,311.58,218.3,313.46,218.52,315.84Zm6.44-3.67c.75.88-.09,2.64-.77,3.82a11.05,11.05,0,0,0-2.56-.46c-.21-1.61-.34-3.49,1.07-3.95A2.45,2.45,0,0,1,225,312.16Z"/><path class="cls-53" d="M232.78,51.79c0-2.06,1.2-3.56,2.86-3.56v1.28c-2.27,0-2.44,5.55,1.73,5.54,3.45,0,6.2-4.59,3.13-9.38-3.79-5.9-12.29-8.83-21.81-2.53-1.3.85-4.61-6-13.07-6-6.14,0-13.38,4.94-11.63,10.68,1.22,4,6.32,4.32,7.11.57.22-1.07,0-2.32-1.09-2.55l.27-1.26c4,.84,2.36,8.78-3.34,7.59-4.36-.91-6.54-7.16-1.83-12,5.32-5.44,14.88-6.66,23.33,1.54,15.28-9.75,28.11,3.65,23.83,11.5C239.65,58.08,232.79,57,232.78,51.79Z"/><path class="cls-54" d="M100.15,60.46l-.16,0c.16-1,.35-.77-.79-.65,0-.13-.08-1.29-.09-1.44l1.43.23c-.23,1.13-.41.91.57.85,0,.05,0,.11,0,.16C100.11,59.69,100.35,59.46,100.15,60.46Z"/><path class="cls-55" d="M62.6,113l-.17,0c-.25-.95,0-.84-1-.27-.08-.13-.59-1.13-.66-1.29l1.38-.36c.26,1.12,0,1,.88.55l.07.13C62.25,112.26,62.37,112,62.6,113Z"/><path class="cls-56" d="M48.3,174.78c.3-.24.11-.25.74.59l.47-.59.13.1c-.6.81-.61.48,0,1.3l-.13.1-.47-.59c-.61.83-.42.83-.74.59C47.08,175.31,47.12,175.73,48.3,174.78Z"/><path class="cls-57" d="M62.64,238.72l.19-.73.15,0c-.21,1-.36.68.54,1.19l-.08.15-.67-.34c-.21,1,0,1-.44.84-1.5-.4-1.29,0-.61-1.37C61.91,238.11,61.76,238.23,62.64,238.72Z"/><path class="cls-58" d="M100.7,290.31l.16,0c.21,1,0,.77,1,.86l0,.17-.75,0c.2,1,.39.87-.05.94-1.3.22-1.36.68-1.1-1.24C101.06,291.08,100.86,291.28,100.7,290.31Z"/><path class="cls-59" d="M157,323.33l-.42-.63.13-.09c.6.81.28.72,1.25.39l.06.16-.7.27c.61.84.65.66.33.88-1.3.86-.89,1-1.43-.46C156.07,323.47,156.05,323.66,157,323.33Z"/><path class="cls-60" d="M157,27.38c-1-.32-.64-.43-1.23.41l-.14-.09c.54-.82.63-.56-.46-.92,0-.12.46-1.23.5-1.35l1.21.79c-.67.94-.74.67.18,1Z"/><path class="cls-61" d="M172.48,30.58a3,3,0,0,0-2-.86c2.87-.72,2.83-3.26,1.6-4.71a2.43,2.43,0,0,0-2.59-.6,3.12,3.12,0,0,0,1.05-1.12c.8-1.62-.73-5.26-3.93-3.49a2.53,2.53,0,0,0,0-3.52,2.44,2.44,0,0,0-3.92-.24,2.55,2.55,0,0,0-.26-2.91c-1.19-1.4-3-1.72-4.42.26a2.75,2.75,0,0,0-3.29-3.59,2.51,2.51,0,0,0-1.85,1.8c-.25-4.24-5.48-2.49-3.16,1.06-1.21-.75-2.61-.93-3.67.59a2.51,2.51,0,0,0,.41,3.77,3.17,3.17,0,0,0-1.37-.13c-1.92.31-3.61,3.65-.31,5.29-4.31-.55-4.74,4.14-.61,5.2-4.42.12-3.39,4.29-1.73,5.15a3,3,0,0,0,1.33.3,3,3,0,0,0-1.05.8c-1.12,1.4-.19,5.71,3.59,4-1.22,1.14-1.61,2.46-.2,3.94s3,1,4.1-.13c-1.55,3.68,2.6,4.68,4.1,3.49a3,3,0,0,0,.85-1.17,2.39,2.39,0,0,0,1.22,2.3c1.82.92,4.29.1,4.31-2.49a3.16,3.16,0,0,0,1,1.34c.63.39.44.45.71-.23a3,3,0,0,0,.07-1.56,2.55,2.55,0,0,0,2.4,1.13c2-.28,3.65-2.35,2-4.53a2.76,2.76,0,0,0,3.8-3.92,3.42,3.42,0,0,0-.85-.67A2.8,2.8,0,0,0,172.48,30.58Zm-6.62,1.71c-2.14,8.42-10.89,8.86-15.52,3.43-4.81-5.64-2-15.21,2.28-19.7C159.73,17.28,167.82,24.57,165.86,32.28Zm2.57,7.09c-1,0-2-1.1-2.76-1.92a10,10,0,0,0,1.48-2.32C172.35,36.48,169.71,39.42,168.43,39.37Zm-6.23.8a11.45,11.45,0,0,0,2.21-1.43c4.88,3.54.35,4.78-.42,4.45C163.07,42.79,162.54,41.28,162.2,40.17Zm-5.59,1.07a11.59,11.59,0,0,0,2.59-.11c1.4,4.25-.77,4.88-2.36,4.08C155.72,44.66,156.17,42.63,156.62,41.25ZM152.31,40a10.21,10.21,0,0,0,2.52,1c-.19,2.29-.72,4.18-2.94,3.33C149.88,43.37,150.92,41.65,152.31,40ZM148.95,37a11.64,11.64,0,0,0,1.88,1.89c-.36.82-1.32,2.34-2.26,2.61S143.65,39.86,148.95,37Zm-2.11-4a14.41,14.41,0,0,0,1.1,2.42c-1.34,1.2-3,2.35-4.15,1C142.11,34.54,143.83,33.44,146.84,33.07ZM146,28.45a16.72,16.72,0,0,0,.37,2.8c-4.95,1.77-4.77-2-3.66-2.7C143.44,28,144.88,28.24,146,28.45Zm.46-4.85a18,18,0,0,0-.42,3c-1.1.05-2.59,0-3.26-.79C141.84,24.78,142.28,21.84,146.43,23.6ZM148.21,19A19.12,19.12,0,0,0,147,21.87a4.85,4.85,0,0,1-2.67-1.17C143.34,19.59,144.13,16.21,148.21,19Zm2.41-4.24.33.37a21,21,0,0,0-1.8,2.34A6.11,6.11,0,0,1,146.82,16C145.69,14.69,147.39,10.92,150.63,14.72ZM152,12.34c-.14,1.39-.16,1.29-1,.34C148.46,9.85,152.39,8.69,152,12.34Zm4.25,2.77a20.89,20.89,0,0,0-2.78-.82c.33-5.53,3.55-3.36,3.8-2.29S156.81,14.23,156.25,15.12Zm4.38,2.29a19.26,19.26,0,0,0-2.71-1.61c.65-1.88,1.57-3.51,3.26-2.51S162,16,160.62,17.4Zm4.84,2.29a9.53,9.53,0,0,1-1.26,1,18.3,18.3,0,0,0-2.14-2.18C164.9,13.67,167.65,17.61,165.47,19.7Zm1.23,4.88a17,17,0,0,0-1.39-2.46c1-1.07,2.37-2.33,3.45-1.74C170.4,21.3,170.68,23.35,166.7,24.58Zm3.16,4.37a5.38,5.38,0,0,1-1.89,0,14.57,14.57,0,0,0-.59-2.63c1.3-.77,3.06-1.63,4-.68C172.34,26.79,172.18,28.72,169.86,28.95Zm-2.13,4.45a11.6,11.6,0,0,0,.35-2.64c1.49-.22,3.42-.44,3.92.85S171.83,35.37,167.73,33.4Z"/><path class="cls-62" d="M74.08,103.13a2.47,2.47,0,0,0-.25-3c-1.34-1.57-3.25-1.79-4.54.39a2.76,2.76,0,0,0-.55-2.26c-1.09-1.27-4.13-1.95-4.82,1.39A3.3,3.3,0,0,0,63.26,98,2.7,2.7,0,0,0,58.52,100a3.52,3.52,0,0,0-.52-.89,2.68,2.68,0,0,0-4.59,2.58,4.41,4.41,0,0,0-.29-.49c-1.61-1.89-6.58-.65-4.17,3.41-3.5-3.3-6,2-1.72,2.74a3.13,3.13,0,0,0-1.25.62,2.76,2.76,0,0,0,2.51,4.67,3.33,3.33,0,0,0-1.16,1A2.75,2.75,0,0,0,51,117.39a2.7,2.7,0,0,0,1.71,4.92,3.17,3.17,0,0,0,1.33-.48c-.87,1.26-1,2.58.5,3.64a2.52,2.52,0,0,0,3.84-.39,2.58,2.58,0,0,0,.37,2.61,2.84,2.84,0,0,0,4.85-.82,3,3,0,0,0,.38,1.39c1.06,1.71,4.1,1.36,4.88-.29a3.1,3.1,0,0,0,.24-1.47,3.06,3.06,0,0,0,.89,1.16,2.83,2.83,0,0,0,4-3.78c3.21,2.82,5.91-1.53,4.12-3.64-.13.11-.07,0-.33-.32a3.78,3.78,0,0,0,2.13-.06A4.42,4.42,0,0,0,78,118.08c4,.62,3.85-3.37,2.89-4.5a2.77,2.77,0,0,0-1.9-.87c2.67-.89,2.4-3.26,1.18-4.68a2.38,2.38,0,0,0-2.69-.59,2.75,2.75,0,0,0-3.43-4.3Zm-7.77,19.12c-7.81.93-13.9-7.75-14.56-14.59h0l.06.05s0-.06,0-.1l.31-.25-.24,0c5.15-3.86,15.18-5.51,20.07.23S74.44,121.28,66.31,122.25ZM78.11,112a5.45,5.45,0,0,1-1.94.11,11.74,11.74,0,0,0-.73-2.53c1.27-.88,3-1.91,4-1C80.41,109.76,80.45,111.64,78.11,112Zm-.26,5.17A5.69,5.69,0,0,1,76,116.5a10.58,10.58,0,0,0,.3-2.58c1.43-.31,3.57-.63,4,.59C80.93,115.95,80.14,117.79,77.85,117.17Zm-4.69,4.18a9.43,9.43,0,0,0,1.68-2c.92.41,2.73,1.3,2.49,1.51C78.6,122.36,76.23,126.47,73.15,121.35Zm-3.86,2.2a11.36,11.36,0,0,0,2.4-1.1c.82.85,1.8,2,1.72,3C73.34,126.71,70.18,129.29,69.3,123.56Zm-4.43.69a12.06,12.06,0,0,0,1.67-.08c.33,0,.63-.1.94-.16,1.66,4.16-.76,5-2.14,4.24C64.14,127.64,64.47,125.72,64.87,124.25Zm-4.45-1a12.24,12.24,0,0,0,2.61.79c-.18,4.4-2.47,4.12-3.59,3C58.62,126.05,59.57,124.47,60.42,123.28Zm-4-2.54a15.35,15.35,0,0,0,2.34,1.72c-1.63,3.8-3.66,2.94-4.31,1.46C54,122.82,55.32,121.58,56.45,120.74Zm-3.18-3.68a19.45,19.45,0,0,0,1.9,2.43c-1.27,1.56-2.72,2.64-4,1.13S51.4,117.89,53.27,117.05ZM51,112.66a21.83,21.83,0,0,0,1.31,2.86c-1.24,1-2.85,1.87-3.84.71C46.69,114.1,49.54,112.92,51,112.66Zm-4.41-4c.74-.64,2.21-.63,3.26-.57a20.39,20.39,0,0,0,.6,2.87C45.52,113.39,45.94,109.23,46.62,108.65Zm2.65-2.29c-1.64.22-3.26.15-3.4-1.5C47.17,103.86,48.36,105,49.27,106.36Zm4.26-2.29a17,17,0,0,0-2.6,1.56c-1.47-1.42-2.62-3.14-.86-4.13,1.29-.75,2.2-.26,2.86,1.12A9.54,9.54,0,0,1,53.53,104.07Zm4.57-1.57c-.8.19-1.61.4-2.45.69-.2.07-.36.14-.55.21-1-1.7-1.54-3.56.31-4.15S57.94,100.48,58.11,102.5Zm4.84-.6a20.05,20.05,0,0,0-3,.25c-1.66-4.89,2.09-4.24,2.68-3.44A4.64,4.64,0,0,1,62.94,101.91Zm4.63.66a14.93,14.93,0,0,0-2.83-.57c-.14-1.44-.13-3.21,1-3.62C67.54,97.77,69.23,99,67.57,102.56Zm4,2.06a12.55,12.55,0,0,0-2.33-1.4c.31-1.48.87-3.22,2.16-3.28C73.34,100,74.59,101.75,71.61,104.62Zm5.86-.76c-.68.58,1.91,2.32-2.86,4.07A12,12,0,0,0,73,105.85C75.79,101.53,76.73,104.37,77.47,103.86Z"/><path class="cls-63" d="M111.38,51.7a2.47,2.47,0,0,0-.16-3c-1.35-1.59-3.18-1.78-4.58.28.92-3.9-3.24-5.42-4.92-1.79a3,3,0,0,0-.61-2.18c-1.11-1.3-4-1.72-4.72,1.46a3.28,3.28,0,0,0-.64-1.68c-1.19-1.4-5-1.39-4.77,2.15a2.52,2.52,0,0,0-3.53-1.44c-.79,1.77-.23,2.85,1,3.59a3.11,3.11,0,0,0-1.38,0,2.77,2.77,0,0,0,.34,5.29,3.25,3.25,0,0,0-1.41.44,2.74,2.74,0,0,0,1.47,4.95,3.19,3.19,0,0,0-1.17.65A2.75,2.75,0,0,0,88.94,65c-3.38,1.92-.81,5.08,1,5.2a3.19,3.19,0,0,0,1.62-.4c-2.8,3.29,1.56,6.18,4.07,3.57-1.45,4.1,3.66,5.34,5.05,2,.16,3.89,4.32,3,5.16,1.4a3.06,3.06,0,0,0,.29-1.54c.66,1.48,1.77,2.28,3.55,1.43,1.53-.76,2.22-2,1.46-3.7a3.13,3.13,0,0,0,1.27.75c.82.17.8.21.69-.61a3.18,3.18,0,0,0-.69-1.49c3.52,2,5.12-2.38,3.78-4a3.41,3.41,0,0,0-1-.75c3.39.29,3.7-3.26,2.6-4.54a2.75,2.75,0,0,0-1.73-.87,3.19,3.19,0,0,0,1.26-.68c1.39-1.33.88-5.47-2.85-4.53,1.37-1,1.82-2.4.46-4.14A2.38,2.38,0,0,0,111.38,51.7Zm3.3,2.92c-.39.91-2,1.67-2.88,1.91a11.93,11.93,0,0,0-1.47-2.18s-.06,0-.1,0C113.76,49.72,115.09,53.71,114.68,54.62Zm-5.82,1a10.06,10.06,0,0,1-.15,13.34A10.1,10.1,0,0,1,95,67.3c-3.35-3.92-4.16-11-2.65-15.83l1.32.1-1-.6C97.76,49.81,105.27,51.38,108.86,55.6Zm7.8,4.49c-.74.73-2.74.8-3.55.65a12.46,12.46,0,0,0-.6-2.51C117.64,54.95,117.29,59.49,116.66,60.1Zm-3.77,5.09a12.74,12.74,0,0,0,.3-2.56c6.13-1.13,4,3,3.22,3.29S113.91,65.7,112.89,65.18Zm-.52,5.34A6.47,6.47,0,0,1,111,69.24a9.75,9.75,0,0,0,1.29-2.31c1.42.3,3.51.89,3.42,2.18C115.67,70.68,114.2,72,112.37,70.52Zm-6,1.91a11.69,11.69,0,0,0,2.33-1.17c3.89,4.08-.17,5.24-1.17,4.45C106.75,75.1,106.5,73.57,106.37,72.43Zm-4.46.59a10.18,10.18,0,0,0,2.7-.13c.74,2.17,1.06,4.1-1.33,4.23C101.07,77.11,101.34,75.13,101.91,73Zm-4.28-1.32a11.55,11.55,0,0,0,2.54,1,7,7,0,0,1-.26,1.78c-.55,2.39-2.65,2-3.45,1.11C95.59,74.49,96.62,73,97.63,71.71Zm-3.52-2.78a14.35,14.35,0,0,0,2,1.77c-.29.81-1.23,2.46-2.21,2.77S88.94,72,94.11,68.93Zm-2.64-3.88a16.74,16.74,0,0,0,1.47,2.44C91.65,68.76,90,70,88.88,68.67,87.24,66.74,89,65.59,91.47,65.06Zm-1.54-4.63a18.19,18.19,0,0,0,.83,3c-1.2.6-2.92,1.26-3.75.29C85.8,62.25,86.36,60.41,89.93,60.42Zm-3.44-4.78a5,5,0,0,1,3.17-.16,19.39,19.39,0,0,0,0,3.13C85.09,59.68,85.46,56.31,86.49,55.64Zm4.07-4.77a21.34,21.34,0,0,0-.67,2.91,9.48,9.48,0,0,1-1.62-.11,2.64,2.64,0,0,1-1.69-.73C85.82,52.06,85.79,48.44,90.55,50.87Zm-1-2.23c-3.44-1.51-.33-4.24.81-.73C90.82,49.22,90.76,49.16,89.58,48.64Zm5.83,0a22.37,22.37,0,0,0-2.92.44c-.52-1.33-1.08-3.11-.06-3.82a2.13,2.13,0,0,1,2.58.15C95.65,46.14,95.57,47.49,95.41,48.62Zm5,.29a18.16,18.16,0,0,0-3.18-.34c-.17-2,.06-3.76,2-3.54S101,47.09,100.37,48.91Zm5.57-1.46a4.6,4.6,0,0,1-1,3,17.68,17.68,0,0,0-2.88-1.15C102.77,44.27,105.72,46.45,105.94,47.45Zm2.9,5.63a19.84,19.84,0,0,0-2.29-1.7c.46-1.37,1.19-3,2.43-2.94C110.86,48.61,111.9,50.45,108.84,53.07Z"/><path class="cls-64" d="M143.07,322.73a2.92,2.92,0,0,0,1.2.42,3.06,3.06,0,0,0-1.12.65,2.7,2.7,0,0,0,2.3,4.62,3.19,3.19,0,0,0-1.07.92c-1.06,1.53-.16,5,3.22,4a3.22,3.22,0,0,0-1,1.2c-.73,1.71,1.11,5.1,4.16,3.17a2.63,2.63,0,0,0,.56,3.78c1.35-.14,2.55-.62,2.6-2.68a3.19,3.19,0,0,0,.76,1.22,2.75,2.75,0,0,0,4.33-3.11c2.16,3,5,.55,5.06-1.25a3.18,3.18,0,0,0-.33-1.36c3,2.54,5.7-1.35,3.88-3.77,3.37,1.77,5.1-2.22,3.53-4.06-.18.15-.15-.13-.67-.56,4.24.82,3.36-5.06,2.71-4.51a3,3,0,0,0-1.71-.91c3-.55,2.94-3.14,1.69-4.6a2.56,2.56,0,0,0-2.44-.78c1.85-1.18,1.72-2.75.53-4.14a2.45,2.45,0,0,0-3.43-.53,2.38,2.38,0,0,0,0-3.2c-1.28-1.5-3.1-1.83-4.51.11a3.37,3.37,0,0,0-.28-2.23,3.9,3.9,0,0,0-1.57,1.76c0-3.81-4.23-3.44-5.15-1.65a3,3,0,0,0-.3,1.32,3.27,3.27,0,0,0-.45-.73c-1.5-1.76-6.07-.8-4.48,3.07-2.47-2.42-7.12.71-3.66,4-3.83-1.79-5,2.49-3.77,4a3.21,3.21,0,0,0,1.35.89C141.21,317.68,141.53,321.71,143.07,322.73Zm18-11.37c8.84,3.43,7.33,14.44-.4,20a13.62,13.62,0,0,0-1.15.75,17.37,17.37,0,0,1-5.6,2.19c-.13-.13-.23-.31-.39-.5,0,.12,0,.28,0,.41C144.53,324.68,149.43,308.35,161,311.35Zm-12.28,3.53a11.85,11.85,0,0,0-1.14,2.49c-1.11-.12-2.56-.35-3.18-1.08-.83-1,.18-2.84,1.22-3S148.1,314.26,148.74,314.89Zm3-3.3a13,13,0,0,0-1.92,1.82,8,8,0,0,1-2.29-1.58c-1-1.13-.17-2.46,1.13-2.9S151,310.16,151.72,311.58Zm4-2.06a11.66,11.66,0,0,0-2.42,1c-3.81-4.71.55-4.93,1.3-4.34S155.59,308.36,155.67,309.52Zm4.39-.32a9.64,9.64,0,0,0-2.6,0c-.43-1.36-1-3.39.2-4C159.45,304.26,161.4,305.21,160.06,309.2Zm2.3-2a5.28,5.28,0,0,1-.24.76A4.79,4.79,0,0,1,162.37,307.19Zm2.76,4.52a10.2,10.2,0,0,0-2.09-1.5c.47-1.56,1.12-3.32,2.59-3.16a2.72,2.72,0,0,1,1.47.83C166.75,308.16,169.16,308.74,165.12,311.7Zm2.63,3.56a12.7,12.7,0,0,0-1.4-2.18c1.54-1.83,3.15-3.15,4.46-1.11C171.95,313.92,169.94,314.74,167.76,315.26Zm4.69,4c-.77.6-2.34.44-3.47.27a11.1,11.1,0,0,0-.51-2.59C173.83,314.2,173.14,318.75,172.44,319.29Zm-4,4.78a12.72,12.72,0,0,0,.52-2.67c2.44-.18,3.8.41,3.52.65C173.4,323.12,173.07,326.62,168.44,324.06Zm-2.09,4.19a16.33,16.33,0,0,0,1.44-2.49c1.42.41,3.14,1.11,3,2.44C170.59,330.1,169.1,331.05,166.35,328.25Zm-2.41,5a9.71,9.71,0,0,1-.88-1.31,19.37,19.37,0,0,0,2.17-2.19C169.82,332.78,165.88,335.48,163.94,333.21Zm-5,1.4a20.21,20.21,0,0,0,2.73-1.63l.37.43c-.29.25,2.58,2.27.18,3.66C160.51,338.08,159.57,336.46,158.91,334.61Zm-4.47,1.56a18.77,18.77,0,0,0,2.91-.85,9.93,9.93,0,0,1,.67,1.38c.58,1.4.37,2.42-1.06,2.87C155,340.25,154.53,338.22,154.44,336.17ZM152,337.74c.93-1,.9-1,1,.33C153.42,341.81,149.47,340.51,152,337.74ZM150,333.06a12.4,12.4,0,0,0,1.8,2.42c-1.16,1.46-2.64,2.72-3.82,1.34C146.52,335.08,148,333.91,150,333.06Zm-2-4.48a24.55,24.55,0,0,0,1.16,2.91c-1.25.88-2.88,1.7-3.74.7C144.34,330.88,144.6,329.24,148,328.58Zm-4.23-4.08c.72-.68,2.08-.72,3.2-.67a21.62,21.62,0,0,0,.52,3C142.65,329,143.12,325.12,143.8,324.5Zm-.48-2.83c-.67-.79-1-4.19,3.82-2.51a15.57,15.57,0,0,0-.24,2.84C145.65,322.26,144,322.49,143.32,321.68Z"/><path class="cls-65" d="M88.11,296.38a3.18,3.18,0,0,0-1.34.7c-1.36,1.26-1,5.11,2.48,4.6a2.64,2.64,0,0,0-1,3.67c1.32.43,2.6.47,3.48-1.41a3.22,3.22,0,0,0,.18,1.44,2.74,2.74,0,0,0,5.21-1,3.37,3.37,0,0,0,.6,1.49,2.73,2.73,0,0,0,4.73-2.08,3.25,3.25,0,0,0,.8,1.2c1.45,1.25,5.39.43,4.14-3.43,2.62,3.7,6.6.72,4.29-3,3.54,2.84,5.87-1.62,4.19-3.6-.17.15-.1-.11-.63-.55,3.59.86,4.14-3,2.94-4.4a3.43,3.43,0,0,0-1.7-.87c4-.54,2.23-5,1.83-4.66a2.54,2.54,0,0,0-2.38-.79c1.93-1.15,1.83-2.75.56-4.24a2.4,2.4,0,0,0-3.36-.51,3.39,3.39,0,0,0,.59-2.06,3.87,3.87,0,0,0-2,.9,2.51,2.51,0,0,0-.26-2.83,3.71,3.71,0,0,0-1.39-1,23.47,23.47,0,0,0,5.44,1c2,11.64,10.51,16.23,18,15,6.55-1.12,8.5-7.32,5.67-10.64-3.9-4.57-10,1.05-7.27,4.05l1-.86c-1.55-1.7,2.48-5.51,5.26-2.45,2.33,2.58.74,7.68-4.82,8.63-7,1.17-14.81-3.16-16.57-14.41-.25-1.68-7.39.79-13.21-5.64-4.16-4.59-5.33-13.24.06-15.79,3.75-1.78,7.46,1.76,5.21,4.87-.64.88-1.73,1.55-2.62.91l-.75,1c3.28,2.36,8.09-4.16,3.36-7.58-3.62-2.62-9.69,0-10.08,6.71-.35,6.21,3.26,12.54,10.9,15.09-1-.2-2.12.27-2.83,1.79a2.85,2.85,0,0,0-.6-2c-1.36-1.6-4.69-1.61-4.86,1.83a3.46,3.46,0,0,0-.59-1c-1.43-1.67-5.93-.85-4.5,3-2.34-2.49-7.1.48-3.83,3.86-3.62-1.9-5.06,2-4,3.62a2.91,2.91,0,0,0,.93.88,3.06,3.06,0,0,0-1.29.14c-1.78.59-3,4,.19,5.16a3.16,3.16,0,0,0-1.32.4C85.28,292.36,84.64,295.92,88.11,296.38ZM100.28,300a17.4,17.4,0,0,1-7-.23c-4.5-12.51,6.76-25.52,16.14-18,6.79,6.83.62,16.51-9,18.25ZM91.4,287.43a20,20,0,0,0-.73,3c-1.15,0-2.56-.11-3.16-.82C86.68,288.6,87.17,285.42,91.4,287.43Zm2.09-4.25a15.46,15.46,0,0,0-1.43,2.54,5.45,5.45,0,0,1-2.79-1.25c-.7-.82-.14-2.1.62-2.65C91,281,92.43,282.17,93.49,283.17ZM96.71,280a12.15,12.15,0,0,0-2.06,1.79c-3.57-2.16-2.7-3.89-.88-4.44C95.13,276.94,96.08,278.66,96.71,280Zm4.07-1.74a12.12,12.12,0,0,0-2.48.83c-3.84-5,1-4.85,1.66-4.07A5.84,5.84,0,0,1,100.77,278.22Zm4.43-.27a12.79,12.79,0,0,0-2.59,0c-1.7-5.92,2.49-4.36,2.94-3.52S105.6,276.85,105.21,278Zm5.88-1.6c.11,1-.92,2.2-1.7,3a9.49,9.49,0,0,0-2.37-1.08C107.65,272.35,111,275.37,111.08,276.35Zm1.87,7.37a13.9,13.9,0,0,0-1.33-2.15c1.07-1.27,2.42-2.64,3.7-1.9C117,280.69,117.29,282.72,113,283.72Zm1.08,4.34a10.26,10.26,0,0,0-.41-2.6c2.11-1,4.07-1.57,4.45.83C118.29,288.54,116.22,288.42,114,288.06Zm-.76,4.38a13,13,0,0,0,.64-2.55c1.57-.1,3.49,0,3.82,1.33C118.13,293.15,116.95,294.67,113.28,292.45Zm-2.27,4a12.12,12.12,0,0,0,1.51-2.27c1.06.39,2.89,1.23,2.63,1.45C116.3,296.93,114.51,300.92,111,296.41Zm-3.67,3a15.19,15.19,0,0,0,2.38-1.67,10.18,10.18,0,0,1,1.15,1.11c.53-.46.43-.38,0,0,1.56,1.9.16,3.28-1.14,3.42S107.8,300.72,107.34,299.37Zm-4.46,1.9a21,21,0,0,0,2.85-1.07,4.63,4.63,0,0,1,1,3.05C106.51,304.3,103.56,306.5,102.87,301.27Zm-4.89.87a24,24,0,0,0,3.1-.43c1.54,4.47-1.82,4.46-2.59,3.55A4.79,4.79,0,0,1,98,302.14Zm-4.76-.28a12.81,12.81,0,0,0,3,.34c.3,2.07.09,3.89-2,3.67S92.5,303.75,93.22,301.86Zm-2.86.31c1.18-.52,1.23-.6.82.73C90.06,306.43,86.94,303.69,90.37,302.17Zm-2.93-4.39c.71-.68,2.12-.72,3.17-.68a18.21,18.21,0,0,0,.66,2.87C86.2,302.61,86.81,298.35,87.44,297.78Zm-.09-5.55a4.54,4.54,0,0,1,3.11-.05,22,22,0,0,0,0,3.1C85.59,296.15,86.29,292.87,87.34,292.23Z"/><path class="cls-66" d="M30,175.59c.58,1.28,1.4,2.23,3.34,1.65a3.16,3.16,0,0,0-.91,1.09,2.77,2.77,0,0,0,4.14,3.29A3.24,3.24,0,0,0,36,183a2.7,2.7,0,0,0,4.7,2.12,3.28,3.28,0,0,0-.35,1.41,2.74,2.74,0,0,0,5.17,1c-.38,1.62,0,3,1.87,3.36,2.06.48,3-.56,3.43-2.22.46,4.4,5.45,3.21,5.4-.25a2.4,2.4,0,0,0,3.59,1.2c2.11-1,2-2.59.93-4.26,3.5,3.24,6.07-1.27,4.29-3.35-.15.13,0,0-.42-.42,4.33,1.31,3.84-5.11,3-4.4a2.89,2.89,0,0,0-1.31-.82,4,4,0,0,0,1.93-.92,3.76,3.76,0,0,0-2.14-.95c2.68-.89,2.53-3.18,1.29-4.63a2.4,2.4,0,0,0-2.85-.6c1.23-1,1.64-2.34.27-3.94a2.35,2.35,0,0,0-3.75-.27,2.48,2.48,0,0,0-.26-2.89c-1.46-1.71-3.52-1.86-4.74.68a2.8,2.8,0,0,0-5-2.21,3,3,0,0,0-.43,1.26,3.12,3.12,0,0,0-.55-1c-1.36-1.6-5.35-1.1-4.68,2.51a4.37,4.37,0,0,0-.27-.41c-1.7-2-6.11-.66-4.4,3.05-2.45-2.2-6.58.2-3.8,3.75-3.45-2.27-6.49,1.49-3.27,4.16A2.72,2.72,0,0,0,30,175.59Zm7.57.17c.95.31.82.28.1-.55,4.34-7.57,15.55-12.39,21.7-5.17,4.43,5.19,1.57,11.53-3.87,13.78C48.74,186.63,40.62,181.13,37.57,175.76Zm0-4.08.15.17a17.81,17.81,0,0,0-1.69,2.4,6.3,6.3,0,0,1-2.52-1.45C32.34,171.41,34.42,168,37.59,171.68Zm3.69-3.21a22.13,22.13,0,0,0-2.35,2.06,12.15,12.15,0,0,1-1.43-1.3C35.71,167.12,38.73,163.85,41.28,168.46ZM45.46,166a20.44,20.44,0,0,0-2.71,1.44l-.3-.36c-1.13-1.33-1.93-2.93-.36-3.72C44,162.32,44.89,163.93,45.46,166ZM50,164.64a15.3,15.3,0,0,0-2.82.64C44.35,160.18,50,159,50,164.64Zm4.53.22a12.83,12.83,0,0,0-2.15-.32c-.19,0-.38,0-.56,0-.32-1.47-.52-3.29.64-3.87C54.21,160,56,161.06,54.5,164.86Zm4.06,1.83a11.63,11.63,0,0,0-2.31-1.28c.24-1.5.69-3.37,2-3.45C60,161.83,61.66,163.59,58.56,166.7Zm6,1.05c-.36,1-1.81,1.68-2.91,2.13a11.56,11.56,0,0,0-1.65-2C63.23,162.64,64.86,166.93,64.56,167.75Zm.73,6.09a11.67,11.67,0,0,1-2,.09,10.94,10.94,0,0,0-.74-2.42c1.15-.87,3-2.06,4-1.12C67.61,171.46,67.63,173.45,65.29,173.83Zm-2.6,5.73a9.67,9.67,0,0,0,.7-2.51c3.07-.09,3.2.91,3.84.46-.61.52-.23.14,0,1a2.54,2.54,0,0,1-.66,2C65.65,181.5,63.87,180.41,62.69,179.57Zm-1.57,5.07a8.25,8.25,0,0,1-1.06-1.37,10.34,10.34,0,0,0,1.77-2.09c.92.41,2.68,1.27,2.44,1.47C65.51,184.09,63.37,187.27,61.12,184.63Zm-4.79.92a14.3,14.3,0,0,0,2.31-1.24c1.11,1.1,2.4,2.53,1.58,3.73C59.09,189.59,57.13,189.84,56.33,185.56Zm-4.49.93a12.06,12.06,0,0,0,2.71-.35c1.62,4-.47,4.84-2.07,4.19C51.36,189.78,51.54,187.92,51.85,186.49Zm-4.64-.72a15.25,15.25,0,0,0,2.82.63c0,4.21-2.19,4.14-3.34,3.1C45.81,188.68,46.51,187,47.2,185.77Zm-4.41-2.06a21,21,0,0,0,2.72,1.42c-.27,1-.75,2.32-1.59,2.79C42.77,188.58,39.47,187.38,42.79,183.71Zm-5.88-.6a4.78,4.78,0,0,1,2-2.43,24.13,24.13,0,0,0,2.41,2C38.94,187,36.74,184.24,36.92,183.11Zm-1-6.16a12.77,12.77,0,0,0,1.75,2.46c-1.2,1.45-2.7,2.59-3.9,1.17C32.29,178.86,33.84,177.74,35.91,176.95ZM33.77,175c1.18.54,1.27.52,0,1.09C30.42,177.65,30.37,173.51,33.77,175Z"/><path class="cls-67" d="M45.34,246.66c1,.92,2.16,1.49,3.73.14a3.19,3.19,0,0,0-.4,1.38,2.74,2.74,0,0,0,5.19,1.14,3.43,3.43,0,0,0-.07,1.65,2.71,2.71,0,0,0,5.17.05,3.24,3.24,0,0,0,.25,1.4,2.73,2.73,0,0,0,5.13-1,3.16,3.16,0,0,0,.59,1.43c-.9.77,5.71,2.16,4.71-2.74,2.26,3.95,6.48.84,4.73-2.53,3.37,2.69,5.72-1.7,4-3.68-.15.13-.06-.06-.48-.45,4.23,1.12,3.77-5.11,2.95-4.41a3,3,0,0,0-1.41-.84,3.1,3.1,0,0,0,1.39-.45c1.7-1.14,1.58-5.33-2.2-4.95A3.32,3.32,0,0,0,80.19,231,4,4,0,0,0,78,231c1-.91,1.67-2.26.19-4-1.31-1.54-2.62-1.26-3.8-.17a2.46,2.46,0,0,0-.24-2.83c-1.43-1.68-3.51-1.87-4.7.53a2.8,2.8,0,0,0-.56-2c-1-1.13-4.71-2.1-4.87,1.79a3.48,3.48,0,0,0-.62-1.19c-1.36-1.6-5.72-.93-4.63,2.76-2.14-2.45-6.77.05-4.12,3.58-3.28-2-6.22,1.4-3.37,4.09a3.3,3.3,0,0,0-1.52-.22c-1.76.23-3.84,3.21-.94,5a3.14,3.14,0,0,0-1.43.12c-1.73.6-3.06,4.28.45,5.23A2.63,2.63,0,0,0,45.34,246.66Zm6.82-3.18c.5-6,5.3-13.75,11.86-14.73,9.14-1.38,14.37,8.32,8,15.06-5,5.31-14.73,3.58-19.68-.09C52.34,243.69,52.28,243.61,52.16,243.48Zm-1.32-3.36a18.06,18.06,0,0,0-.55,2.85c-1.19.08-2.75,0-3.39-.7S46.39,238,50.83,240.12Zm1.89-4.6a21.94,21.94,0,0,0-1.32,2.85,5.53,5.53,0,0,1-2.75-1.26C47.67,236,48.91,232.58,52.72,235.52Zm2.81-4A20.19,20.19,0,0,0,53.65,234a6.4,6.4,0,0,1-2.22-1.43C50.28,231.21,52.12,227.51,55.53,231.57Zm3.62-3a15.57,15.57,0,0,0-2.31,1.72c-3-2.3-2.35-4-.43-4.45C57.7,225.57,58.59,227.19,59.15,228.55Zm4.22-1.63a11.9,11.9,0,0,0-2.62.79c-3.56-5,1.31-4.61,1.87-4A5.46,5.46,0,0,1,63.37,226.92Zm4.44,0a12,12,0,0,0-2.61-.19c-.39-1.5-.78-3.38.43-4S69.45,222.55,67.81,226.92Zm5.92-1.48c.09,1-1,2.3-1.79,3.12a11.23,11.23,0,0,0-2.32-1.15C70.45,221.32,73.66,224.56,73.72,225.44Zm3.14,5.26a4.67,4.67,0,0,1-1.84.92,10.77,10.77,0,0,0-1.62-1.93c.71-1.26,1.94-3.12,3.16-2.65C78,227.62,78.82,229.42,76.86,230.7Zm1.36,1.2a5,5,0,0,1-.72.32A5.44,5.44,0,0,1,78.22,231.9ZM76.77,237a9.91,9.91,0,0,0-.43-2.51c1.47-.71,3.29-1.45,4.16-.24C81.6,235.79,81,237.78,76.77,237Zm-.87,4.38a10.61,10.61,0,0,0,.74-2.51c3.48,0,3.72,1.07,3.48.79C80.92,240.56,80.6,244.5,75.9,241.34Zm-2.45,3.72A13.6,13.6,0,0,0,75,243c1,.41,2.88,1.28,2.62,1.49C78.83,245.86,76.85,250,73.44,245.06Zm-3.69,2.66a12,12,0,0,0,2.32-1.43c1.14,1.06,2.38,2.45,1.64,3.64C72.56,251.56,70.71,251.71,69.76,247.72ZM65.2,249a15.29,15.29,0,0,0,2.83-.57c1.75,3.82-.32,4.68-1.79,4.19C65.09,252.19,65.07,250.39,65.2,249Zm-4.83-.08a21,21,0,0,0,3,.18c.16,1,.26,2.41-.32,3.19S58.88,253.78,60.37,248.88Zm-4.85-1.19a24.1,24.1,0,0,0,3,.87c-.15,2-.77,3.81-2.66,3.2S54.58,249.41,55.52,247.7Zm-4.23-2.2A12.71,12.71,0,0,0,53.88,247c-.56,2-1.51,3.58-3.35,2.52S49.87,246.94,51.29,245.5Zm-2.73-.88c1.29,0,1.38,0,.45,1C46.54,248.38,44.81,244.61,48.56,244.62Z"/><path class="cls-68" d="M144.74,83.76c3.3,3.87.76,9.42-3.72,8.66a3.25,3.25,0,0,1-2.66-3.74l1.27.22c-.52,3,4.64,3.2,5.24-.32,1.5-8.91-17.37-8.23-11.41,7.68-15.13-7.49-17.86,11.21-8.77,10.59,3.54-.24,3.93-5.4.83-5.18l-.09-1.28c4.87-.33,4.56,7.39-.65,7.75-11,.76-7.67-19.35,6.48-14.3C128.59,83.08,140.16,78.39,144.74,83.76Z"/><path class="cls-69" d="M114.85,117.67c5,5.92-4.38,11.36-5.87,5.52l1.24-.32a2,2,0,0,0,2.39,1.41c4.75-1.22,1.72-8.73-3.67-7.35-6,1.54-7.55,8.91-2.49,14,1.48,1.51,1.56,1.18-.48,1.09-7.31-.29-11.52,5.92-8.68,11.28,1.93,3.63,7.2,3.22,8.13.16.69-2.22-1.11-4.16-2.88-3.21l-.6-1.13c4.31-2.29,7.18,4.9,2.55,7.34-9.76,5.17-14.89-14.53.11-15.7C96.82,120.81,109.11,110.94,114.85,117.67Z"/><path class="cls-70" d="M101.32,160.79c3.52,4.13-2.05,9.73-5.15,5.88l1-.8a2,2,0,0,0,2.76.32c3.83-3-2-8.7-6.34-5.22-4.8,3.81-3.31,11.18,3.42,13.81,2,.77,1.92.43,0,1.19-13,5.18-2.43,20.59,3.51,13,2.2-2.81-1.39-6.52-3.29-4.09l-1-.79a3.25,3.25,0,0,1,4.56-.56c5.27,4.13-2.2,11.74-7.89,7.28C88,187,88.29,179.16,95.26,175.39,82.21,168.41,94.27,152.52,101.32,160.79Z"/><path class="cls-71" d="M109,235c-6-1.51-9-8.76-4.11-15.07-7.87-.56-11.44-7.51-8.52-13.09,2-3.92,7.35-4.25,9.64-1.56,2.83,3.32-.35,8.12-3.83,6.31l.6-1.14c2.73,1.43,4.49-3.43,1.32-5.08-8.12-4.23-13,14,3.78,13.22C96.06,230.71,113,239,115.22,230.2c.87-3.44-3.92-5.41-4.67-2.4l-1.25-.31a3.25,3.25,0,0,1,3.94-2.36C119.75,226.76,116,236.75,109,235Z"/><path class="cls-72" d="M125.2,242.45c5.26.32,5.55,8.05.7,7.74l.08-1.28c3,.19,2.71-5-.86-5.18-9-.57-6.33,18.14,8.83,10.53-5.86,15.83,13,16.59,11.45,7.61-.61-3.49-5.79-3.36-5.24-.29l-1.27.22c-.83-4.73,6.86-5.34,7.77-.16,1.9,10.88-18.44,9.67-14.9-5C117.7,261.84,114.08,241.76,125.2,242.45Z"/><path class="cls-73" d="M179.9,281.14c-2.58-3.83,3.55-7.45,6.73-3.71,7.45,8.74-12.48,17.38-15.32,1.94-10.82,10.41-22.17-6.48-11.8-10.35,4.91-1.82,8.36,5.09,3.79,6.79l-.45-1.2a2,2,0,0,0,1.16-2.52c-1.72-4.63-8.86-.77-6.92,4.42,2.12,5.7,9.57,6.65,14.2,1,1.34-1.63,1-1.69,1.14.37.48,7.31,7.1,10.83,12.13,7.45,3.38-2.28,2.48-7.48-.69-8.11-1.32-.26-2.93.37-3.2,1.73C180.33,280.64,181.73,279.9,179.9,281.14Z"/><path class="cls-74" d="M225.89,281l-.68,1.09c-4.66-2.91,1.94-10,6.5-4.66,6.11,7.16-7.47,17.63-15.07,6.54-5.59,13.87-22.88,3.08-15-4.66,3.73-3.67,9.71,1.25,6.22,4.66l-.9-.92c1.36-1.33.24-3.69-2.19-3.72-3.21,0-5.18,4.88-2.31,7.8,4.3,4.38,11.47,2.11,13.38-4.85.56-2,.23-2,1.19-.13,6.5,12.35,20.78.31,12.56-4.85C226.59,275.44,223.25,279.38,225.89,281Z"/><path class="cls-75" d="M207.2,66.08a3.25,3.25,0,0,1,.08,4.59c-4.67,4.82-11.43-3.43-6.42-8.61,4.37-4.51,12.12-3.31,15.11,4,4.07-6,11.13-6.21,14.87-1.82,4.09,4.79,0,11.07-4.52,10.08-3.42-.76-4.42-4.75-1.77-6.44l.68,1.09c-2.6,1.65.73,5.6,3.75,3.68,7.73-4.92-5.6-18.26-13.34-3.33-4.59-16.23-20.28-5.77-13.74.57,2.56,2.48,6.65-.7,4.41-2.85Z"/><path class="cls-76" d="M162.23,75.75l.44-1.21c4.57,1.66,1.17,8.6-3.75,6.81-10.39-3.79.87-20.81,11.74-10.42,1.61-9.09,11.1-10.77,15.19-6s-.8,11.92-5.7,8.66a3.25,3.25,0,0,1-.91-4.5l1.07.71c-1.11,1.66.62,3.65,2.91,3.18,3.15-.64,4.05-5.84.64-8.11-5.08-3.37-11.65.27-12.08,7.52-.12,2.1.18,2-1.14.37-4.59-5.63-12.12-4.56-14.19,1.1-1.4,3.83,2.39,7.52,5.32,6.15C163.86,79.07,164.13,76.45,162.23,75.75Z"/><path class="cls-77" d="M115.6,216.44c2,.91,7.1,2.51,17.9,10.77,4.49,12.51,4.62,17.93,4.86,20.24a10.63,10.63,0,0,1-.43,1.47c-.7,1.91-1,1.73.89.79.21-.1.36-.16.54-.24a3,3,0,0,0,.69-.29l.13,0c2.27,0,7.62-.55,20.72,2.57,9.38,9.81,11.56,14.68,12.69,16.6a11.19,11.19,0,0,1,.19,1.43c.13,2-.2,2,1.14.36a10.48,10.48,0,0,1,1.12-1.17c2.17-1,6.95-3.56,19.86-6,12.11,5,16.26,8.45,18.17,9.87a24.6,24.6,0,0,1,1.68,2.8,31.22,31.22,0,0,1,1-3c1.55-1.76,4.82-6.08,15.73-13.61,13.19-.4,18.4,1.12,20.71,1.62a20.54,20.54,0,0,1,2.59,1.88,25.24,25.24,0,0,1-.31-3.24c.7-2.27,2-7.54,8.79-18.73,11.85-5.72,17.21-6.42,19.52-6.9a24.75,24.75,0,0,1,3.18.62,23.56,23.56,0,0,1-1.66-3c-.29-2.46-1.17-7.85.47-20.52,8.5-10,13.11-12.86,15-14.24a24.8,24.8,0,0,1,3.16-.73,21.82,21.82,0,0,1-2.64-1.91c-1.21-2.06-4.26-6.56-8-19.09,3.75-12.85,6.85-17.25,8-19.24a21.46,21.46,0,0,1,2.53-1.83,25.08,25.08,0,0,1-3.25-.73c-2-1.4-6.6-4.3-15-14.12-1.77-13-.79-18.35-.53-20.7a24.68,24.68,0,0,1,1.57-2.83,24,24,0,0,1-3.3.65c-2.4-.48-7.8-1.28-19.43-6.79-7.08-11.44-8.23-16.67-8.94-18.82a23.62,23.62,0,0,1,.33-3.1,23.27,23.27,0,0,1-2.82,2c-2.42.55-7.7,2-20.45,1.67-10.88-7.42-14.21-11.7-15.79-13.46a20.5,20.5,0,0,1-1-3.06,25.37,25.37,0,0,1-1.66,2.8c-1.9,1.42-6,4.95-18.12,10-13.22-2.39-17.89-5-20-5.95a21.6,21.6,0,0,1-2.08-2.31,24.35,24.35,0,0,1-.4,3.37c-1.2,2.15-3.64,7-12.46,16.36-13,3.17-18.37,2.69-20.66,2.69a23.53,23.53,0,0,1-2.85-1.27,24.19,24.19,0,0,1,1,3.18c-.22,2.42-.42,7.86-4.71,20.07-10.48,8.11-15.59,9.92-17.74,10.86a20.85,20.85,0,0,1-3.16,0,24.75,24.75,0,0,1,2.16,2.45c.78,2.26,2.84,7.28,3.9,20.31-6.31,11.73-10.25,15.43-11.81,17.15a21,21,0,0,1-2.87,1.27,24.35,24.35,0,0,1,3,1.37c1.65,1.76,5.57,5.53,11.79,17-1,13-3,18.07-3.71,20.36a10.45,10.45,0,0,1-1.07,1.28c-1.42,1.46-1.61,1.18.49,1.09A10.9,10.9,0,0,1,115.6,216.44Zm29.69,30.87c-.17-1.92.14-3.92,2.09-3.76,1.79.16,1.68,2.21,1.19,4C147.29,247.43,146.21,247.35,145.29,247.31Zm5.14.48c-.17-5.46,4.76-4.7,3.21.48C152.47,248.07,151.41,247.91,150.43,247.78Zm5.09.82c0-2,.44-4,2.41-3.67s1.46,2.5.75,4.31C157.56,249,156.52,248.79,155.52,248.61Zm39.25,12.63c-1-2.51-1-4.74,1.81-4.41,1.68-.12,2.83,1.54.73,4.66l-1.23-.51Zm4.34,1c.47-1.84,1.41-3.88,3.13-3.06s1,2.77-.19,4.39C201.15,263.14,200.18,262.71,199.12,262.25Zm4.65,2.14c.57-1.8,1.6-3.65,3.22-2.79s.9,2.76-.31,4.29C205.82,265.41,204.85,264.91,203.77,264.39Zm4.55,2.39c.65-1.74,1.76-3.49,3.31-2.58s.78,2.8-.5,4.28C210.36,268,209.44,267.42,208.32,266.78Zm21.58-8.34-.06-.13.1.1Zm.76-.53c-.16-.16-.36-.38-.7-.77-1.5-1.76-1.62-3.31.6-4,1.55-.8,3.2.31,2.56,4l-1.33,0Zm4.42-.86c-.32-1.87-.28-4.12,1.62-4.07s2,2.13,1.61,4.08C237.3,257,236.23,257,235.08,257Zm5.12.06c-.21-1.86,0-4,1.81-3.86s1.94,2.14,1.46,4C242.48,257.2,241.41,257.14,240.2,257.09Zm5.12.34c-.12-1.85.19-3.9,2-3.7s1.85,2.24,1.28,4.12C247.69,257.71,246.6,257.56,245.32,257.43ZM295.49,151.6c-1.13,1.85-2.71,3.24-4.13,1.58-1-1.15.34-2.67,1.63-3.71C293.94,150.32,294.78,151,295.49,151.6Zm-3.87-3.4c-1.18,1.75-2.75,3.07-4.13,1.45-1-1.23.4-2.74,1.8-3.75C290.13,146.76,290.9,147.51,291.63,148.2Zm-6.45-6.76-.08,0,.06-.07Zm-7.07-24.71c-.77,5.28-5.68,4.15-3.1-.94C276.2,116.18,277.23,116.49,278.11,116.72Zm-4.91-1.55c-1,5.3-5.88,3.92-3-1.13C271.28,114.47,272.27,114.84,273.2,115.17Zm-4.82-1.86c-1.17,5.32-6.1,3.71-2.93-1.25C266.49,112.52,267.45,112.93,268.38,113.31ZM248.06,92c1.45,5.15-3.43,5.88-3.22.42C246.1,92.28,247.16,92.13,248.06,92Zm-5.11.6c1.2,5.09-3.73,5.82-3.23.19C240.89,92.73,242,92.66,242.94,92.58Zm-10.32.26c.5,2.68,0,4.77-2.69,3.93-1.67-.23-2.44-2.12.26-4.71l1.09.76Zm-4.05-1.92C226,96,221.83,92.86,226,89,226.8,89.63,227.65,90.26,228.57,90.92Zm-4.06-3a6.65,6.65,0,0,1-1,1.38c-2.1,2.5-5.6,0-1.56-3.45Q223.1,86.76,224.52,87.88Zm-4-3.32c-1.11,1.77-2.66,3.23-4,1.65-1.1-1.29.21-2.81,1.63-3.88C218.81,83,219.58,83.7,220.55,84.56Zm-23.76,4.09c1.55,2.25,1.92,4.39-.86,4.69-1.59.47-3.1-.9-1.68-4.41l1.31.26Zm-4.48-.11C192,94.29,187,93,189.2,87.85,190.17,88.07,191.19,88.3,192.31,88.54Zm-5-1.15c-.62,5.71-5.37,4-3.11-.85C185.14,86.81,186.17,87.1,187.31,87.39ZM182.37,86c-.88,5.58-5.53,3.63-3.06-1.05C180.16,85.24,181.16,85.59,182.37,86Zm-29.18,16.17c1.72,5.42-3.27,5.73-3.21.51C151,102.52,152,102.36,153.19,102.15Zm-5.08.74c1.41,5.39-3.51,5.49-3.24.28C145.77,103.12,146.85,103,148.11,102.9Zm-38,70.09c3,1.61,3.27,3,0,4.74C108.09,175.48,108.09,175.39,110.06,173Zm1.22,6.22c2.67-2.85,4.39-1.38,4.11-1.15,1.26,1.48-.34,2.81-2.11,3.71C112.52,180.73,111.86,179.9,111.28,179.2Zm8.85,32.11c3.53,0,4.29-3.81,1-5.15,3.74-.06,4.38-4.05.77-5.2,3.8-.16,4.55-4,.93-5.11,4.64-.47,3.12-7.17-1.09-6A2.49,2.49,0,0,0,122,186a2.92,2.92,0,0,0-3-.76,2.46,2.46,0,0,0,.12-3.6c-.2.17-1.08-1.53-3.08-.78a2.34,2.34,0,0,0,.05-3.44c-.21.18-1.17-1.63-3.21-.77a3.23,3.23,0,0,0,.64-1.32,3.54,3.54,0,0,0-.81-1.5,2.66,2.66,0,0,0,3.35-4.05c0-.05-.11-.1-.16-.15a2.66,2.66,0,0,0,3.24-4.08,4.57,4.57,0,0,0-.49-.45c3.36,1.23,5.44-1.91,2.86-4.31,4.24,1.2,5.84-5.6,1.2-6,3.38-1.17,2.86-5-.85-5.15,3.4-1.26,2.8-5.13-.89-5.16,3.21-1.4,2.48-5.16-1.06-5.13a2.17,2.17,0,0,0,1.32-2.75,2.59,2.59,0,0,0,3.47.64,2.44,2.44,0,0,0,1.09-3.29c2.43,2.37,5.65.27,4.27-3.05,2.55,2.57,5.82.53,4.36-2.81,3.43,2.92,8-2.82,3.32-5.07,3.9.55,5-3.33,1.6-5,3.58.42,3.79-2.95,2.7-4.23-.16.13-.26-.34-1.06-.78a2.66,2.66,0,0,0,2.17-4.35c-.23.19-.27-.36-1.13-.81a2.18,2.18,0,0,0,2.12-2.1c1.11,3.33,4.93,3,5.14-.77,1.12,3.48,5,3.13,5.21-.55,1.31,3.37,5.21,2.76,5.15-1,1.84,4.44,8,.86,5.31-2.92,3.22,1.93,5.29-1.72,3.53-4,3.08,1.4,5.32-1.66,3-4.32,3.23,1.5,5.52-1.58,3.14-4.18a2.17,2.17,0,0,0,2.92-.84,2.58,2.58,0,0,0,1.84,3,2.53,2.53,0,0,0,3.2-1.39c-.11,3.46,3.65,4.54,5.16.92-.35,3.87,3.58,5,5,1.42-.13,4.93,7.16,4.21,5.95-.61,2.15,3.16,5.55,1.23,4.65-2.29,2.21,2.91,5.71,1.1,4.7-2.35,2.28,2.52,5.56.66,4.57-2.58a2.19,2.19,0,0,0,3.17.28c-1.73,3,1,5.54,3.84,3.42-1.65,3.1,1.31,5.76,4.18,3.19-1.63,3.2,1.23,6,4,3.51-1.8,4.15,4.7,6,5.89,2.08.94,3,4.54,3,5.15-.42,1,3.24,4.85,3.1,5.26-.5,1.07,3.31,4.9,3,5.21-.56a2.2,2.2,0,0,0,2.78,1.58c-3,2.07-1.25,5.54,2.22,4.74-3,2.15-1.26,5.6,2.08,4.82a2.65,2.65,0,0,0-.45,4.08,2.51,2.51,0,0,0,3,.59,3,3,0,1,0,4.64,3.77c-.89,3.72,2.85,5.32,4.86,2-.73,3.69,3,5.05,4.85,1.94-.32,3.38,3.29,4.71,5,1.61a2.22,2.22,0,0,0,1.87,2.55c-3.62.69-3.38,4.63.51,5.17-4.17.57-4,5,.24,5.26-4,.78-3.92,5,0,5.25-4.8,1.39-1.69,8.19,2.51,5.47-2.21,3,.36,5.85,3.42,3.87-1.88,2.94.85,5.64,3.78,3.63a2.46,2.46,0,0,0,0,3.21,2.56,2.56,0,0,0,3.94.34,2.2,2.2,0,0,0,.66,3c-3.62-.83-5,3-1.47,5-4.1-1.26-5.81,2.75-2.21,4.76-3.87-.82-5.35,3-1.9,4.86-4.93-.79-4.8,6.43-.29,6.08-3.2,1.84-1.5,5.34,1.94,4.88-3.2,2-1.51,5.48,2.06,4.77-1.9,1.19-2,2.87-.85,4.21a2.55,2.55,0,0,0,2.6.78,2.09,2.09,0,0,0-.39,3c-2.84-2-5.85.57-3.59,3.81-3.1-2.45-6.14.3-3.89,3.49-3-2.08-6,.72-3.7,3.77-4.13-2.46-7.09,4.16-2.39,5.5-3.93.31-4,4.44,0,5.22-4.24.29-4.16,4.56-.19,5.23-4,.48-3.92,4.45-.3,5.17a2.22,2.22,0,0,0-2,2.51c-1.78-2.77-5.46-1.8-4.87,1.9-1.86-3.23-5.71-2-4.91,1.85-2-3.35-5.88-1.77-4.81,2.11-2.79-4.26-8.4.7-4.4,3.9-3.81-1.46-5.53,2.33-2.25,4.69-4-1.46-5.7,2.47-2.37,4.7-3.75-1.09-5.39,2.51-2.54,4.6a2.16,2.16,0,0,0-2.65,1.57c-.33-3.59-4.16-3.91-5.17-.27-.29-3.82-4.34-4.21-5.24-.44-.51-3.68-4.52-4-5.26-.25-1-4.52-7.91-2.5-5.6,2.06-2.69-2.57-6-.33-4.32,3-1.06-1-2.28-1.33-3.58-.23a2.6,2.6,0,0,0-.53,3.6c-2.65-1.84-5.63.55-3.73,3.62a2.18,2.18,0,0,0-3.15.11c.88-3.25-2.36-5.14-4.69-2.17,1.22-3.64-2.37-5.8-4.69-2.4,1.16-3.76-2.41-5.7-4.61-2.45,1.16-4.72-5.82-5.48-5.94-.83-.23-.71-.48-1.11-.61-1a2.66,2.66,0,0,0-4.59,2.19c-1.64-2.94-5.25-1.88-5,1.61a2.46,2.46,0,0,0-3.23-1.5,2.61,2.61,0,0,0-1.84,3,2.18,2.18,0,0,0-2.84-.85,2.56,2.56,0,0,0,.16-3.81,2.44,2.44,0,0,0-3.13-.55,2.56,2.56,0,0,0,0-3.64,2.44,2.44,0,0,0-3.22-.53,2.55,2.55,0,0,0-.07-3.51c-1.1-1.29-2.42-1.12-3.66-.29,2.75-3.89-3.44-7.5-5.23-2.85.17-4-3.84-4.5-5.13-.81.05-3.92-4-4.19-5.23-1-.34-3.62-4.13-3.79-5.16-.36a2.24,2.24,0,0,0-2.38-2.27c3.28-1.46,2.47-5.23-1.28-5,3.52-1.51,2.56-5.44-1.24-5.1,3.47-1.66,2.29-5.53-1.51-5a3,3,0,1,0-3.41-4.88c1-2,.14-3.24-.06-3.06a2.68,2.68,0,0,0-4.14-.16,2.5,2.5,0,0,0-.28-2.68c-1.21-1.42-3-1.34-4.41.13,1.13-3.41-2.15-5.19-4.43-2.68A2.22,2.22,0,0,0,120.13,211.31ZM137.76,234c1.74-.78,3.77-1.25,4.21.53s-1.48,2.51-3.37,2.64C138.37,236.23,138.09,235.18,137.76,234Zm1.26,5c5.19-2,5.93,3,.58,3.2C139.46,241.32,139.28,240.27,139,239Zm1.57-9.6c.54,1.9-1.43,2.59-3.37,2.79-.3-1-.62-2-1-3.08C137.94,228.23,140,227.61,140.59,229.42ZM172.51,263c-.48-.77-1.07-1.66-1.82-2.71,1.23-1.25,2.91-2.43,4-1.19C176,260.71,174.44,262.1,172.51,263Zm-2.94-4.23q-.89-1.16-2-2.53C171.33,252.07,174.19,256.2,169.57,258.76ZM255,250.23a8.78,8.78,0,0,1,1.39.69c-.52,1.2-.93,2.23-1.24,3.1C249.79,252.74,252.17,249,255,250.23Zm28.4-37c-.13,1.14-.23,2.19-.32,3.19C277.4,217,278,211.84,283.44,213.21Zm-.61,10.24c0,1.28.07,2.35.13,3.25C277.5,227.71,277.39,222.68,282.83,223.45Zm.15-5.13c-.08,1.19-.12,2.27-.14,3.25C277.35,222.28,277.64,217.32,283,218.31Zm14.22-27.82c-1.3.9-3,1.7-4,.6-1.66-1.95,1.07-3.26,2.53-3.57C296.29,188.7,296.78,189.68,297.2,190.49ZM295,185.82c-1.29.81-3,1.52-3.91.48-1.75-2,1.24-3.32,2.71-3.53C294.25,183.9,294.65,184.91,295,185.82Zm-5.82-4.41c-1.57-1.84.38-3.08,3-3.48.35,1.1.69,2.11,1,3.06C291.89,181.75,290.1,182.45,289.21,181.41Zm2-6.63c.13.45.26.85.39,1.27-3.64,2-5.21.18-4.48-2.16.59-1.92,2.71-1.36,4.48-.41C291.47,173.92,291.34,174.32,291.22,174.78ZM298,157.37c-3.32-.93-3.87-2.22-1-4.62C299.73,154.82,299.66,154.56,298,157.37Zm-4.9,11.2c-.32.95-.65,2-1,3a5.54,5.54,0,0,1-3.15-1.27C288.06,169.25,289,166.24,293.13,168.57Zm-2.25-3.13c-1-1.16.14-4.11,4.05-1.71-.37.91-.76,1.91-1.17,3A5.47,5.47,0,0,1,290.88,165.44Zm2.09-4.81c-1-1.2.19-4.29,4.14-1.59-.43.81-.91,1.78-1.44,3A5.6,5.6,0,0,1,293,160.63Zm-10.43-32.57q0,1.47.16,3.25C277.06,132.44,277.3,127.48,282.54,128.05Zm.1-5.14c-.07.9-.12,2-.12,3.25C276.85,127.06,277.44,122.05,282.65,122.92Zm.56,13.49c-5.73,1.53-5.81-3.66-.34-3.19C283,134.21,283.06,135.26,283.2,136.4ZM254.71,95.77c.32.85.72,1.84,1.25,3-1.27.84-3,1.66-3.89.65C250.57,97.68,252.29,96.37,254.71,95.77Zm4.42,9.3c.49.88,1,1.8,1.6,2.8-1.27,1-3.11,2.15-4.08,1C255.17,107.13,256.92,105.8,259.13,105.07Zm-4.87-.86c-1.49-1.74.22-3.07,2.49-3.72q.64,1.33,1.48,2.92C257,104.33,255.17,105.27,254.26,104.21ZM167,94.07c.75-.91,1.42-1.76,2-2.53C173.85,94.15,170.79,98.14,167,94.07ZM170.15,90c.75-1.05,1.33-1.94,1.82-2.71,1.82.83,3.41,2.11,2.29,3.73S171.47,91.35,170.15,90Zm-31,18.26c2.06.07,3.5.75,3.24,1,.81,1,.49,3.87-3.79,2.23C138.9,110.23,139.07,109.17,139.19,108.27Zm-1,5c1.93.12,3.79.75,3.36,2.62s-2.48,1.32-4.19.57C137.74,115.34,138,114.28,138.24,113.31Zm2,7.77c-.53,1.81-2.69,1.16-4.35.31.37-1.1.69-2.12,1-3.09C138.86,118.5,140.77,119.19,140.24,121.08Zm-22.52,19.67c2.7-1.11,4.08-.3,3.81-.07,1.06,1.25.64,3-3,3.23C118.22,142.67,118,141.63,117.72,140.75Zm1.14,5c2.63-1,4-.17,3.76.05,1.11,1.3.52,3.15-3.22,3.15C119.22,147.8,119,146.74,118.86,145.77Zm5.52,12.51c-.1,1.74-1.88,2.61-4.72.23l.65-1.17c0-.47-.08-.89-.12-1.34C122.8,155.23,124.94,155.53,124.38,158.28ZM120.11,155h0Zm-.46-4.17c1.88-.64,3.94-.8,4.23,1.16s-2,2.16-3.86,2.05C119.9,152.93,119.78,151.87,119.65,150.87Zm-8.39,20.62c.56-.71,1.21-1.55,2-2.58C118.33,171.53,114.92,175.19,111.26,171.49Zm3-4.15c.55-.81,1.14-1.7,1.77-2.7C121.41,167,118.12,170.88,114.31,167.34Zm5.24,34.29c1.91,0,4,.39,3.66,2.2s-2.39,1.69-4.18,1Q119.29,203.41,119.54,201.63Zm-.88,5.06c1.88.07,3.88.59,3.49,2.36-.45,1.92-2.5,1.57-4.24.84C118.14,209,118.4,208,118.66,206.69Zm1.13-7c.12-1,.24-2,.35-3.17C126.2,196.24,124.84,201.25,119.79,199.73Zm0-7.63c2.9-2.48,4.62-1.41,4.71.21.56,2.75-1.56,3.06-4.18,2.3,0-.45.08-.87.11-1.34Zm.45,3.49v0l.1,0Zm-1.41-5.2c-.57-1-1.11-1.91-1.63-2.76,2.78-2.5,4.38-1.22,4.1-1C122.71,188.31,120.88,189.6,118.82,190.39ZM116.18,186q-1-1.5-1.8-2.71c2.71-2.6,4.32-1.26,4-1C119.76,183.84,118.09,185.16,116.18,186Zm.9-23c.52-.86,1.06-1.77,1.63-2.77,1.83.69,3.72,1.82,2.73,3.44S118.53,164.32,117.08,163Zm2-28.42c2.13,2.69,1.79,4.07-1.88,4.33C116.3,135.9,116.29,135.92,119.08,134.59Zm4.58-2.39c3.48,4.34-1,6.48-2.86,1.55C121.61,133.34,122.55,132.84,123.66,132.2Zm4.35-2.73c3.76,4.25-.64,6.57-2.72,1.76C126.12,130.71,127,130.13,128,129.46Zm4.19-3c1.36,1.33,2.65,3.16,1.08,4.24s-2.91-.54-3.7-2.35C130.41,127.8,131.27,127.18,132.2,126.49Zm1.56-1.18,1.06-.81c.16-.44.3-.84.45-1.27,2.7.35,4.53,1.49,2.89,3.78C137.39,128.56,135.38,128.65,133.76,125.31Zm1.83-3,.2.09-.22,0Zm7.37-19c.83,3.3,0,4.4-3.55,3.13C139.73,103.17,139.53,103.34,143,103.25Zm15.25-2.11c2,5.35-3,6.2-3.13.66C156.07,101.6,157.1,101.39,158.22,101.14Zm.94-.22h0s0,.06,0,.08Zm3.18-1.51c3.23,2,2.76,4,1.26,4.54-2.44,1.39-3.4-.54-3.48-3.26l1.31-.31Zm.66-.71h0l0,0Zm2.79-3.15c1.74,1,3.25,2.4,2,3.93s-2.74.12-3.92-1.27l-.2-.22C164.43,97.12,165.13,96.32,165.79,95.54Zm11.73-11.3c-.57,3.38-1.82,4.05-4.55,1.42C174.5,83.18,174.64,83.13,177.52,84.25Zm15.74,4.48h0l0,.08S193.26,88.76,193.26,88.73Zm4.4-.46,0,0,0,.1Zm3.82-1.74c3.21,4.41-1.36,7-2.9,1.34C199.63,87.41,200.59,87,201.49,86.53Zm4.62-2.35c1.2,1.49,2.08,3.36.35,4.31-1.16.62-2-.08-2.6-1.24a7,7,0,0,1-.69-1.53Q204.8,84.9,206.11,84.18Zm4.4-2.63c3.52,4.19-.72,6.79-2.75,1.7C208.85,82.61,209.74,82,210.5,81.56Zm6.32-.57c-1.89,2.85-3.32,3-4.71-.49C214.52,78.89,214.75,78.91,216.82,81Zm12.56,10.51h0l0,0Zm8.41,1.35c1.09,5.36-4.07,5.79-3.2,0C235.73,92.87,236.78,92.86,237.78,92.84Zm12.16-1.17c3-.54,3.1-.51,4.11,2.31C251.16,95.81,249.84,95.36,249.94,91.67Zm11.3,17.05-.06,0,.05,0Zm2.42,2.52c-.48,2-1.44,3.92-3.28,3.09-2.35-1.09-2.43-3.42,1.37-4.79l.69,1.14Zm.85.39,0,0-.06.09ZM280,117.21c3.26.82,3.18.76,2.86,3.79C279.38,121.51,278.34,120.54,280,117.21Zm3.37,20.16v0h-.06Zm1.2,3.32c-1.24,1.62-2.95,3-4.25,1.48-1.69-2-.82-4.1,3.19-3.82.06.44.11.86.18,1.32Zm3.45,3.83c-3.23,4.32-7.05.86-2.16-2.36C286.57,143,287.29,143.79,288,144.52Zm3.9,28v0l-.08,0Zm0,4.48h0Zm5.28,19.79c-2.64-2.19-2.66-3.61.93-4.65C299.79,195.13,299.85,194.84,297.17,196.8ZM295.64,198c-.71.56-1.53,1.25-2.48,2.1C289,196.57,292.77,193.42,295.64,198Zm-3.87,3.39c-.71.68-1.48,1.43-2.31,2.29C285,200.36,288.68,197,291.77,201.36ZM288.15,205c-.68.73-1.39,1.52-2.15,2.38C281.17,204.24,284.88,200.7,288.15,205Zm-3.41,3.85-.88,1c-.07.47-.11.88-.17,1.33-1.23.09-2.9,0-3.61-.79-1.14-1.34.77-6.15,4.37-1.92Zm-1.18,3.35-.08,0h.08Zm-3.26,20.16c-1.52-3-.86-4.32,2.84-3.8C283.49,231.78,283.62,231.61,280.3,232.41Zm-5,1.43c-.86-1.65-1.41-3.64.31-4.18s2.59,1.28,2.84,3.22C277.6,233.12,276.55,233.43,275.33,233.84Zm-4.81,1.78c-1-1.63-1.65-3.63.08-4.26s2.64,1.16,3,3.09C272.64,234.79,271.64,235.17,270.52,235.62Zm-4.7,2c-1.05-1.58-1.93-3.64-.18-4.38s2.73,1.13,3.13,3.08C267.84,236.75,266.87,237.17,265.82,237.65Zm-.87.4,0,0,0-.11Zm-.89.42-1.21.57-.69,1.14c-6.17-2.2-1-6.44.75-4.33A6.7,6.7,0,0,1,264.06,238.48ZM261.65,241l0,0-.1-.09Zm-.51.86c-.59,1-1.11,1.92-1.59,2.8a5.88,5.88,0,0,1-2.58-1.45C255.81,241.88,257.1,238.62,261.14,241.87Zm-2.47,4.42c-.57,1.08-1.06,2.07-1.48,3-5-1.48-2.87-5.18.07-3.77A7.75,7.75,0,0,1,258.67,246.29Zm-8.22,11.89c-.13-3.44.94-4.34,4.13-2.35C253.58,258.94,253.82,258.82,250.45,258.18Zm-16.33-1.12h0v0Zm-5,1.94c-.94.68-1.79,1.31-2.59,1.92-1.51-1.33-2.67-3-1.11-4.24S228.23,257.27,229.1,259ZM225,262.08q-1.41,1.12-2.53,2.09c-1.49-1.22-2.69-2.85-1.21-4.12S224.06,260.45,225,262.08Zm-6.28,5.58c-4-3.08-1-6.06,1.39-3.52a8.25,8.25,0,0,1,1,1.22C220.16,266.24,219.38,267,218.73,267.66Zm-6,1.85c1.26-3.15,2.6-3.54,4.7-.47C215.34,271.23,215.29,271.23,212.71,269.51Zm-14.47-7.64h0l.05-.07Zm-4.4-.45h0v-.14Zm-4.12.92c-.82-1.79-1.25-3.87.69-4.37s2.35,1.71,2.44,3.66C191.74,261.87,190.7,262.11,189.73,262.35Zm-5,1.34c-.87-1.71-1.34-3.74.55-4.31s2.41,1.53,2.59,3.43C186.72,263.11,185.68,263.4,184.73,263.68Zm-4.86,1.63c-2.47-4.62,2.13-6.76,3.05-1.07C181.73,264.63,180.72,265,179.87,265.31Zm-6.36-.68c2.51-2.47,3.92-2.3,4.57,1.37C175.05,267.21,175,267.19,173.51,264.63Zm-9.36-12.26c1.18-1.49,2.86-3,4.1-1.52s-.26,3-1.95,3.93C165.64,254,164.94,253.22,164.15,252.37Zm-.66-.7,0,0,.08,0Zm-2.91-2c.05-2.68,1-4.65,3.46-3.28,1.5.56,2.05,2.49-1.23,4.55l-.92-1Zm-.93-.21h-.06l.06-.15C159.65,249.35,159.66,249.41,159.66,249.46Zm-16.25-2.22c-3.27-.08-3.19,0-3.56-3.12C143.09,242.91,144.29,243.67,143.41,247.24Zm-7.51-19H136l-.07,0Zm-1.83-3c1.67-3.49,3.63-3.16,4.43-1.66,1.21,1.22.89,3.19-2.92,3.71-.15-.42-.29-.82-.45-1.26Zm-.77-.58,0,0,.09-.09Zm-.8-.59c-.93-.68-1.8-1.29-2.63-1.86.77-1.79,2-3.49,3.7-2.39S133.86,222.71,132.49,224.06Zm-4.2-2.93q-1.5-1-2.76-1.76c.7-1.78,1.88-3.46,3.56-2.44S129.57,219.73,128.29,221.13Zm-4.36-2.71c-1.12-.65-2.07-1.15-2.89-1.56.63-1.83,1.72-3.55,3.45-2.61S125.12,217,123.93,218.43ZM119.35,216c-2.66-1.31-2.73-1.47-1.94-4.3C120.81,211.93,121.61,213.1,119.35,216Z"/></g></g></g></svg>