<svg id="Layer_1" data-name="Layer 1" xmlns="http://www.w3.org/2000/svg" viewBox="0 0 150 85.5"><defs><style>.cls-1{fill:#c2c1c0;}.cls-2{fill:#761d18;}.cls-3{fill:#e6aaae;}.cls-4{fill:#d80f82;}.cls-5{fill:#c7bec5;}.cls-6{fill:#761c16;}.cls-7{fill:#c3c3c3;}.cls-8{fill:#d5137f;}.cls-9{fill:#f6a2ab;}.cls-10,.cls-12,.cls-15{fill:none;}.cls-10{stroke:#761916;stroke-width:3px;}.cls-10,.cls-12,.cls-13,.cls-15{stroke-miterlimit:10;}.cls-11{fill:#761a16;}.cls-12{stroke:#761a16;stroke-width:0.5px;}.cls-13{fill:#fef59b;stroke-width:2px;}.cls-13,.cls-15{stroke:#fba919;}.cls-14{fill:#231f20;}.cls-15{stroke-width:5px;}</style></defs><title>logo</title><path class="cls-1" d="M29.9,38.34s-.66-.85,1.8-7.82-1.56-14.27-4.46-16S12.16,6.28,4.1,22.27s20.82,38.65,11,49.08c0,0-1.9,3-8.54,2.09,0,0-1.6.18.18,1.13s13.29,2.67,13.48-10.23c0,0,.09-3.89-3.22-10.91S12,45.93,8.7,36.7,7.05,16,18.5,15.71,26.78,32,26.78,32a7.91,7.91,0,0,0,.89,4.68C28.93,38.72,29.9,38.34,29.9,38.34Z"/><path class="cls-2" d="M28.93,36.06a51.39,51.39,0,0,1,1.68-7.66c1.07-3.2,1.28-12.35-9.1-15.1S4.67,21.84,5,24.45s-3,9.91,5.07,22.38,7.82,15.89,8.2,18-1.33,6.64-1.33,6.64,6.21-4.74-2.51-20.06-9.72-21.58-6.78-30S19.89,13.59,23.3,16,29.47,20.61,28,33.88L28.86,36"/><path class="cls-3" d="M5,29.52a3.91,3.91,0,0,1-2.61-.24c-1.14-.64-1.3-.36-1.3-.36a3.11,3.11,0,0,0,.31,1.66,3.37,3.37,0,0,0,2.75.85A1.62,1.62,0,0,0,5.4,30.28C5.54,29.81,5,29.52,5,29.52Z"/><path class="cls-4" d="M4.41,30a3.47,3.47,0,0,1-1.67-.19c-.8-.33-1.34-.59-1.34-.59s-.36.47.31,1A4.26,4.26,0,0,0,3.6,31c.45.07,1.42,0,1.4-.43A.73.73,0,0,0,4.41,30Z"/><path class="cls-3" d="M5,26.68a3.91,3.91,0,0,1-2.61-.24c-1.14-.64-1.3-.36-1.3-.36a3.11,3.11,0,0,0,.31,1.66,3.37,3.37,0,0,0,2.75.85A1.62,1.62,0,0,0,5.4,27.43C5.54,27,5,26.68,5,26.68Z"/><path class="cls-4" d="M4.41,27.17A3.47,3.47,0,0,1,2.74,27c-.8-.33-1.34-.59-1.34-.59s-.36.47.31,1a4.26,4.26,0,0,0,1.9.81c.45.07,1.42,0,1.4-.43A.73.73,0,0,0,4.41,27.17Z"/><path class="cls-5" d="M28,12.87s-1.58-7.54-9.1-3.11c0,0-1.21.78,1.54.73s6.08,1.39,6.87,2.48S28,12.87,28,12.87Z"/><path class="cls-6" d="M27.22,11.86s-1.59-4.24-7-2.23a8.84,8.84,0,0,1,7,2.39"/><path class="cls-5" d="M27.83,8.69s-1.11-5.28-6.37-2.18c0,0-.85.54,1.08.51s4.25,1,4.81,1.73S27.83,8.69,27.83,8.69Z"/><path class="cls-6" d="M27.25,8s-1.11-3-4.91-1.56A6.19,6.19,0,0,1,27.25,8.1"/><path class="cls-7" d="M27,1.24s-3.34,2.83-1.33,3.87S27.45,2,27,1.24Z"/><path class="cls-6" d="M26.54,2.49s-1.09.81-.87,1.63.74.11.74.11A3.07,3.07,0,0,0,26.54,2.49Z"/><path class="cls-8" d="M18.25,42.42a15.4,15.4,0,0,1-1.87-1.77c-.13-.32-.35.63-.35.63l1.53,1.55Z"/><path class="cls-9" d="M16,41.28s-2,1.39-1.61,2.34,1.23.63,1.74.32,1.68-1.15,1.68-1.15Z"/><circle class="cls-10" cx="29.16" cy="40.58" r="3.58"/><circle class="cls-9" cx="29.15" cy="44.25" r="1.15"/><polygon class="cls-9" points="29.48 45.35 29.48 45.96 28.84 45.96 28.82 45.35 29.48 45.35"/><path class="cls-11" d="M18.93,28.21s-4.43-.41-5.6,1.13-1.39,1.82-1.41,2.4,1-1.48,1.17-1.58a3,3,0,0,1,2.23-1.54C16.92,28.51,18.93,28.21,18.93,28.21Z"/><path class="cls-11" d="M21.76,26s-10.62-2.38-11.5,5.64c0,0,.24.64.69,0s.74-6.69,10.41-5.26C21.36,26.39,21.91,26.31,21.76,26Z"/><path class="cls-12" d="M20.46,28.21s-.28,1-2.21,1.31l-.32,0c-1.88.23-4.25-.25-5.63,2.89,0,0-.51.41.47.76s3.7-.87,4.36-1.37l.7-2.17S20.41,29.12,20.46,28.21Z"/><path class="cls-12" d="M16.52,29.74s.21,2-1.17,2.5a2.33,2.33,0,0,1-2.4-.92"/><path class="cls-12" d="M15.59,29.77s.1,1.61-.62,1.71-1.42-.73-1.42-.73A2.92,2.92,0,0,1,15.59,29.77Z"/><path class="cls-13" d="M30.39,49.28q.07,1.52.07,4.15,0,4,.07,5.11a2.7,2.7,0,0,0,.58,1.68,1.53,1.53,0,0,0,1.16.56,2.65,2.65,0,0,0,1.56-.58A3.41,3.41,0,0,0,35,58.7a8.83,8.83,0,0,0,.38-3l0-3.27a6.55,6.55,0,0,0-.14-1.71q-.14-.41-1-.44t-.89-.46a.3.3,0,0,1,.21-.32,5.41,5.41,0,0,1,1.13-.07q2.05,0,3.83-.1.06.58.06,6.31,0,4.61.09,5t1,.5q.52.06.52.43t-.59.43h-.37q-.41,0-1,0H35.73q-.28,0-.35-.1a1.36,1.36,0,0,1-.07-.57,11.84,11.84,0,0,1,.1-1.55,7.52,7.52,0,0,1-2.15,1.86,4.86,4.86,0,0,1-2.37.62q-3.77,0-3.77-4.23V53.43A11.75,11.75,0,0,0,27,50.66q-.17-.41-.89-.51t-.65-.38q0-.4.58-.4Q29.95,49.37,30.39,49.28Z"/><path class="cls-13" d="M47.62,49V61.64A18.17,18.17,0,0,1,47.19,66a5.35,5.35,0,0,1-1.8,2.84A4.88,4.88,0,0,1,42.15,70a3.83,3.83,0,0,1-2.48-.75,2.21,2.21,0,0,1-.93-1.74,2,2,0,0,1,.5-1.34,1.64,1.64,0,0,1,1.32-.6,1.59,1.59,0,0,1,1.24.47,1.46,1.46,0,0,1,.43,1,3.16,3.16,0,0,1-.38,1.15,1.06,1.06,0,0,0-.1.41.35.35,0,0,0,.21.32,1.32,1.32,0,0,0,.61.11q1.79,0,1.79-3.26,0-.24-.07-2.58t-.07-8.81q0-2.53,0-3.09A1.25,1.25,0,0,0,42.68,50q-.84,0-.84-.37t1-.46Q44.26,49.19,47.62,49Zm-.21-5.12a2.13,2.13,0,1,1-.63-1.51A2,2,0,0,1,47.41,43.9Z"/><path class="cls-13" d="M58.41,60.57a7.05,7.05,0,0,1-1.85,1.31,4.39,4.39,0,0,1-1.88.44,3,3,0,0,1-2.33-.91,3.19,3.19,0,0,1-.82-2.21,3.33,3.33,0,0,1,.49-1.8,3.65,3.65,0,0,1,1.22-1.23,15.11,15.11,0,0,1,2.41-1,12.3,12.3,0,0,0,1.9-.79,2.33,2.33,0,0,0,.8-.84A2.82,2.82,0,0,0,58.69,52a2.34,2.34,0,0,0-.49-1.55,1.65,1.65,0,0,0-1.34-.58,1.3,1.3,0,0,0-1,.37,2.82,2.82,0,0,0-.47,1.22q-.34,1.68-1.82,1.68a1.57,1.57,0,0,1-1-.35,1.25,1.25,0,0,1-.43-1,2.26,2.26,0,0,1,1.54-2.12A8.86,8.86,0,0,1,57.3,49a6.93,6.93,0,0,1,3,.56,2.89,2.89,0,0,1,1.49,1.3,6.09,6.09,0,0,1,.33,2.31l0,3.5a20.29,20.29,0,0,0,.18,3.55q.18.78.79.78h.24l.4,0q.61,0,.61.34a.44.44,0,0,1-.25.38,6.32,6.32,0,0,1-1.52.39,12.55,12.55,0,0,1-2.28.24,1.94,1.94,0,0,1-1.4-.39A2.13,2.13,0,0,1,58.41,60.57Zm.19-5.93a6.25,6.25,0,0,1-1.7,1.14,5.65,5.65,0,0,0-1.64,1.16,2.35,2.35,0,0,0-.41,1.5A2.47,2.47,0,0,0,55.28,60a1.33,1.33,0,0,0,1.07.54,2.17,2.17,0,0,0,1.6-.79A4.1,4.1,0,0,0,58.69,57Q58.69,56.35,58.6,54.65Z"/><path class="cls-13" d="M70.61,52a6.25,6.25,0,0,1,1.7-2.23A3.43,3.43,0,0,1,74.45,49a2.48,2.48,0,0,1,1.8.65,2.17,2.17,0,0,1,.67,1.63,1.9,1.9,0,0,1-.48,1.31,1.51,1.51,0,0,1-1.18.54,1.35,1.35,0,0,1-.86-.27,3.23,3.23,0,0,1-.72-.95q-.53-1-.93-1T71.51,52a9,9,0,0,0-.69,4.3,17.36,17.36,0,0,0,.27,4.48q.27.45,1.2.45t.81.44q0,.41-.8.41-.44,0-1.29-.08T69.57,62q-1.46,0-2.9.1l-.71,0q-.62,0-.62-.47t.72-.44a1.4,1.4,0,0,0,1-.33,2.09,2.09,0,0,0,.28-1.32l.06-3.69q0-1.12-.09-2.79a18.45,18.45,0,0,0-.16-2,1,1,0,0,0-.38-.57,1.45,1.45,0,0,0-.82-.3,2.15,2.15,0,0,1-.67-.14.35.35,0,0,1-.14-.33q0-.4.74-.41,1.36,0,4.63-.35Z"/><path class="cls-13" d="M84.81,60.57A7.05,7.05,0,0,1,83,61.88a4.39,4.39,0,0,1-1.88.44,3,3,0,0,1-2.33-.91,3.19,3.19,0,0,1-.82-2.21,3.33,3.33,0,0,1,.49-1.8,3.65,3.65,0,0,1,1.22-1.23,15.1,15.1,0,0,1,2.41-1,12.3,12.3,0,0,0,1.9-.79,2.33,2.33,0,0,0,.8-.84A2.82,2.82,0,0,0,85.09,52a2.34,2.34,0,0,0-.49-1.55,1.65,1.65,0,0,0-1.34-.58,1.3,1.3,0,0,0-1,.37,2.82,2.82,0,0,0-.47,1.22q-.34,1.68-1.82,1.68a1.57,1.57,0,0,1-1-.35,1.25,1.25,0,0,1-.43-1A2.26,2.26,0,0,1,80,49.69,8.86,8.86,0,0,1,83.7,49a6.93,6.93,0,0,1,3,.56,2.89,2.89,0,0,1,1.49,1.3,6.08,6.08,0,0,1,.33,2.31l0,3.5a20.28,20.28,0,0,0,.18,3.55q.18.78.79.78h.24l.4,0q.61,0,.61.34a.44.44,0,0,1-.25.38,6.32,6.32,0,0,1-1.52.39,12.55,12.55,0,0,1-2.28.24,1.94,1.94,0,0,1-1.4-.39A2.13,2.13,0,0,1,84.81,60.57ZM85,54.65a6.25,6.25,0,0,1-1.7,1.14,5.65,5.65,0,0,0-1.64,1.16,2.35,2.35,0,0,0-.41,1.5A2.47,2.47,0,0,0,81.69,60a1.33,1.33,0,0,0,1.07.54,2.17,2.17,0,0,0,1.6-.79A4.1,4.1,0,0,0,85.09,57Q85.09,56.35,85,54.65Z"/><path class="cls-13" d="M97.42,51.29a8.12,8.12,0,0,1,2.15-1.72,4.73,4.73,0,0,1,2.21-.57,4.91,4.91,0,0,1,1.69.33,5.17,5.17,0,0,1,1.94,1.52,8,8,0,0,1,2.19-1.4,6,6,0,0,1,2.3-.47,3.72,3.72,0,0,1,3,1.1,5,5,0,0,1,.93,3.29l-.07,5a7.34,7.34,0,0,0,.21,2.44q.21.32,1.11.45.51.09.51.4t-.61.46l-.29,0Q113.42,62,112,62q-.8,0-1.92.08l-.8,0q-.74,0-.74-.41t.49-.43a2.29,2.29,0,0,0,1-.3,2.92,2.92,0,0,0,.3-1.37q.1-1.19.1-4A30.87,30.87,0,0,0,110.3,52a2.65,2.65,0,0,0-.61-1.47,1.55,1.55,0,0,0-1.18-.51,2.2,2.2,0,0,0-1.29.48A6.35,6.35,0,0,0,105.87,52a35.82,35.82,0,0,0-.46,6.59,5.18,5.18,0,0,0,.27,2.21,1.66,1.66,0,0,0,1.21.49q.56.06.56.38t-.71.46L105.6,62q-1.35-.08-1.91-.08-1,0-2.28.12l-.52,0q-.65,0-.65-.43t.64-.43a1.11,1.11,0,0,0,1.06-.94,43.82,43.82,0,0,0,.22-6.17,8,8,0,0,0-.38-3,1.3,1.3,0,0,0-1.26-.82,2.65,2.65,0,0,0-2.38,1.6q-.87,1.6-.87,6.17a7.18,7.18,0,0,0,.27,2.63,1.16,1.16,0,0,0,1,.53q.56,0,.56.38t-.61.47l-.41,0a23.78,23.78,0,0,0-2.63-.1,21.55,21.55,0,0,0-2.56.12l-.53,0q-.49,0-.49-.43t.55-.43q.89,0,1.09-.31a3.59,3.59,0,0,0,.31-1.49q.1-1.22.1-4.6,0-2.63-.07-3.3a1.46,1.46,0,0,0-.49-1,1.8,1.8,0,0,0-1.16-.37q-.61,0-.61-.4t.61-.41q.78,0,2.32-.2T97.23,49a4.05,4.05,0,0,1,.18,1.42Q97.41,50.67,97.42,51.29Z"/><path class="cls-13" d="M122.13,50a6.56,6.56,0,0,1,1.69-.75,6.67,6.67,0,0,1,1.8-.24,5.6,5.6,0,0,1,4.26,1.85,6.5,6.5,0,0,1,1.73,4.61,6.77,6.77,0,0,1-.85,3.37,6.9,6.9,0,0,1-2.34,2.47,6.27,6.27,0,0,1-3.44,1,6.76,6.76,0,0,1-2.32-.36,12.79,12.79,0,0,1-2.38-1.25.65.65,0,0,0-.3-.12q-.31,0-.46.58-.28,1-.62,1a.31.31,0,0,1-.33-.22,14,14,0,0,1-.07-2l.12-10.73q0-5.51-.12-6t-1.12-.62q-.64-.06-.64-.43t.58-.4q.33,0,1.4.07.81,0,1.42,0l1.48,0q.55,0,.55.41V43Q122.17,49,122.13,50Zm2.57.12a2.48,2.48,0,0,0-1.66.63q-.74.63-.93,3t-.19,3.71a4.39,4.39,0,0,0,.78,3,2.41,2.41,0,0,0,1.84.85,2.49,2.49,0,0,0,2.19-1.55,8.2,8.2,0,0,0,.84-3.94,9.67,9.67,0,0,0-.75-4A2.34,2.34,0,0,0,124.7,50.17Z"/><path class="cls-13" d="M139.1,41.81q-.06,1.48-.06,2.54V48.3q0,2.54,0,3.12a6.14,6.14,0,0,1,1.94-1.8,4.75,4.75,0,0,1,2.36-.6,4.23,4.23,0,0,1,2,.48,3.22,3.22,0,0,1,1.44,1.6,10.38,10.38,0,0,1,.51,3.9l0,4.65q0,1.52,1.2,1.64.47,0,.47.4t-.5.43l-.4,0A29.45,29.45,0,0,0,145,62q-.34,0-1.23.09-.62.06-1.08.06t-.61-.4q0-.34.68-.44a1,1,0,0,0,.87-.84,28,28,0,0,0,.19-4.49,17.77,17.77,0,0,0-.35-4.47,1.38,1.38,0,0,0-1.41-1.05,2.46,2.46,0,0,0-1.74.89,4.58,4.58,0,0,0-1.12,2.49,24.38,24.38,0,0,0-.27,3.93,16.1,16.1,0,0,0,.12,2.09,2.25,2.25,0,0,0,.33,1.11,1.25,1.25,0,0,0,.73.3q.56.06.56.47t-.64.38q-.47,0-1.37-.08-.74-.07-1.32-.07a18.62,18.62,0,0,0-2.17.12,11.78,11.78,0,0,1-1.32.06.37.37,0,0,1-.43-.41q0-.34.61-.43a1.26,1.26,0,0,0,1-.63,14.46,14.46,0,0,0,.39-3.9q.1-3.36.1-10.26a7.22,7.22,0,0,0-.33-2.74,1.79,1.79,0,0,0-1.09-.88q-.74-.24-.74-.55t.64-.4Q136.31,41.93,139.1,41.81Z"/><path class="cls-14" d="M67.2,74.13v1.75h1.58v.84H67.2V80c0,.75.21,1.18.83,1.18a2.47,2.47,0,0,0,.64-.08l.05.83a2.71,2.71,0,0,1-1,.15,1.53,1.53,0,0,1-1.19-.46A2.25,2.25,0,0,1,66.12,80V76.72h-.94v-.84h.94V74.42Z"/><path class="cls-14" d="M70.78,73h1.11v3.8h0a2.05,2.05,0,0,1,.79-.78,2.27,2.27,0,0,1,1.13-.31c.82,0,2.12.5,2.12,2.6V82H74.85V78.47c0-1-.36-1.81-1.41-1.81A1.59,1.59,0,0,0,72,77.76a1.34,1.34,0,0,0-.08.53V82H70.78Z"/><path class="cls-14" d="M79.13,79.12a2,2,0,0,0,2.09,2.11,4,4,0,0,0,1.68-.31l.19.79a4.93,4.93,0,0,1-2,.38,2.83,2.83,0,0,1-3-3.07c0-1.84,1.08-3.28,2.85-3.28a2.58,2.58,0,0,1,2.51,2.87,4.21,4.21,0,0,1,0,.52Zm3.24-.79a1.57,1.57,0,0,0-1.53-1.8,1.83,1.83,0,0,0-1.7,1.8Z"/><path class="cls-14" d="M88.93,82c0-.41.05-1,.05-1.57V73h1.09v3.82h0a2.27,2.27,0,0,1,2.07-1.12c1.51,0,2.58,1.26,2.56,3.1,0,2.17-1.37,3.26-2.73,3.26A2.17,2.17,0,0,1,90,81h0l-.05,1Zm1.14-2.44a2.08,2.08,0,0,0,.05.4,1.71,1.71,0,0,0,1.66,1.29c1.16,0,1.85-.94,1.85-2.34,0-1.22-.63-2.26-1.81-2.26A1.76,1.76,0,0,0,90.14,78a2.16,2.16,0,0,0-.06.45Z"/><path class="cls-14" d="M97.5,79.12a2,2,0,0,0,2.09,2.11,4,4,0,0,0,1.68-.31l.19.79a4.93,4.93,0,0,1-2,.38,2.83,2.83,0,0,1-3-3.07c0-1.84,1.08-3.28,2.85-3.28a2.58,2.58,0,0,1,2.51,2.87,4.21,4.21,0,0,1,0,.52Zm3.24-.79a1.57,1.57,0,0,0-1.53-1.8,1.83,1.83,0,0,0-1.7,1.8Z"/><path class="cls-14" d="M109.18,75.88c0,.44-.05.93-.05,1.67v3.53a3.5,3.5,0,0,1-.87,2.78,3.22,3.22,0,0,1-2.21.73,3.93,3.93,0,0,1-2-.5l.28-.84a3.43,3.43,0,0,0,1.79.48c1.13,0,2-.59,2-2.12v-.68h0a2.17,2.17,0,0,1-1.94,1,2.72,2.72,0,0,1-2.59-3c0-2.06,1.34-3.23,2.74-3.23a2,2,0,0,1,1.9,1.06h0l.05-.92ZM108,78.28a1.57,1.57,0,0,0-.06-.5,1.59,1.59,0,0,0-1.55-1.17c-1.06,0-1.81.89-1.81,2.3,0,1.19.6,2.19,1.8,2.19A1.62,1.62,0,0,0,108,80a1.92,1.92,0,0,0,.09-.59Z"/><path class="cls-14" d="M112.88,74.17a.69.69,0,0,1-1.37,0,.67.67,0,0,1,.69-.69A.66.66,0,0,1,112.88,74.17ZM111.65,82V75.88h1.11V82Z"/><path class="cls-14" d="M115.34,77.53c0-.63,0-1.14-.05-1.65h1l.06,1h0a2.24,2.24,0,0,1,2-1.14c.84,0,2.15.5,2.15,2.59V82h-1.11V78.46c0-1-.36-1.8-1.41-1.8a1.62,1.62,0,0,0-1.56,1.65V82h-1.11Z"/><path class="cls-14" d="M123.07,77.53c0-.63,0-1.14-.05-1.65h1l.06,1h0a2.24,2.24,0,0,1,2-1.14c.84,0,2.15.5,2.15,2.59V82h-1.11V78.46c0-1-.36-1.8-1.41-1.8a1.62,1.62,0,0,0-1.56,1.65V82h-1.11Z"/><path class="cls-14" d="M132,74.17a.69.69,0,0,1-1.37,0,.67.67,0,0,1,.69-.69A.66.66,0,0,1,132,74.17ZM130.8,82V75.88h1.11V82Z"/><path class="cls-14" d="M134.5,77.53c0-.63,0-1.14-.05-1.65h1l.06,1h0a2.24,2.24,0,0,1,2-1.14c.84,0,2.15.5,2.15,2.59V82h-1.11V78.46c0-1-.36-1.8-1.41-1.8a1.62,1.62,0,0,0-1.56,1.65V82H134.5Z"/><path class="cls-14" d="M147.47,75.88c0,.44-.05.93-.05,1.67v3.53a3.5,3.5,0,0,1-.87,2.78,3.22,3.22,0,0,1-2.21.73,3.93,3.93,0,0,1-2-.5l.28-.84a3.43,3.43,0,0,0,1.79.48c1.13,0,2-.59,2-2.12v-.68h0a2.17,2.17,0,0,1-1.94,1,2.72,2.72,0,0,1-2.59-3c0-2.06,1.34-3.23,2.74-3.23a2,2,0,0,1,1.9,1.06h0l.05-.92Zm-1.14,2.4a1.57,1.57,0,0,0-.06-.5,1.59,1.59,0,0,0-1.55-1.17c-1.06,0-1.81.89-1.81,2.3,0,1.19.6,2.19,1.8,2.19A1.62,1.62,0,0,0,146.24,80a1.92,1.92,0,0,0,.09-.59Z"/><line class="cls-15" x1="1.33" y1="79.48" x2="59.22" y2="79.48"/></svg>